<svg width="500" height="517" viewBox="0 0 500 517" fill="none" xmlns="http://www.w3.org/2000/svg">
<path d="M388.964 393.772C379.438 403.921 370.914 409.895 364.388 414.391C300.738 458.316 227.988 445.655 205.482 441.329C169.188 434.348 138.552 429.422 112.23 404.843C52.4177 348.993 55.3257 232.486 101.03 160.311C106.45 151.753 152.084 81.8414 225.002 71.9898C226.784 71.748 228.116 71.6116 229.28 71.4834C240.56 70.2432 310.462 63.734 367.458 113.087C380.444 124.37 391.723 137.597 400.922 152.33C445.442 223.395 445.584 333.455 388.964 393.772Z" fill="#F9EFE4"/>
<path d="M360.725 322.789C372.371 307.425 379.055 289.522 379.055 270.447C379.055 214.982 321.985 169.052 249.779 167.831C175.497 166.576 113.693 212.863 113.693 271.251C113.693 329.639 175.493 375.553 249.779 373.847C277.079 373.227 302.179 366.23 322.829 354.845C336.383 356.972 357.281 360.558 368.229 362.456C371.447 363.012 382.229 359.24 381.067 356.065L360.725 322.789Z" fill="url(#paint0_linear)"/>
<path d="M370.175 319.902C381.821 304.812 388.503 287.255 388.503 268.535C388.503 214.104 331.433 169.03 259.227 167.831C184.947 166.59 123.143 212.024 123.143 269.323C123.143 326.622 184.943 371.683 259.227 370.009C286.529 369.389 311.627 362.535 332.277 351.36C345.831 353.448 366.729 356.968 377.689 358.831C380.905 359.376 383.539 356.098 382.389 352.983L370.175 319.902Z" fill="url(#paint1_linear)"/>
<g style="mix-blend-mode:multiply" opacity="0.3">
<path style="mix-blend-mode:multiply" opacity="0.3" d="M330.781 289.803C301.703 277.608 269.341 304.114 248.899 285.851C228.129 267.293 250.559 230.454 230.683 204.043C221.151 191.383 205.059 185.233 186.529 182.889C148.579 200.748 123.143 232.691 123.143 269.323C123.143 326.624 184.943 371.683 259.227 370.009C286.529 369.389 311.627 362.535 332.277 351.36C342.979 353.014 358.259 355.55 369.605 357.462C361.241 313.262 345.783 296.1 330.781 289.803Z" fill="url(#paint2_linear)"/>
</g>
<path d="M259.225 341.845C218.755 342.536 185.359 309.924 185.359 269.139C185.359 228.354 218.759 195.552 259.225 195.994C299.073 196.439 331.039 229.055 331.039 268.707C331.039 308.359 299.073 341.163 259.225 341.845Z" fill="url(#paint3_linear)"/>
<path d="M326.151 268.721C326.151 305.722 296.403 336.217 259.225 336.814C221.505 337.422 190.521 307.121 190.521 269.124C190.521 231.128 221.505 200.641 259.225 201.023C296.399 201.404 326.151 231.709 326.151 268.721Z" fill="white"/>
<path d="M276.546 217.589C288.946 225.423 292.408 239.086 293.2 242.394C298.668 265.338 281.816 276.978 289 293.194C294.884 306.485 311.528 310.679 310.842 312.136C310.23 313.438 298.35 307.086 286.88 304.207C249.48 294.82 216.968 322.511 212.362 315.576C209.1 310.673 228.162 300.926 232.086 278.143C235.81 256.576 222.216 245.11 230.47 229.016C235.972 218.286 246.602 214.433 248.418 213.808C262.492 208.982 274.642 216.386 276.546 217.589Z" fill="url(#paint4_linear)"/>
<path d="M199.883 316.822C199.883 316.822 257.227 279.931 328.253 316.717C328.253 316.717 319.197 348.303 265.161 350.383C209.529 352.524 199.883 316.822 199.883 316.822Z" fill="url(#paint5_linear)"/>
<path d="M254.999 268.79L252.847 286.405C252.113 292.416 248.351 297.442 243.119 299.391L225.637 305.9C225.637 305.9 259.105 323.643 301.421 305.885L282.123 298.49C276.647 296.216 272.923 290.519 272.677 284.037L272.123 268.993L254.999 268.79Z" fill="url(#paint6_linear)"/>
<path d="M257.248 280.723C248.448 278.127 243.742 270.21 240.948 265.514C236.266 257.647 229.804 241.36 235.886 232.104C236.228 231.585 236.622 231.329 237.326 230.417C241.462 225.043 240.984 220.655 242.59 217.839C246.47 211.047 262.248 213.898 263.206 214.079C280.064 217.292 287.376 233.251 287.522 233.609C287.652 233.931 287.784 234.264 287.784 234.264C288.806 236.854 294.662 251.685 287.314 265.582C281.424 276.724 268.73 284.111 257.248 280.723Z" fill="url(#paint7_linear)"/>
<path d="M281.089 253.556C281.089 268.439 272.949 284.355 262.857 284.27C252.711 284.19 244.445 267.988 244.445 252.967C244.445 237.946 252.711 229.915 262.857 230.138C272.949 230.364 281.089 238.679 281.089 253.556Z" fill="url(#paint8_linear)"/>
<path d="M243.837 262.647C245.585 262.564 243.061 246.937 249.837 242.687C255.175 239.343 263.837 245.771 266.535 247.727C268.613 249.231 276.201 254.728 277.787 263.688C278.521 267.845 277.707 271.279 279.001 271.75C280.487 272.296 283.297 268.391 284.733 265.807C288.891 258.316 291.575 243.539 282.615 233.106C276.347 225.808 267.845 225.417 265.815 225.392C254.243 225.252 243.615 234.564 241.185 245.693C239.319 254.248 242.543 262.707 243.837 262.647Z" fill="url(#paint9_linear)"/>
<path d="M349.067 394.431C287.384 407.624 223.883 409.004 161.719 398.501C161.352 398.438 161.002 398.3 160.689 398.094C160.375 397.888 160.106 397.619 159.895 397.302C159.685 396.986 159.539 396.629 159.465 396.253C159.391 395.877 159.392 395.489 159.467 395.113L160.691 388.941C160.834 388.219 161.244 387.582 161.832 387.166C162.421 386.749 163.143 386.584 163.847 386.707C224.586 397.127 286.66 395.944 346.987 383.215C347.348 383.138 347.72 383.137 348.082 383.211C348.443 383.285 348.787 383.433 349.092 383.647C349.397 383.861 349.658 384.135 349.859 384.455C350.059 384.775 350.196 385.133 350.261 385.508L351.221 391.14C351.345 391.871 351.19 392.622 350.788 393.237C350.386 393.851 349.769 394.279 349.067 394.431V394.431Z" fill="url(#paint10_linear)"/>
<path d="M348.832 413.597C287.142 427.123 223.574 428.828 161.29 418.626C160.922 418.565 160.569 418.428 160.254 418.222C159.939 418.017 159.667 417.748 159.456 417.431C159.244 417.114 159.096 416.756 159.022 416.378C158.948 416.001 158.948 415.612 159.024 415.234L160.248 409.064C160.391 408.342 160.8 407.706 161.387 407.289C161.975 406.872 162.696 406.707 163.4 406.828C224.259 416.95 286.399 415.446 346.734 402.39C347.095 402.31 347.469 402.307 347.832 402.38C348.195 402.453 348.54 402.601 348.847 402.814C349.153 403.028 349.415 403.303 349.617 403.624C349.818 403.944 349.955 404.304 350.02 404.68C350.34 406.557 350.66 408.434 350.98 410.313C351.104 411.041 350.949 411.791 350.549 412.404C350.148 413.017 349.532 413.445 348.832 413.597V413.597Z" fill="url(#paint11_linear)"/>
<defs>
<linearGradient id="paint0_linear" x1="113.693" y1="270.85" x2="381.163" y2="270.85" gradientUnits="userSpaceOnUse">
<stop stop-color="#F6AF9A"/>
<stop offset="1" stop-color="#F89F8A"/>
</linearGradient>
<linearGradient id="paint1_linear" x1="163508" y1="263228" x2="515588" y2="263228" gradientUnits="userSpaceOnUse">
<stop stop-color="#F6AF9A"/>
<stop offset="1" stop-color="#F89F8A"/>
</linearGradient>
<linearGradient id="paint2_linear" x1="198160" y1="178858" x2="387610" y2="507404" gradientUnits="userSpaceOnUse">
<stop stop-color="#F6AF9A"/>
<stop offset="1" stop-color="#F89F8A"/>
</linearGradient>
<linearGradient id="paint3_linear" x1="185.359" y1="268.922" x2="331.039" y2="268.922" gradientUnits="userSpaceOnUse">
<stop stop-color="#EF9F8E"/>
<stop offset="0.04" stop-color="#EC9686"/>
<stop offset="0.11" stop-color="#E98B7B"/>
<stop offset="0.22" stop-color="#E78475"/>
<stop offset="0.53" stop-color="#E68273"/>
</linearGradient>
<linearGradient id="paint4_linear" x1="336.074" y1="189.167" x2="195.771" y2="351.695" gradientUnits="userSpaceOnUse">
<stop stop-color="#5D535A"/>
<stop offset="1" stop-color="#464143"/>
</linearGradient>
<linearGradient id="paint5_linear" x1="269.349" y1="358.318" x2="259.358" y2="284.733" gradientUnits="userSpaceOnUse">
<stop stop-color="#86A1C3"/>
<stop offset="1" stop-color="#415B7E"/>
</linearGradient>
<linearGradient id="paint6_linear" x1="264.573" y1="316.996" x2="262.105" y2="292.635" gradientUnits="userSpaceOnUse">
<stop stop-color="#FAEBD7"/>
<stop offset="1" stop-color="#E8D0BA"/>
</linearGradient>
<linearGradient id="paint7_linear" x1="91020.5" y1="59452.2" x2="50108.7" y2="100774" gradientUnits="userSpaceOnUse">
<stop stop-color="#5D535A"/>
<stop offset="1" stop-color="#464143"/>
</linearGradient>
<linearGradient id="paint8_linear" x1="48446" y1="74930.3" x2="48261.2" y2="62413.7" gradientUnits="userSpaceOnUse">
<stop stop-color="#FAEBD7"/>
<stop offset="1" stop-color="#E8D0BA"/>
</linearGradient>
<linearGradient id="paint9_linear" x1="76999.1" y1="41394.1" x2="49786.3" y2="75075.6" gradientUnits="userSpaceOnUse">
<stop stop-color="#5D535A"/>
<stop offset="1" stop-color="#464143"/>
</linearGradient>
<linearGradient id="paint10_linear" x1="159.411" y1="394.311" x2="351.263" y2="394.311" gradientUnits="userSpaceOnUse">
<stop stop-color="#96888E"/>
<stop offset="1" stop-color="#706369"/>
</linearGradient>
<linearGradient id="paint11_linear" x1="152810" y1="46154.6" x2="337228" y2="46154.6" gradientUnits="userSpaceOnUse">
<stop stop-color="#96888E"/>
<stop offset="1" stop-color="#706369"/>
</linearGradient>
</defs>
</svg>
