<svg width="28" height="28" viewBox="0 0 28 28" fill="none" xmlns="http://www.w3.org/2000/svg">
<circle cx="14" cy="14" r="12.7" stroke="#212348" stroke-width="2.6"/>
<path fill-rule="evenodd" clip-rule="evenodd" d="M8 18.5C8 18.3674 8.05268 18.2402 8.14645 18.1464C8.24021 18.0527 8.36739 18 8.5 18H15.5C15.6326 18 15.7598 18.0527 15.8536 18.1464C15.9473 18.2402 16 18.3674 16 18.5C16 18.6326 15.9473 18.7598 15.8536 18.8536C15.7598 18.9473 15.6326 19 15.5 19H8.5C8.36739 19 8.24021 18.9473 8.14645 18.8536C8.05268 18.7598 8 18.6326 8 18.5ZM8 15.5C8 15.3674 8.05268 15.2402 8.14645 15.1464C8.24021 15.0527 8.36739 15 8.5 15H19.5C19.6326 15 19.7598 15.0527 19.8536 15.1464C19.9473 15.2402 20 15.3674 20 15.5C20 15.6326 19.9473 15.7598 19.8536 15.8536C19.7598 15.9473 19.6326 16 19.5 16H8.5C8.36739 16 8.24021 15.9473 8.14645 15.8536C8.05268 15.7598 8 15.6326 8 15.5ZM8 12.5C8 12.3674 8.05268 12.2402 8.14645 12.1464C8.24021 12.0527 8.36739 12 8.5 12H15.5C15.6326 12 15.7598 12.0527 15.8536 12.1464C15.9473 12.2402 16 12.3674 16 12.5C16 12.6326 15.9473 12.7598 15.8536 12.8536C15.7598 12.9473 15.6326 13 15.5 13H8.5C8.36739 13 8.24021 12.9473 8.14645 12.8536C8.05268 12.7598 8 12.6326 8 12.5ZM8 9.5C8 9.36739 8.05268 9.24021 8.14645 9.14645C8.24021 9.05268 8.36739 9 8.5 9H19.5C19.6326 9 19.7598 9.05268 19.8536 9.14645C19.9473 9.24021 20 9.36739 20 9.5C20 9.63261 19.9473 9.75979 19.8536 9.85355C19.7598 9.94732 19.6326 10 19.5 10H8.5C8.36739 10 8.24021 9.94732 8.14645 9.85355C8.05268 9.75979 8 9.63261 8 9.5Z" fill="#212348"/>
</svg>
