<svg width="660" height="656" viewBox="0 0 660 656" fill="none" xmlns="http://www.w3.org/2000/svg">
<g id="Illustration">
<path id="Vector" d="M635.785 320.228C646.614 375.473 668.559 487.442 616.044 562.348C520.736 698.292 196.61 688.723 59.7035 517.318C47.8649 502.502 -11.5095 425.203 -5.03099 319.36C6.1975 135.768 209.033 -26.9548 371.592 5.00574C466.736 23.7114 529.964 105.539 555.998 139.225C566.725 153.108 615.859 218.561 635.785 320.228Z" fill="#F9EFE4"/>
<path id="Vector_2" d="M152.865 565.047C184.067 550.27 227.445 523.924 258.374 476.886C298.937 415.198 282.45 372.122 322.458 258.453C347.751 186.579 366.13 136.676 411.389 121.387C446.854 109.403 494.586 120.116 516.404 148.823C534.561 172.696 536.9 211.803 533.047 237.935C529.906 259.237 522.479 273.044 530.705 287.447C539.112 302.161 553.946 300.157 562.495 311.778C579.817 335.382 549.312 385.336 544.381 393.409C489.546 483.194 378.706 519.98 330.168 535.447C290.033 548.237 229.555 563.024 152.865 565.047Z" fill="url(#paint0_linear)"/>
<g id="Group">
<g id="Group_2" style="mix-blend-mode:soft-light" opacity="0.5">
<g id="Vector_3" style="mix-blend-mode:soft-light" opacity="0.5">
<path d="M120.48 574.786L120.396 573.174C167.126 570.752 209.004 563.42 244.919 551.385C297.877 533.616 336.174 505.992 358.747 469.314C376.425 440.575 384.113 407.405 394.753 361.499C403.251 324.854 405.964 298.119 408.357 274.533C411.483 243.738 413.147 218.609 427.15 186.684C441.363 154.288 463.936 125.345 492.65 99.068L493.74 100.259C465.193 126.384 443.56 155.951 429.437 188.141C415.536 219.829 413.096 244.04 409.965 274.693C407.565 298.326 404.845 325.116 396.329 361.848C386.056 406.174 377.94 441.181 360.124 470.146C337.347 507.187 298.752 535.018 245.431 552.914C209.4 564.996 167.358 572.36 120.48 574.786Z" fill="white"/>
</g>
<g id="Vector_4" style="mix-blend-mode:soft-light" opacity="0.5">
<path d="M401.366 335.502L400.68 334.899C400.476 334.717 380.158 316.593 364.314 284.585C355.092 266.072 349.088 246.126 346.556 225.599C343.462 200.179 345.852 173.898 353.663 147.504L355.214 147.962C347.464 174.145 345.093 200.197 348.172 225.403C350.681 245.749 356.632 265.519 365.77 283.87C379.853 312.315 397.455 329.659 401.086 333.069C441.348 274.682 489.055 245.329 522.058 230.974C558.009 215.358 584.766 213.626 585.031 213.612L585.125 215.224C584.864 215.224 558.322 216.949 522.632 232.488C489.701 246.825 442.013 276.204 401.893 334.75L401.366 335.502Z" fill="white"/>
</g>
<g id="Vector_5" style="mix-blend-mode:soft-light" opacity="0.5">
<path d="M378.204 433.983C377.612 433.983 377.031 433.983 376.447 433.958H375.862L375.695 433.395C375.259 431.921 362.593 390.257 342.402 351.803C321.789 312.547 254.586 279.588 253.91 279.261L254.636 277.809C255.316 278.139 322.991 311.324 343.851 351.052C363.312 388.111 375.521 427.229 377.089 432.371C377.453 432.371 377.837 432.371 378.215 432.371C420.398 432.371 476.41 392.734 516.211 359.223C560.006 322.36 594.167 284.756 594.509 284.378L595.704 285.468C595.366 285.831 561.132 323.529 517.264 360.461C491.481 382.166 467.451 399.372 445.851 411.603C419.596 426.455 396.852 433.983 378.204 433.983Z" fill="white"/>
</g>
<g id="Vector_6" style="mix-blend-mode:soft-light" opacity="0.5">
<path d="M338.389 554.283C293.421 554.283 262.31 548.317 261.976 548.248L260.393 547.939L261.587 546.849C277.827 532.106 287.734 514.417 291.049 494.277C293.174 481.356 291.925 456.005 286.434 441.519C274.519 410.063 257.974 384.755 257.785 384.505L259.067 383.521C259.256 383.768 278.15 408.578 287.981 441.047C293.766 460.155 295.338 478.153 292.644 494.535C289.375 514.544 279.679 532.167 263.871 546.94C271.436 548.258 305.296 553.604 350.558 552.507C397.84 551.363 467.579 542.75 531.307 508.203L654.973 441.181L655.743 442.601L532.077 509.623C468.051 544.322 398.025 552.969 350.555 554.116C346.4 554.23 342.345 554.286 338.389 554.283Z" fill="white"/>
</g>
</g>
</g>
<path id="Vector_7" d="M198.041 555.409C237.663 583.629 292.39 613 357.32 621.501C373.894 623.68 476.262 637.059 493.104 590.104C499.035 573.563 489.346 563.503 496.936 541.275C505.927 514.936 525.286 512.198 551.655 489.999C567.39 476.748 613.433 437.978 605.48 393.071C600.727 366.235 576.908 338.421 551.262 329.038C513.644 315.274 479.468 343.854 422.32 393.228C371.661 436.998 367.122 453.277 330.2 484.152C302.797 507.056 260.589 535.476 198.041 555.409Z" fill="url(#paint1_linear)"/>
<g id="Group_3" style="mix-blend-mode:soft-light" opacity="0.5">
<g id="Vector_8" style="mix-blend-mode:soft-light" opacity="0.5">
<path d="M225.389 555.899C196.911 555.899 169.554 551.235 143.318 541.907C95.7856 524.944 53.8422 493.899 18.6533 449.588L19.9207 448.586C54.9171 492.657 96.6209 523.543 143.877 540.382C206.832 562.821 276.883 558.071 352.084 526.266C430.411 493.136 494.695 438.962 534.83 399.347C562.65 371.885 584.189 334.99 598.842 289.676L600.378 290.174C585.645 335.727 563.972 372.84 535.963 400.487C495.73 440.201 431.275 494.516 352.712 527.744C308.375 546.508 265.796 555.899 225.389 555.899Z" fill="white"/>
</g>
<g id="Vector_9" style="mix-blend-mode:soft-light" opacity="0.5">
<path d="M448.488 473.145L448.459 472.339C448.459 472.103 447.602 448.124 454.331 417.119C460.545 388.488 474.667 347.82 506.69 316.662L507.815 317.82C476.098 348.688 462.088 389.019 455.918 417.417C449.915 445.056 449.97 467.062 450.053 471.471C575.484 466.801 621.331 392.952 632.411 370.389C632.731 369.747 632.861 369.478 632.956 369.333L634.314 370.211L633.635 369.772L634.314 370.211C634.26 370.295 634.067 370.687 633.864 371.101C622.657 393.918 576.232 468.7 449.294 473.116L448.488 473.145Z" fill="white"/>
</g>
<g id="Vector_10" style="mix-blend-mode:soft-light" opacity="0.5">
<path d="M473.458 583.6C472.438 583.6 471.406 583.6 470.357 583.563C452.65 583.131 434.768 579.079 417.163 571.518C395.204 562.076 373.665 547.107 353.144 527.029L352.839 526.731L352.915 526.31C353.046 525.583 366.511 452.918 420.707 379.235L475.415 304.852L476.719 305.807L422.007 380.194C370.165 450.674 355.759 520.154 354.586 526.179C380.064 551.029 420.744 580.742 470.397 581.951C500.142 582.677 519.24 572.658 519.422 572.556L520.184 573.98C519.999 574.074 501.86 583.6 473.458 583.6Z" fill="white"/>
</g>
</g>
<path id="Vector_11" d="M68.4047 610.375C56.025 613.381 42.7339 612.521 30.928 607.019C4.78143 594.839 -4.00671 564.683 11.3907 539.873L235.982 175.162C243.343 163.305 255.825 155.032 270.151 152.472C284.415 149.93 299.115 153.289 310.46 161.667L429.024 249.16L513.586 106.149C526.238 84.7563 554.371 77.7911 576.367 90.4177C598.225 102.968 605.927 130.248 593.634 151.524L484.658 340.103C477.871 351.847 466.199 360.301 452.635 363.261C439.014 366.231 424.822 363.362 413.779 355.373L294.282 269.028L104.937 584.137C96.7919 597.592 83.2501 606.768 68.4047 610.375Z" fill="url(#paint2_linear)"/>
<path id="Vector_12" d="M627.796 167.575L486.597 87.4726L630.563 3.51311L641.37 1.27612L638.621 164.038L627.796 167.575Z" fill="url(#paint3_linear)"/>
<path id="Vector_13" d="M79.2084 608.137C66.8287 611.148 53.5412 610.284 41.7317 604.782C15.5851 592.602 6.797 562.446 22.1944 537.64L246.786 172.928C254.151 161.068 266.628 152.795 280.954 150.239C295.219 147.697 309.919 151.052 321.264 159.43L439.827 246.927L524.401 103.912C537.049 82.5192 565.186 75.5577 587.178 88.1843C609.039 100.731 616.741 128.011 604.445 149.287L495.465 337.858C488.674 349.606 477.003 358.06 463.439 361.016C449.818 363.987 435.629 361.122 424.583 353.129L305.071 266.783L115.759 581.918C107.596 595.355 94.0538 604.531 79.2084 608.137Z" fill="url(#paint4_linear)"/>
<path id="Vector_14" d="M638.599 165.342L497.4 85.2356L641.369 1.27612L638.599 165.342Z" fill="url(#paint5_linear)"/>
<path id="Vector_15" d="M110.744 521.385L132.068 617.256C132.068 623.43 151.038 628.456 174.44 628.456C197.841 628.456 216.808 623.44 216.808 617.256L238.132 521.385H110.744Z" fill="url(#paint6_linear)"/>
<path id="Vector_16" style="mix-blend-mode:multiply" opacity="0.3" d="M194.87 609.296C185.962 597.258 190.835 588.894 180.78 575.378C165.637 555.042 144.327 560.191 133.814 545.636C130.154 540.552 127.771 533.031 129.253 521.385H110.732L132.056 617.256C132.056 623.43 151.027 628.456 174.428 628.456C190.556 628.456 204.57 626.073 211.734 622.565C203.418 618.691 198.251 613.868 194.87 609.296Z" fill="url(#paint7_linear)"/>
<path id="Vector_17" d="M238.14 521.386C238.14 527.559 209.622 532.589 174.444 532.589C139.266 532.589 110.751 527.574 110.751 521.386C110.751 515.198 139.269 510.182 174.444 510.182C209.618 510.182 238.14 515.198 238.14 521.386Z" fill="url(#paint8_linear)"/>
<path id="Vector_18" d="M174.436 529.807C207.209 529.807 233.777 525.835 233.777 520.935C233.777 516.035 207.209 512.063 174.436 512.063C141.662 512.063 115.094 516.035 115.094 520.935C115.094 525.835 141.662 529.807 174.436 529.807Z" fill="url(#paint9_linear)"/>
<path id="Vector_19" d="M118.247 523.786C126.189 527.287 148.337 529.807 174.436 529.807C200.536 529.807 222.688 527.287 230.633 523.786C219.909 520.256 198.778 517.852 174.436 517.852C150.095 517.852 128.967 520.256 118.247 523.786Z" fill="url(#paint10_linear)"/>
<path id="Vector_20" d="M174.44 524.12C174.029 524.12 173.621 524.04 173.241 523.883C172.861 523.726 172.515 523.495 172.224 523.204C171.933 522.914 171.702 522.568 171.545 522.188C171.387 521.808 171.306 521.401 171.306 520.99V305.448C171.334 304.635 171.676 303.866 172.26 303.301C172.845 302.736 173.626 302.42 174.438 302.42C175.251 302.42 176.032 302.736 176.616 303.301C177.201 303.866 177.543 304.635 177.57 305.448V520.99C177.57 521.82 177.241 522.616 176.654 523.203C176.067 523.79 175.27 524.12 174.44 524.12Z" fill="url(#paint11_linear)"/>
<g id="Coin">
<path id="Vector_21" d="M315.152 182.047C315.152 264.187 250.922 328.805 168.829 326.281C83.3951 323.66 11.5356 249.875 11.5356 161.58C11.5356 73.2846 83.3951 9.18555 168.829 18.0826C250.922 26.6311 315.152 99.9068 315.152 182.047Z" fill="url(#paint12_linear)"/>
<path id="Vector_22" d="M337.333 174.965C337.333 257.106 273.103 321.72 191.014 319.2C105.591 316.578 33.7241 242.779 33.7241 154.495C33.7241 66.2103 105.591 2.10405 191.014 11.0011C273.103 19.546 337.333 92.8253 337.333 174.965Z" fill="url(#paint13_linear)"/>
<path id="Vector_23" d="M330.89 174.53C330.89 253.053 269.435 314.704 191.013 312.162C109.545 309.526 41.1465 239.108 41.1465 154.978C41.1465 70.8478 109.545 9.65392 191.013 17.999C269.435 26.0536 330.89 96.0066 330.89 174.53Z" fill="url(#paint14_linear)"/>
<path id="Vector_24" d="M326.275 174.217C326.275 250.151 266.81 309.711 191.014 307.165C112.374 304.525 46.4307 236.515 46.4307 155.37C46.4307 74.225 112.374 15.0866 191.014 23.0323C266.828 30.7019 326.275 98.2871 326.275 174.217Z" fill="url(#paint15_linear)"/>
<path id="Vector_25" d="M190.236 48.8594C194.271 49.2444 197.532 52.8722 197.532 56.9685V70.9496C205.686 71.8658 213.779 73.27 221.765 75.1549C227.728 76.5566 233.651 78.2247 239.534 80.159C243.06 81.3175 245.464 84.8799 245.104 88.5477L243.387 106.08C243.308 107.146 242.97 108.177 242.403 109.083C241.835 109.989 241.056 110.743 240.131 111.279C239.207 111.816 238.166 112.119 237.098 112.162C236.03 112.205 234.968 111.988 234.003 111.528C230.126 109.798 226.144 108.314 222.081 107.086C214.755 104.894 207.218 103.486 199.595 102.885L197.532 102.714V142.766C218.595 148.652 234.028 156.565 244.015 166.53C254.001 176.495 258.904 188.798 258.904 203.632C258.904 219.671 253.415 232.528 242.439 242.202C231.387 251.939 215.86 257.406 195.858 258.602V274.032C195.874 274.988 195.695 275.937 195.331 276.821C194.967 277.705 194.427 278.506 193.743 279.174C193.059 279.842 192.245 280.363 191.353 280.705C190.46 281.047 189.507 281.203 188.551 281.164H188.424C186.445 281.056 184.583 280.194 183.22 278.755C181.856 277.317 181.095 275.411 181.092 273.429V258.206L177.842 258.061C168.795 257.674 159.782 256.712 150.857 255.181C144.567 254.093 138.342 252.661 132.209 250.892C128.541 249.832 126.036 246.339 126.359 242.584L128.378 220.05C128.814 215.177 133.709 212.344 138.343 214.171C143.699 216.28 149.175 218.072 154.742 219.538C163.329 221.805 172.108 223.271 180.965 223.918L181.092 179.382C160.898 174.392 145.776 166.991 135.841 157.186C125.905 147.381 120.843 134.725 120.843 119.397C120.843 103.535 126.26 91.3016 137.094 82.6974C147.861 74.149 163.164 69.8929 182.905 69.9038V55.614C182.912 51.5031 186.209 48.4963 190.236 48.8594ZM182.912 102.311C176.67 102.766 171.806 104.481 168.317 107.457C164.828 110.432 163.084 114.439 163.084 119.477C163.084 124.237 164.698 128.218 167.925 131.421C171.152 134.624 176.148 137.166 182.912 139.047V102.311ZM195.858 182.959V223.802C202.637 223.816 207.842 222.198 211.473 218.946C215.105 215.695 216.92 211.112 216.92 205.198C216.92 199.796 215.235 195.318 211.865 191.761C208.495 188.205 203.16 185.271 195.858 182.959Z" fill="url(#paint16_linear)"/>
</g>
<path id="Vector_26" style="mix-blend-mode:multiply" opacity="0.5" d="M166.534 192.814C171.106 147.675 212.588 128.57 207.174 87.0514C203.837 61.4605 184.441 39.8932 162.805 23.0759C97.1804 29.9394 46.4307 84.2806 46.4307 155.352C46.4307 236.515 112.374 304.525 191.014 307.165C198.478 307.416 205.95 307.051 213.355 306.076C182.124 274.998 162.605 231.591 166.534 192.814Z" fill="url(#paint17_linear)"/>
<g id="Leaf">
<path id="Vector_27" d="M172.479 520.242C166.179 523.713 145.145 502.044 130.794 478.556C121.461 463.275 125.415 461.898 117.877 451.16C100.257 426.063 79.2268 429.255 71.372 409.155C65.696 394.629 75.4828 389.908 69.756 376.835C59.3046 352.969 21.7335 357.269 18.1565 341.08C15.8033 330.418 29.3596 316.139 42.9921 310.038C81.028 293.017 147.124 329.964 161.835 377.445C169.745 402.963 156.359 410.724 162.725 459.927C167.461 496.564 178.097 517.144 172.479 520.242Z" fill="url(#paint18_linear)"/>
<path id="Vector_28" opacity="0.17" d="M34.2068 329.172C39.1601 319.705 70.3472 319.908 91.584 332.404C113.01 345.013 113.827 363.998 140.863 437.43C158.294 484.773 167.939 504.034 164.293 506.101C160.527 508.229 143.834 491.364 134.399 470.552C125.349 450.579 130.956 444.576 122.281 433.392C107.915 414.871 85.6865 422.526 78.656 407.539C71.3495 391.953 92.0597 376.585 84.3102 363.911C76.2156 350.667 49.2556 360.37 37.4642 342.906C36.5927 341.635 31.5704 334.22 34.2068 329.172Z" fill="white"/>
</g>
<path id="Vector_29" d="M590.798 595.885C592.367 595.976 594.488 596.386 595.904 597.933C599.332 601.684 596.794 610.138 591.975 614.591C586.891 619.312 578.593 620.107 577.449 618.117C576.886 617.136 578.034 615.455 578.72 614.449C581.32 610.632 584.439 611.431 585.928 608.639C587.446 605.784 584.919 603.584 586.408 600.119C587.366 597.875 589.371 596.593 590.798 595.885Z" fill="url(#paint19_linear)"/>
<path id="Vector_30" d="M487.301 611.01C487.301 611.01 487.929 615.992 487.508 617.663C487.087 619.334 472.594 620.539 467.673 619.958C462.752 619.377 470.604 614.355 473.738 613.421C476.872 612.488 487.301 611.01 487.301 611.01Z" fill="url(#paint20_linear)"/>
<path id="Vector_31" d="M479.995 602.676L481.524 612.677C481.524 612.677 485.421 614.427 487.291 612.695L487.498 602.229L479.995 602.676Z" fill="url(#paint21_linear)"/>
<path id="Vector_32" d="M449.654 418.099C448.093 433.452 447.907 448.913 449.099 464.299C451.081 489.861 456.191 506.035 462.604 533.297C466.519 549.951 471.799 574.467 476.574 605.127C479.165 606.621 482.178 607.211 485.141 606.805C486.976 606.529 488.731 605.863 490.287 604.851C502.822 566.554 499.118 542.822 493.072 528.035C490.494 521.734 487.367 516.777 485.696 507.074C483.485 494.255 486.219 487.101 490.12 457.399C492.898 436.239 492.415 432.967 490.566 429.8C483.176 417.09 460.574 417.348 449.654 418.099Z" fill="url(#paint22_linear)"/>
<path id="Vector_33" style="mix-blend-mode:multiply" opacity="0.3" d="M493.068 528.027C490.49 521.727 487.363 516.77 485.693 507.067C483.481 494.248 486.216 487.094 490.116 457.392C492.894 436.231 492.411 432.959 490.562 429.793C486.546 422.893 478.038 419.839 469.351 418.59C469.467 419.033 469.583 419.479 469.678 419.911C474.235 440.723 456.844 453.419 464.688 476.297C468.556 487.555 474.729 490.159 476.167 503.243C477.511 515.495 472.627 518.048 473.673 529.19C475.23 545.84 487.058 549.867 490.138 562.621C492.139 570.904 490.453 583.022 475.844 600.559C476.087 602.069 476.331 603.584 476.57 605.127C479.161 606.621 482.174 607.211 485.137 606.805C486.972 606.529 488.727 605.863 490.283 604.851C502.822 566.546 499.118 542.815 493.068 528.027Z" fill="url(#paint23_linear)"/>
<path id="Vector_34" d="M584.767 588.495L588.398 599.992C588.888 601.536 590.831 602.171 592.03 601.107C592.372 600.8 592.672 600.45 592.923 600.065V585.953L584.767 588.495Z" fill="url(#paint24_linear)"/>
<path id="Vector_35" d="M490.126 427.984C487.312 432.175 490.558 438.548 526.804 490.892C548.23 521.854 554.022 529.614 562.164 543.911C571.273 559.91 579.078 576.617 585.503 593.869C587.092 594.199 588.741 594.093 590.275 593.561C591.55 593.04 592.703 592.258 593.659 591.266C595.453 589.366 603.137 573.541 593.205 538.17C588.749 522.308 584.439 506.94 571.805 491.847C563.576 482.002 559.208 481.109 552.529 470.313C543.156 455.166 546.41 448.291 539.5 439.26C526.942 422.871 496.053 419.171 490.126 427.984Z" fill="url(#paint25_linear)"/>
<path id="hair" d="M468.087 292.247C455.62 277.358 443.861 279.9 434.801 265.738C429.437 257.356 425.61 244.04 431.384 236.127C434.376 232.023 439.01 230.68 442.699 229.634C456.19 225.864 464.786 231.449 474.859 232.452C492.236 234.177 495.083 220.355 522.217 209.573C531.361 205.942 560.402 194.408 584.871 207.06C588.027 208.695 605.774 218.318 606.874 233.015C607.746 244.635 597.48 250.05 600.043 256.503C604.503 267.72 636.834 254.687 651.443 269.122C665.076 282.591 658.924 315.67 644.108 336.257C622.203 366.7 582.925 367.651 574.717 367.851C533.562 368.846 491.659 343.52 479.37 314.254C476.693 307.877 475.164 300.705 468.087 292.247Z" fill="url(#paint26_linear)"/>
<g id="pail">
<path id="Vector_36" d="M318.921 356.644C318.921 356.644 306.818 355.675 303.274 357.094C299.729 358.514 294.507 364.357 294.921 367.288L295.317 370.193C295.317 370.193 302.827 373.407 304.89 369.83C306.952 366.253 309.211 363.224 312.937 362.625C316.663 362.026 318.914 360.221 318.921 356.644Z" fill="url(#paint27_linear)"/>
<path id="Vector_37" d="M283.87 403.987L296.377 436.035C297.143 438.002 298.615 439.613 300.506 440.553C302.396 441.493 304.569 441.695 306.6 441.119C317.977 437.902 339.159 430.076 347.795 414.762C348.617 413.269 348.968 411.563 348.803 409.867C348.638 408.171 347.964 406.564 346.869 405.258L325.363 379.29C324.637 378.413 323.621 377.825 322.499 377.632C321.377 377.439 320.222 377.653 319.244 378.237L285.871 398.148C284.899 398.726 284.164 399.63 283.797 400.7C283.431 401.77 283.457 402.935 283.87 403.987Z" fill="url(#paint28_linear)"/>
<path id="Vector_38" d="M249.477 405.796L292.121 411.367L296.867 429.469L251.547 410.589L249.477 405.796Z" fill="url(#paint29_linear)"/>
<path id="Vector_39" d="M238.034 401.435C237.784 407.579 238.299 412.503 239.461 416.396C239.603 416.884 239.932 417.297 240.375 417.545C240.819 417.793 241.343 417.856 241.833 417.722L257.306 413.451V406.816L240.721 399.713C240.432 399.591 240.117 399.541 239.804 399.568C239.491 399.595 239.189 399.697 238.925 399.867C238.66 400.036 238.441 400.267 238.286 400.541C238.131 400.814 238.044 401.121 238.034 401.435Z" fill="url(#paint30_linear)"/>
<path id="Vector_40" d="M290.901 397.411C290.495 397.411 290.096 397.301 289.747 397.094C289.398 396.886 289.112 396.588 288.918 396.231C288.319 395.141 274.443 369.155 288.37 361.405C302.009 353.812 319.462 381.908 321.416 385.137C321.725 385.649 321.817 386.263 321.673 386.844C321.529 387.424 321.16 387.924 320.648 388.233C320.136 388.541 319.522 388.634 318.941 388.49C318.36 388.346 317.861 387.977 317.552 387.465C313.194 380.252 298.908 360.686 290.574 365.349C280.667 370.861 292.771 393.849 292.895 394.077C293.082 394.421 293.176 394.807 293.169 395.199C293.161 395.59 293.052 395.972 292.852 396.309C292.652 396.645 292.368 396.924 292.028 397.117C291.688 397.31 291.303 397.412 290.912 397.411H290.901Z" fill="url(#paint31_linear)"/>
<path id="Vector_41" style="mix-blend-mode:multiply" opacity="0.25" d="M346.869 405.266L325.363 379.297C324.636 378.421 323.62 377.833 322.498 377.639C321.376 377.446 320.222 377.661 319.244 378.244L296.242 391.964C296.043 396.322 296.802 400.411 299.511 403.094C306.875 410.423 323.17 401.874 326.968 407.982C329.713 412.402 324.063 421.484 318.318 426.412C311.077 432.629 302.078 433.635 295.302 433.254L296.391 436.035C297.158 438.002 298.63 439.613 300.52 440.553C302.41 441.493 304.583 441.695 306.614 441.119C317.991 437.902 339.173 430.076 347.809 414.762C348.627 413.269 348.975 411.563 348.808 409.869C348.64 408.174 347.964 406.57 346.869 405.266Z" fill="url(#paint32_linear)"/>
<path id="Vector_42" d="M321.474 378.317C322.767 380.554 315.231 387.323 304.646 393.434C294.06 399.546 284.429 402.687 283.137 400.45C281.844 398.213 289.379 391.444 299.968 385.333C310.558 379.221 320.185 376.08 321.474 378.317Z" fill="url(#paint33_linear)"/>
<path id="Vector_43" d="M321.405 385.133C319.989 382.78 310.343 367.244 299.936 361.891C299.792 363.45 299.408 364.976 298.795 366.416C306.254 370.839 314.436 382.289 317.541 387.442C317.85 387.955 318.349 388.324 318.93 388.468C319.51 388.612 320.124 388.519 320.637 388.21C321.149 387.902 321.518 387.402 321.662 386.822C321.806 386.241 321.714 385.627 321.405 385.115V385.133Z" fill="url(#paint34_linear)"/>
</g>
<path id="Vector_44" d="M306.902 359.963L298.019 366.006C298.019 366.006 298.077 368.595 301.799 366.006C305.522 363.417 307.973 363.213 307.973 363.213L306.902 359.963Z" fill="url(#paint35_linear)"/>
<path id="Vector_45" d="M314.702 354.894L316.804 364.335C328.545 367.927 348.314 372.161 372.093 368.472C417.614 361.409 444.534 330.458 451.829 321.459C451.931 300.785 445.474 282.602 434.983 280.372C432.964 279.944 433.672 263.806 410.078 294.379C393.49 315.877 391.315 321.404 385.257 328.228C374.842 339.976 355.24 352.965 314.702 354.894Z" fill="url(#paint36_linear)"/>
<path id="Vector_46" d="M486.698 272.503C474.449 260.156 449.334 267.325 444.388 268.741C437.19 270.8 421.796 275.201 415.699 287.904C412.794 293.943 412.271 301.25 423.122 331.46C439.391 376.762 448.88 383.488 445.637 401.424C443.582 412.743 437.782 421.204 442.343 426.71C446.076 431.213 453.426 429.724 462.276 429.342C488.811 428.195 489.149 438.73 518.695 440.237C543.066 441.49 544.689 434.426 565.348 438.461C579.122 441.159 589.439 446.45 592.036 442.87C594.76 439.104 586.549 428.965 585.721 427.955C574.797 414.657 564.535 417.863 552.544 406.388C547.874 401.918 550.201 402.168 537.419 381.186C530.457 369.754 524.774 361.485 519.447 353.732C500.058 325.519 499.764 329.557 496.129 321.386C485.314 297.157 497.665 283.564 486.698 272.503Z" fill="url(#paint37_linear)"/>
<path id="Vector_47" style="mix-blend-mode:multiply" opacity="0.3" d="M585.696 427.984C574.772 414.686 564.51 417.892 552.518 406.417C547.848 401.947 550.176 402.197 537.393 381.215C530.432 369.783 524.749 361.514 519.421 353.761C500.033 325.548 499.739 329.586 496.104 321.415C487.726 302.593 493.297 290.185 491.07 280.409C478.76 289.161 471.097 301.584 470.527 313.894C469.638 333.141 485.874 356.539 503.624 360.907C508.625 362.138 513.607 361.822 515.659 365.421C519.948 372.935 503.399 383.397 505.128 394.756C507.917 413.044 555.605 417.348 554.777 423.343C554.182 427.661 529.081 428.064 519.044 427.857C513.146 427.737 507.612 427.625 500.24 426.35C481.999 423.198 477.463 417.246 468.646 416.948C462.781 416.752 454.995 419.087 445.463 428.965C449.534 430.592 455.446 429.651 462.251 429.361C488.786 428.213 489.124 438.748 518.67 440.255C543.04 441.508 544.664 434.445 565.323 438.479C579.097 441.177 589.414 446.468 592.011 442.888C594.749 439.115 586.523 428.976 585.696 427.984Z" fill="url(#paint38_linear)"/>
<path id="Vector_48" d="M485.656 329.967C485.656 329.967 478.186 326.699 474.813 323.496C471.439 320.293 460.436 320.25 460.436 320.25C460.436 320.25 460.37 324.19 464.884 326.271C469.398 328.351 477.351 329.967 477.351 329.967L484.313 336.715L485.656 329.967Z" fill="url(#paint39_linear)"/>
<path id="Vector_49" d="M459.034 269.928C466.134 258.889 500.578 270.074 515.097 276.167C531.489 283.067 553.303 292.207 557.607 312.685C559.785 323.013 557.356 335.563 549.792 343.589C536.214 358.013 505.76 358.231 479.995 337.648L483.22 326.39C511.476 335.284 519.171 334.634 520.511 332.016C522.113 328.874 515.463 321.161 508.044 317.083C499.746 312.522 493.962 314.414 487.171 312.852C468.269 308.487 452.617 279.908 459.034 269.928Z" fill="url(#paint40_linear)"/>
<path id="Vector_50" d="M448.866 249.944C448.866 249.944 453.111 262.291 458.395 264.205C463.679 266.119 472.038 268.33 473.084 269.184C474.13 270.037 445.006 279.497 428.671 275.143C433.323 273.106 434.569 272.456 434.569 272.456C436.63 271.434 438.557 270.161 440.307 268.668C442.714 266.511 444.611 263.846 445.859 260.864L444.334 253.859L448.866 249.944Z" fill="url(#paint41_linear)"/>
<path id="Vector_51" d="M450.518 254.284C450.518 254.284 448.339 259.106 443.201 258.366C438.592 257.705 438.843 246.109 441.959 244.134C443.001 243.477 445.122 243.226 446.68 243.803C447.769 244.207 451.077 246.905 450.344 250.852C451.361 250.311 452.37 250.398 452.722 250.885C453.165 251.498 452.446 252.617 452.283 252.868C451.855 253.511 451.239 254.006 450.518 254.284Z" fill="url(#paint42_linear)"/>
<g id="Group_4" style="mix-blend-mode:soft-light">
<g id="Vector_52" style="mix-blend-mode:soft-light">
<path d="M139.2 523.129C139.079 523.129 138.963 523.081 138.876 522.996C138.79 522.911 138.741 522.796 138.739 522.675C138.739 522.675 138.739 522.188 138.739 521.277C138.741 521.155 138.79 521.038 138.877 520.953C138.964 520.867 139.082 520.819 139.204 520.819C139.264 520.819 139.324 520.831 139.38 520.855C139.436 520.878 139.487 520.912 139.53 520.956C139.572 520.999 139.606 521.05 139.628 521.107C139.651 521.163 139.662 521.223 139.661 521.284C139.661 522.174 139.661 522.653 139.661 522.657C139.662 522.779 139.615 522.897 139.53 522.985C139.446 523.073 139.33 523.125 139.207 523.129H139.2Z" fill="#D8DEE8"/>
</g>
<g id="Vector_53" style="mix-blend-mode:soft-light">
<path d="M139.269 518.971C139.208 518.969 139.148 518.955 139.093 518.93C139.038 518.905 138.988 518.869 138.946 518.824C138.905 518.78 138.872 518.727 138.851 518.67C138.83 518.613 138.82 518.552 138.823 518.491C138.852 517.663 138.895 516.728 138.953 515.684C138.968 515.567 139.026 515.46 139.117 515.385C139.207 515.31 139.323 515.271 139.44 515.278C139.558 515.284 139.668 515.335 139.75 515.42C139.831 515.505 139.878 515.617 139.879 515.735C139.818 516.77 139.778 517.703 139.749 518.524C139.744 518.647 139.691 518.762 139.601 518.846C139.511 518.93 139.392 518.975 139.269 518.971ZM139.582 513.382H139.549C139.426 513.373 139.312 513.315 139.232 513.222C139.151 513.128 139.111 513.007 139.12 512.884C139.186 512.002 139.266 511.069 139.356 510.092C139.36 510.031 139.377 509.971 139.404 509.917C139.432 509.863 139.471 509.815 139.517 509.775C139.564 509.736 139.619 509.707 139.677 509.69C139.736 509.672 139.797 509.667 139.858 509.674C139.918 509.679 139.977 509.696 140.031 509.724C140.085 509.752 140.133 509.791 140.171 509.837C140.21 509.884 140.239 509.938 140.257 509.996C140.275 510.054 140.281 510.115 140.275 510.175C140.188 511.148 140.108 512.078 140.043 512.953C140.034 513.07 139.981 513.178 139.896 513.258C139.81 513.337 139.698 513.381 139.582 513.382ZM140.097 507.815H140.046C139.924 507.801 139.812 507.74 139.735 507.644C139.659 507.548 139.623 507.425 139.636 507.303C139.734 506.406 139.843 505.487 139.963 504.521C139.965 504.457 139.981 504.393 140.009 504.335C140.038 504.277 140.078 504.226 140.127 504.184C140.176 504.143 140.233 504.112 140.295 504.093C140.357 504.075 140.422 504.07 140.486 504.078C140.55 504.086 140.611 504.107 140.667 504.14C140.722 504.173 140.77 504.218 140.807 504.27C140.844 504.323 140.87 504.383 140.883 504.446C140.896 504.509 140.895 504.574 140.882 504.637C140.763 505.589 140.654 506.511 140.555 507.404C140.542 507.518 140.488 507.624 140.402 507.699C140.316 507.775 140.205 507.816 140.09 507.815H140.097ZM140.791 502.273H140.726C140.604 502.255 140.495 502.19 140.422 502.092C140.349 501.994 140.317 501.872 140.333 501.75C140.46 500.846 140.602 499.935 140.751 498.979C140.779 498.866 140.848 498.767 140.945 498.702C141.042 498.638 141.16 498.612 141.275 498.63C141.391 498.649 141.495 498.71 141.567 498.801C141.64 498.893 141.675 499.008 141.666 499.125C141.516 500.062 141.378 500.979 141.252 501.877C141.236 501.988 141.18 502.088 141.095 502.161C141.01 502.234 140.902 502.274 140.791 502.273ZM141.67 496.757C141.642 496.761 141.614 496.761 141.586 496.757C141.468 496.733 141.364 496.664 141.296 496.564C141.228 496.464 141.202 496.342 141.223 496.223C141.378 495.32 141.547 494.403 141.731 493.47C141.742 493.411 141.765 493.354 141.798 493.303C141.832 493.252 141.875 493.208 141.925 493.174C141.976 493.141 142.032 493.117 142.092 493.106C142.152 493.094 142.213 493.095 142.273 493.107C142.392 493.131 142.498 493.201 142.566 493.303C142.634 493.404 142.659 493.529 142.636 493.648C142.454 494.573 142.286 495.486 142.131 496.387C142.11 496.493 142.052 496.588 141.967 496.655C141.883 496.723 141.778 496.759 141.67 496.757ZM142.723 491.277H142.628C142.568 491.265 142.511 491.242 142.46 491.208C142.409 491.174 142.366 491.13 142.332 491.079C142.298 491.028 142.275 490.971 142.263 490.911C142.252 490.85 142.253 490.789 142.265 490.729C142.454 489.828 142.65 488.913 142.861 487.994C142.872 487.933 142.896 487.876 142.931 487.824C142.965 487.773 143.01 487.729 143.061 487.695C143.113 487.661 143.172 487.638 143.232 487.627C143.293 487.616 143.356 487.617 143.416 487.631C143.477 487.644 143.534 487.668 143.585 487.703C143.636 487.737 143.68 487.782 143.713 487.834C143.747 487.885 143.77 487.943 143.782 488.004C143.793 488.064 143.792 488.126 143.78 488.187C143.569 489.102 143.373 490.002 143.184 490.903C143.162 491.009 143.104 491.104 143.02 491.173C142.936 491.241 142.831 491.278 142.723 491.277ZM143.965 485.83C143.927 485.835 143.89 485.835 143.852 485.83C143.793 485.815 143.738 485.789 143.689 485.754C143.64 485.718 143.599 485.672 143.567 485.62C143.536 485.568 143.515 485.511 143.506 485.451C143.497 485.391 143.5 485.33 143.514 485.271C143.736 484.374 143.965 483.455 144.208 482.558C144.24 482.44 144.317 482.339 144.424 482.277C144.53 482.216 144.656 482.199 144.775 482.231C144.893 482.263 144.994 482.34 145.055 482.447C145.117 482.553 145.133 482.679 145.101 482.798C144.862 483.702 144.633 484.613 144.411 485.492C144.385 485.59 144.327 485.677 144.246 485.739C144.165 485.801 144.066 485.834 143.965 485.834V485.83ZM145.396 480.437C145.353 480.443 145.311 480.443 145.268 480.437C145.15 480.403 145.05 480.324 144.99 480.216C144.93 480.109 144.915 479.982 144.949 479.863C145.203 478.974 145.465 478.08 145.741 477.18C145.776 477.062 145.857 476.964 145.965 476.906C146.074 476.848 146.2 476.835 146.318 476.871C146.435 476.907 146.534 476.988 146.592 477.096C146.65 477.204 146.662 477.331 146.627 477.448C146.354 478.345 146.093 479.232 145.839 480.118C145.809 480.212 145.749 480.293 145.67 480.352C145.59 480.41 145.494 480.441 145.396 480.441V480.437ZM147.022 475.099C146.974 475.099 146.927 475.091 146.881 475.077C146.764 475.039 146.667 474.956 146.611 474.846C146.555 474.737 146.545 474.609 146.583 474.492C146.87 473.614 147.168 472.728 147.476 471.842C147.493 471.78 147.522 471.722 147.561 471.671C147.601 471.621 147.651 471.58 147.708 471.549C147.764 471.519 147.826 471.501 147.89 471.496C147.954 471.491 148.018 471.5 148.079 471.521C148.139 471.542 148.195 471.575 148.242 471.619C148.289 471.662 148.326 471.715 148.352 471.774C148.378 471.833 148.391 471.896 148.391 471.96C148.391 472.024 148.377 472.088 148.352 472.147C148.043 473.025 147.749 473.904 147.462 474.779C147.433 474.873 147.375 474.955 147.296 475.014C147.216 475.072 147.121 475.103 147.022 475.103V475.099ZM148.838 469.83C148.784 469.83 148.729 469.821 148.678 469.801C148.621 469.78 148.569 469.747 148.524 469.706C148.48 469.665 148.444 469.615 148.418 469.56C148.393 469.504 148.379 469.444 148.377 469.384C148.375 469.323 148.385 469.262 148.406 469.205C148.73 468.338 149.065 467.467 149.408 466.59C149.43 466.534 149.463 466.482 149.506 466.439C149.548 466.395 149.598 466.36 149.654 466.336C149.71 466.312 149.77 466.299 149.83 466.299C149.891 466.298 149.951 466.31 150.008 466.333C150.121 466.379 150.211 466.467 150.26 466.579C150.309 466.691 150.312 466.818 150.269 466.932C149.923 467.801 149.591 468.666 149.274 469.528C149.242 469.615 149.186 469.69 149.112 469.744C149.037 469.799 148.948 469.83 148.856 469.833L148.838 469.83ZM150.89 464.644C150.829 464.643 150.769 464.63 150.712 464.608C150.599 464.56 150.508 464.47 150.461 464.356C150.415 464.243 150.415 464.115 150.461 464.001C150.825 463.144 151.196 462.287 151.576 461.43C151.634 461.334 151.725 461.262 151.832 461.228C151.939 461.194 152.054 461.199 152.157 461.243C152.261 461.288 152.344 461.368 152.393 461.469C152.442 461.57 152.452 461.685 152.422 461.793C152.042 462.643 151.679 463.49 151.333 464.335C151.304 464.427 151.248 464.507 151.172 464.565C151.096 464.624 151.004 464.658 150.908 464.662L150.89 464.644ZM153.167 459.56C153.098 459.56 153.03 459.545 152.967 459.516C152.912 459.491 152.862 459.454 152.821 459.409C152.78 459.364 152.749 459.311 152.728 459.254C152.708 459.196 152.699 459.135 152.703 459.074C152.707 459.013 152.722 458.954 152.749 458.899C153.146 458.061 153.555 457.224 153.977 456.386C154.004 456.332 154.042 456.283 154.087 456.243C154.133 456.204 154.187 456.173 154.244 456.154C154.302 456.135 154.363 456.127 154.424 456.131C154.484 456.136 154.543 456.152 154.598 456.179C154.652 456.206 154.701 456.244 154.74 456.29C154.78 456.336 154.811 456.389 154.83 456.447C154.849 456.504 154.857 456.565 154.852 456.626C154.848 456.686 154.832 456.746 154.805 456.8C154.386 457.63 153.979 458.462 153.585 459.295C153.547 459.37 153.491 459.433 153.42 459.479C153.35 459.524 153.269 459.55 153.185 459.553L153.167 459.56ZM155.676 454.581C155.6 454.581 155.526 454.562 155.458 454.527C155.35 454.468 155.27 454.369 155.234 454.252C155.199 454.134 155.212 454.007 155.27 453.898C155.708 453.078 156.158 452.261 156.62 451.447C156.648 451.389 156.687 451.338 156.735 451.296C156.783 451.253 156.839 451.222 156.9 451.202C156.961 451.183 157.026 451.176 157.089 451.183C157.153 451.19 157.215 451.21 157.27 451.241C157.326 451.273 157.375 451.315 157.413 451.367C157.451 451.418 157.479 451.477 157.493 451.539C157.508 451.601 157.51 451.666 157.498 451.729C157.487 451.792 157.462 451.852 157.427 451.905C156.965 452.711 156.519 453.524 156.083 454.338C156.045 454.406 155.991 454.463 155.925 454.504C155.858 454.546 155.783 454.57 155.705 454.574L155.676 454.581ZM158.429 449.733C158.347 449.733 158.266 449.712 158.195 449.671C158.125 449.63 158.066 449.57 158.026 449.499C157.985 449.427 157.965 449.347 157.966 449.265C157.967 449.183 157.99 449.102 158.033 449.032C158.516 448.233 159.006 447.442 159.511 446.654C159.544 446.602 159.586 446.558 159.636 446.523C159.686 446.488 159.742 446.464 159.801 446.45C159.861 446.437 159.922 446.436 159.982 446.447C160.042 446.457 160.099 446.479 160.15 446.512C160.201 446.545 160.246 446.587 160.281 446.637C160.316 446.687 160.34 446.743 160.353 446.802C160.367 446.862 160.368 446.923 160.357 446.983C160.347 447.043 160.325 447.1 160.292 447.151C159.791 447.932 159.304 448.72 158.839 449.508C158.798 449.575 158.74 449.63 158.671 449.668C158.603 449.706 158.526 449.726 158.447 449.726L158.429 449.733ZM161.436 445.038C161.351 445.038 161.268 445.016 161.195 444.972C161.122 444.929 161.063 444.866 161.023 444.791C160.984 444.716 160.966 444.631 160.972 444.547C160.977 444.462 161.006 444.381 161.054 444.311C161.577 443.541 162.112 442.776 162.66 442.016C162.735 441.928 162.842 441.871 162.957 441.858C163.073 441.844 163.189 441.874 163.284 441.942C163.378 442.01 163.444 442.111 163.467 442.225C163.491 442.339 163.471 442.457 163.411 442.557C162.867 443.31 162.335 444.068 161.817 444.831C161.777 444.89 161.722 444.939 161.659 444.974C161.596 445.009 161.526 445.028 161.454 445.03L161.436 445.038ZM164.704 440.516C164.603 440.518 164.504 440.484 164.424 440.422C164.328 440.347 164.264 440.236 164.248 440.115C164.232 439.993 164.264 439.87 164.337 439.772C164.904 439.046 165.484 438.319 166.077 437.593C166.155 437.497 166.268 437.435 166.391 437.423C166.514 437.41 166.638 437.446 166.734 437.524C166.83 437.602 166.892 437.715 166.905 437.839C166.918 437.962 166.881 438.085 166.803 438.181C166.22 438.908 165.647 439.634 165.085 440.36C165.038 440.411 164.981 440.45 164.917 440.476C164.853 440.502 164.784 440.513 164.715 440.509L164.704 440.516ZM168.227 436.199C168.116 436.199 168.009 436.159 167.925 436.086C167.833 436.006 167.776 435.891 167.767 435.769C167.758 435.647 167.798 435.526 167.878 435.432C168.488 434.728 169.113 434.034 169.748 433.344C169.831 433.254 169.947 433.201 170.07 433.196C170.192 433.191 170.312 433.236 170.402 433.319C170.492 433.402 170.545 433.518 170.55 433.641C170.555 433.763 170.511 433.883 170.427 433.973C169.798 434.655 169.182 435.344 168.579 436.039C168.535 436.086 168.483 436.124 168.424 436.15C168.365 436.177 168.302 436.191 168.238 436.191L168.227 436.199ZM172.011 432.106C171.889 432.106 171.772 432.059 171.684 431.975C171.597 431.888 171.549 431.77 171.549 431.647C171.549 431.524 171.597 431.406 171.684 431.318C172.337 430.657 173.002 430 173.681 429.353C173.772 429.279 173.887 429.241 174.005 429.248C174.122 429.255 174.232 429.307 174.313 429.392C174.394 429.477 174.44 429.59 174.441 429.707C174.443 429.825 174.399 429.938 174.32 430.025C173.648 430.664 172.987 431.311 172.345 431.968C172.258 432.052 172.142 432.098 172.021 432.099L172.011 432.106ZM176.042 428.257C175.948 428.257 175.856 428.229 175.779 428.176C175.701 428.123 175.642 428.048 175.608 427.96C175.575 427.873 175.569 427.777 175.591 427.686C175.613 427.595 175.663 427.513 175.733 427.45C176.426 426.83 177.135 426.223 177.857 425.635C177.954 425.556 178.077 425.519 178.201 425.532C178.324 425.544 178.438 425.606 178.516 425.702C178.595 425.798 178.632 425.922 178.619 426.045C178.607 426.169 178.545 426.283 178.449 426.361C177.723 426.957 177.037 427.559 176.35 428.177C176.26 428.24 176.151 428.268 176.042 428.257ZM180.323 424.694C180.227 424.694 180.133 424.663 180.055 424.607C179.977 424.551 179.919 424.472 179.887 424.382C179.856 424.291 179.853 424.192 179.88 424.1C179.906 424.008 179.961 423.926 180.036 423.866C180.762 423.292 181.518 422.733 182.277 422.181C182.377 422.117 182.498 422.093 182.615 422.115C182.731 422.137 182.836 422.203 182.905 422.299C182.975 422.395 183.005 422.515 182.99 422.633C182.974 422.751 182.914 422.858 182.821 422.933C182.07 423.478 181.333 424.022 180.606 424.596C180.529 424.657 180.435 424.691 180.338 424.694H180.323ZM184.833 421.426C184.757 421.427 184.682 421.409 184.615 421.373C184.548 421.338 184.49 421.286 184.448 421.223C184.414 421.172 184.39 421.116 184.378 421.056C184.365 420.997 184.365 420.935 184.376 420.875C184.388 420.816 184.411 420.759 184.445 420.708C184.478 420.657 184.521 420.614 184.572 420.58C185.342 420.062 186.125 419.553 186.921 419.055C186.973 419.022 187.03 419.001 187.09 418.991C187.15 418.981 187.211 418.982 187.271 418.996C187.33 419.01 187.386 419.035 187.435 419.07C187.484 419.105 187.527 419.15 187.559 419.202C187.591 419.253 187.613 419.31 187.623 419.37C187.633 419.43 187.631 419.492 187.617 419.551C187.604 419.61 187.578 419.666 187.543 419.715C187.508 419.765 187.463 419.807 187.412 419.839C186.622 420.323 185.849 420.827 185.091 421.35C185.018 421.395 184.934 421.42 184.848 421.422L184.833 421.426ZM189.554 418.47C189.453 418.47 189.354 418.437 189.273 418.375C189.192 418.314 189.134 418.227 189.107 418.129C189.081 418.031 189.087 417.927 189.126 417.833C189.165 417.739 189.234 417.66 189.322 417.609C190.123 417.142 190.939 416.687 191.769 416.244C191.823 416.215 191.881 416.197 191.942 416.191C192.002 416.185 192.063 416.191 192.121 416.209C192.179 416.226 192.233 416.255 192.28 416.294C192.327 416.332 192.365 416.379 192.394 416.433C192.423 416.486 192.44 416.545 192.446 416.605C192.452 416.665 192.446 416.726 192.429 416.784C192.411 416.842 192.383 416.896 192.344 416.943C192.306 416.99 192.259 417.029 192.205 417.057C191.389 417.495 190.583 417.946 189.787 418.408C189.719 418.446 189.643 418.466 189.565 418.466L189.554 418.47ZM194.464 415.837C194.377 415.837 194.292 415.813 194.219 415.767C194.145 415.722 194.085 415.657 194.046 415.579C194.02 415.525 194.004 415.466 194 415.405C193.996 415.345 194.004 415.284 194.024 415.227C194.043 415.17 194.074 415.117 194.114 415.071C194.154 415.026 194.203 414.989 194.257 414.962C195.087 414.55 195.935 414.151 196.799 413.763C196.854 413.738 196.914 413.724 196.975 413.721C197.036 413.719 197.096 413.729 197.153 413.75C197.211 413.771 197.263 413.804 197.307 413.845C197.352 413.887 197.388 413.937 197.413 413.992C197.462 414.105 197.465 414.232 197.422 414.347C197.378 414.461 197.292 414.555 197.18 414.606C196.333 414.986 195.499 415.381 194.678 415.79C194.615 415.82 194.545 415.835 194.475 415.833L194.464 415.837ZM199.548 413.538C199.441 413.538 199.337 413.5 199.254 413.432C199.172 413.364 199.115 413.269 199.094 413.164C199.073 413.059 199.089 412.95 199.14 412.856C199.19 412.761 199.271 412.687 199.37 412.645C200.227 412.282 201.091 411.948 201.974 411.614C202.088 411.57 202.216 411.574 202.327 411.625C202.439 411.675 202.526 411.768 202.569 411.882C202.613 411.997 202.609 412.124 202.558 412.236C202.508 412.348 202.415 412.435 202.301 412.478C201.429 412.81 200.571 413.151 199.726 413.502C199.668 413.524 199.606 413.535 199.544 413.535L199.548 413.538ZM204.756 411.566C204.645 411.569 204.537 411.531 204.452 411.46C204.366 411.389 204.309 411.29 204.291 411.181C204.273 411.071 204.295 410.959 204.353 410.864C204.411 410.77 204.501 410.699 204.607 410.666C205.481 410.366 206.367 410.076 207.265 409.798C207.323 409.78 207.384 409.773 207.444 409.779C207.505 409.784 207.563 409.801 207.617 409.83C207.671 409.858 207.719 409.896 207.758 409.943C207.797 409.989 207.826 410.043 207.844 410.101C207.862 410.159 207.869 410.22 207.863 410.281C207.858 410.341 207.841 410.4 207.812 410.454C207.784 410.507 207.746 410.555 207.699 410.594C207.653 410.633 207.599 410.662 207.541 410.68C206.65 410.956 205.772 411.243 204.908 411.541C204.857 411.556 204.805 411.563 204.752 411.563L204.756 411.566ZM210.076 409.918C209.963 409.92 209.853 409.881 209.767 409.807C209.681 409.733 209.625 409.631 209.61 409.519C209.594 409.407 209.621 409.293 209.684 409.199C209.747 409.105 209.843 409.038 209.952 409.01C210.843 408.768 211.746 408.526 212.661 408.284C212.78 408.255 212.906 408.274 213.01 408.338C213.115 408.402 213.19 408.504 213.219 408.623C213.248 408.742 213.228 408.868 213.164 408.972C213.101 409.077 212.998 409.152 212.879 409.181C211.976 409.406 211.083 409.639 210.199 409.881C210.159 409.9 210.116 409.911 210.072 409.914L210.076 409.918ZM215.483 408.585C215.371 408.581 215.264 408.537 215.182 408.461C215.1 408.385 215.049 408.281 215.037 408.17C215.025 408.059 215.054 407.947 215.117 407.855C215.181 407.763 215.276 407.697 215.385 407.67C216.289 407.474 217.201 407.307 218.127 407.118C218.186 407.106 218.247 407.107 218.307 407.119C218.366 407.131 218.423 407.155 218.473 407.189C218.523 407.223 218.566 407.267 218.6 407.318C218.633 407.368 218.656 407.425 218.668 407.485C218.679 407.544 218.679 407.606 218.666 407.665C218.654 407.724 218.63 407.781 218.596 407.831C218.562 407.881 218.519 407.924 218.468 407.958C218.417 407.991 218.36 408.014 218.301 408.026C217.382 408.2 216.485 408.389 215.581 408.574L215.483 408.585ZM220.959 407.557C220.844 407.555 220.733 407.51 220.649 407.431C220.565 407.352 220.514 407.244 220.504 407.129C220.495 407.014 220.53 406.9 220.6 406.808C220.671 406.717 220.773 406.655 220.886 406.635C221.798 406.49 222.702 406.352 223.654 406.228C223.771 406.221 223.886 406.259 223.976 406.334C224.067 406.408 224.126 406.514 224.141 406.63C224.157 406.747 224.128 406.864 224.061 406.96C223.993 407.056 223.892 407.123 223.777 407.147C222.85 407.27 221.935 407.405 221.032 407.55L220.959 407.557ZM226.483 406.831C226.36 406.838 226.24 406.796 226.149 406.714C226.058 406.632 226.003 406.518 225.996 406.395C225.989 406.273 226.031 406.153 226.113 406.062C226.195 405.97 226.309 405.915 226.432 405.909C227.351 405.807 228.277 405.72 229.217 405.64C229.278 405.634 229.339 405.64 229.397 405.658C229.456 405.676 229.51 405.706 229.556 405.745C229.603 405.784 229.641 405.832 229.669 405.887C229.697 405.941 229.714 406 229.718 406.061C229.728 406.184 229.689 406.306 229.609 406.4C229.53 406.494 229.416 406.552 229.293 406.562C228.364 406.639 227.441 406.729 226.53 406.827L226.483 406.831Z" fill="#D8DEE8"/>
</g>
<g id="Vector_54" style="mix-blend-mode:soft-light">
<path d="M232.031 406.337C231.914 406.331 231.804 406.282 231.723 406.198C231.641 406.115 231.594 406.004 231.59 405.888C231.586 405.771 231.627 405.657 231.703 405.569C231.779 405.481 231.886 405.425 232.002 405.411C232.463 405.382 232.928 405.357 233.393 405.335C233.454 405.33 233.515 405.338 233.573 405.357C233.631 405.377 233.684 405.408 233.73 405.448C233.775 405.489 233.812 405.539 233.838 405.594C233.863 405.65 233.878 405.71 233.879 405.771C233.883 405.832 233.874 405.893 233.854 405.95C233.833 406.008 233.802 406.061 233.761 406.106C233.72 406.151 233.671 406.188 233.616 406.214C233.561 406.24 233.501 406.255 233.44 406.257L232.06 406.334L232.031 406.337Z" fill="#D8DEE8"/>
</g>
</g>
<g id="Group_5" style="mix-blend-mode:soft-light">
<g id="Vector_55" style="mix-blend-mode:soft-light">
<path d="M234.293 411.505C234.187 411.503 234.084 411.464 234.003 411.395C233.922 411.326 233.866 411.232 233.846 411.127C233.826 411.022 233.843 410.914 233.893 410.82C233.943 410.726 234.025 410.653 234.123 410.611C234.976 410.274 235.437 410.114 235.437 410.114C235.495 410.094 235.556 410.086 235.616 410.089C235.677 410.093 235.736 410.109 235.791 410.135C235.846 410.162 235.894 410.199 235.935 410.245C235.975 410.29 236.006 410.343 236.026 410.401C236.045 410.458 236.054 410.519 236.05 410.58C236.046 410.64 236.031 410.7 236.004 410.754C235.977 410.809 235.94 410.858 235.895 410.898C235.849 410.938 235.796 410.969 235.739 410.989C235.739 410.989 235.285 411.145 234.464 411.472C234.41 411.494 234.352 411.505 234.293 411.505Z" fill="#D8DEE8"/>
</g>
<g id="Vector_56" style="mix-blend-mode:soft-light">
<path d="M171.868 517.489C171.752 517.489 171.641 517.446 171.555 517.368C171.47 517.29 171.417 517.183 171.407 517.068C171.322 516.143 171.248 515.224 171.185 514.311C171.183 514.193 171.227 514.077 171.307 513.99C171.388 513.902 171.499 513.848 171.617 513.84C171.736 513.832 171.853 513.869 171.945 513.945C172.037 514.02 172.097 514.128 172.111 514.246C172.174 515.154 172.247 516.067 172.329 516.984C172.339 517.106 172.301 517.228 172.222 517.322C172.143 517.415 172.03 517.474 171.908 517.485L171.868 517.489ZM171.505 511.991C171.386 511.991 171.272 511.946 171.186 511.864C171.1 511.782 171.049 511.67 171.044 511.552C170.996 510.626 170.96 509.703 170.935 508.792C170.928 508.728 170.934 508.663 170.953 508.602C170.972 508.54 171.004 508.483 171.046 508.435C171.088 508.386 171.14 508.347 171.198 508.32C171.256 508.292 171.32 508.277 171.384 508.275C171.448 508.274 171.512 508.285 171.572 508.309C171.631 508.334 171.685 508.37 171.73 508.416C171.775 508.462 171.81 508.517 171.832 508.577C171.855 508.638 171.864 508.702 171.861 508.766C171.885 509.669 171.92 510.583 171.966 511.508C171.969 511.569 171.96 511.629 171.939 511.686C171.919 511.743 171.887 511.796 171.847 511.841C171.806 511.886 171.756 511.922 171.702 511.948C171.647 511.973 171.587 511.988 171.527 511.991H171.505ZM171.352 506.486C171.292 506.486 171.232 506.475 171.176 506.452C171.12 506.429 171.069 506.396 171.026 506.353C170.984 506.31 170.95 506.26 170.926 506.204C170.903 506.148 170.891 506.089 170.891 506.028V505.334C170.891 504.641 170.891 503.955 170.891 503.268C170.891 503.207 170.903 503.146 170.926 503.09C170.95 503.033 170.985 502.982 171.029 502.939C171.074 502.897 171.126 502.864 171.183 502.842C171.241 502.821 171.302 502.811 171.363 502.814C171.424 502.815 171.484 502.828 171.54 502.852C171.596 502.877 171.646 502.912 171.689 502.956C171.731 503 171.764 503.051 171.786 503.108C171.808 503.165 171.819 503.225 171.817 503.286C171.817 503.962 171.799 504.648 171.799 505.334V506.028C171.799 506.089 171.788 506.149 171.765 506.206C171.742 506.262 171.708 506.313 171.665 506.357C171.622 506.4 171.571 506.434 171.515 506.457C171.459 506.481 171.399 506.493 171.338 506.493L171.352 506.486ZM171.447 500.98C171.386 500.978 171.327 500.964 171.272 500.938C171.217 500.913 171.167 500.877 171.126 500.833C171.085 500.788 171.053 500.736 171.032 500.679C171.011 500.622 171.001 500.562 171.004 500.501C171.04 499.571 171.087 498.651 171.145 497.741C171.149 497.68 171.164 497.621 171.19 497.566C171.217 497.511 171.254 497.462 171.3 497.422C171.345 497.382 171.399 497.351 171.456 497.332C171.514 497.312 171.575 497.305 171.636 497.309C171.758 497.316 171.873 497.372 171.955 497.464C172.036 497.556 172.078 497.676 172.071 497.799C172.013 498.703 171.962 499.615 171.926 500.537C171.923 500.599 171.908 500.66 171.881 500.716C171.855 500.772 171.817 500.822 171.771 500.863C171.724 500.904 171.67 500.935 171.611 500.955C171.552 500.974 171.49 500.982 171.429 500.977L171.447 500.98ZM171.81 495.482H171.766C171.706 495.477 171.647 495.46 171.593 495.432C171.539 495.404 171.491 495.366 171.453 495.319C171.414 495.273 171.384 495.219 171.367 495.161C171.349 495.103 171.343 495.042 171.349 494.981C171.429 494.054 171.521 493.136 171.625 492.229C171.639 492.107 171.7 491.995 171.796 491.919C171.892 491.843 172.015 491.808 172.137 491.822C172.259 491.836 172.37 491.898 172.446 491.994C172.522 492.09 172.557 492.212 172.543 492.334C172.442 493.234 172.351 494.144 172.271 495.061C172.26 495.181 172.203 495.292 172.111 495.371C172.02 495.449 171.901 495.489 171.781 495.482H171.81ZM172.427 490.013H172.366C172.244 489.996 172.134 489.932 172.06 489.834C171.985 489.736 171.953 489.612 171.97 489.49C172.097 488.568 172.238 487.675 172.387 486.756C172.408 486.635 172.475 486.527 172.575 486.456C172.624 486.421 172.68 486.396 172.739 486.382C172.798 486.368 172.859 486.366 172.919 486.376C172.979 486.386 173.036 486.408 173.088 486.44C173.139 486.472 173.184 486.514 173.219 486.564C173.254 486.613 173.28 486.669 173.293 486.728C173.307 486.787 173.309 486.849 173.299 486.908C173.154 487.802 173.017 488.705 172.888 489.618C172.872 489.731 172.813 489.834 172.725 489.907C172.636 489.98 172.524 490.018 172.409 490.013H172.427ZM173.331 484.566H173.241C173.121 484.541 173.016 484.47 172.948 484.368C172.88 484.266 172.855 484.142 172.878 484.021C173.055 483.11 173.241 482.206 173.44 481.316C173.452 481.256 173.476 481.198 173.51 481.147C173.544 481.096 173.588 481.052 173.64 481.018C173.691 480.984 173.749 480.961 173.81 480.95C173.87 480.939 173.932 480.94 173.992 480.953C174.053 480.965 174.11 480.989 174.161 481.023C174.212 481.058 174.255 481.102 174.289 481.153C174.323 481.204 174.346 481.262 174.358 481.322C174.369 481.383 174.368 481.445 174.356 481.505C174.159 482.387 173.992 483.284 173.8 484.188C173.782 484.305 173.721 484.41 173.628 484.482C173.536 484.555 173.42 484.59 173.302 484.581L173.331 484.566ZM174.519 479.192C174.482 479.195 174.444 479.195 174.406 479.192C174.347 479.177 174.292 479.15 174.243 479.114C174.194 479.078 174.153 479.032 174.122 478.98C174.091 478.927 174.071 478.869 174.062 478.809C174.054 478.749 174.057 478.688 174.072 478.629C174.297 477.728 174.533 476.835 174.799 475.956C174.832 475.838 174.911 475.738 175.017 475.678C175.124 475.618 175.251 475.603 175.369 475.636C175.487 475.67 175.587 475.748 175.647 475.855C175.707 475.962 175.722 476.089 175.688 476.207C175.445 477.078 175.209 477.96 174.987 478.854C174.96 478.962 174.895 479.057 174.804 479.122C174.713 479.187 174.601 479.216 174.49 479.206L174.519 479.192ZM176.004 473.89C175.957 473.889 175.911 473.882 175.866 473.868C175.749 473.83 175.652 473.748 175.595 473.64C175.538 473.531 175.526 473.404 175.561 473.287C175.837 472.401 176.124 471.524 176.422 470.658C176.462 470.542 176.546 470.446 176.657 470.392C176.767 470.339 176.894 470.331 177.01 470.371C177.126 470.411 177.222 470.495 177.275 470.605C177.329 470.716 177.337 470.843 177.297 470.959C177.004 471.816 176.721 472.684 176.447 473.563C176.42 473.665 176.358 473.755 176.272 473.817C176.186 473.88 176.081 473.91 175.975 473.904L176.004 473.89ZM177.791 468.678C177.735 468.679 177.68 468.67 177.627 468.649C177.513 468.606 177.42 468.519 177.369 468.408C177.318 468.296 177.313 468.169 177.355 468.054C177.682 467.182 178.02 466.325 178.365 465.476C178.413 465.362 178.504 465.272 178.619 465.226C178.733 465.179 178.861 465.18 178.975 465.229C179.088 465.277 179.178 465.368 179.225 465.482C179.271 465.597 179.27 465.725 179.222 465.839C178.88 466.676 178.547 467.524 178.223 468.381C178.191 468.476 178.128 468.558 178.045 468.614C177.962 468.671 177.862 468.698 177.762 468.693L177.791 468.678ZM179.872 463.594C179.807 463.594 179.743 463.58 179.683 463.554C179.571 463.504 179.483 463.411 179.439 463.296C179.395 463.181 179.398 463.054 179.447 462.941C179.81 462.091 180.213 461.256 180.605 460.428C180.659 460.318 180.754 460.234 180.87 460.193C180.985 460.152 181.112 460.158 181.223 460.21C181.278 460.236 181.327 460.273 181.368 460.318C181.408 460.363 181.44 460.416 181.46 460.473C181.48 460.531 181.489 460.591 181.486 460.652C181.482 460.713 181.467 460.772 181.441 460.827C181.048 461.648 180.667 462.476 180.293 463.318C180.255 463.405 180.192 463.479 180.112 463.529C180.031 463.579 179.937 463.603 179.843 463.598L179.872 463.594ZM182.25 458.627C182.176 458.626 182.103 458.608 182.036 458.576C181.927 458.519 181.845 458.422 181.807 458.305C181.77 458.188 181.78 458.061 181.836 457.951C182.26 457.123 182.695 456.31 183.14 455.511C183.169 455.458 183.209 455.411 183.256 455.373C183.304 455.335 183.358 455.307 183.417 455.29C183.475 455.273 183.536 455.268 183.596 455.275C183.657 455.281 183.715 455.3 183.768 455.329C183.821 455.359 183.868 455.398 183.906 455.445C183.944 455.493 183.972 455.547 183.989 455.606C184.006 455.664 184.011 455.725 184.005 455.786C183.998 455.846 183.979 455.904 183.95 455.957C183.514 456.753 183.082 457.559 182.661 458.376C182.62 458.458 182.556 458.526 182.476 458.571C182.397 458.616 182.305 458.637 182.214 458.63L182.25 458.627ZM184.912 453.808C184.829 453.807 184.748 453.784 184.676 453.742C184.571 453.679 184.495 453.577 184.465 453.457C184.435 453.338 184.454 453.212 184.516 453.107C184.988 452.308 185.473 451.521 185.969 450.746C186.001 450.695 186.044 450.651 186.093 450.616C186.143 450.581 186.199 450.556 186.258 450.543C186.317 450.529 186.378 450.528 186.438 450.538C186.498 450.548 186.555 450.57 186.606 450.603C186.658 450.635 186.702 450.677 186.737 450.727C186.772 450.777 186.797 450.833 186.81 450.892C186.823 450.951 186.825 451.012 186.815 451.072C186.804 451.132 186.782 451.189 186.75 451.24C186.267 452.006 185.787 452.787 185.319 453.579C185.275 453.655 185.212 453.717 185.134 453.758C185.057 453.799 184.97 453.817 184.883 453.811L184.912 453.808ZM187.857 449.148C187.772 449.15 187.688 449.128 187.615 449.084C187.542 449.041 187.482 448.978 187.442 448.903C187.402 448.828 187.384 448.743 187.389 448.658C187.395 448.574 187.423 448.492 187.472 448.422C187.992 447.649 188.518 446.893 189.052 446.149C189.087 446.1 189.132 446.058 189.184 446.025C189.235 445.993 189.292 445.972 189.352 445.962C189.412 445.952 189.473 445.954 189.532 445.968C189.591 445.981 189.647 446.006 189.697 446.042C189.746 446.077 189.788 446.122 189.82 446.173C189.852 446.225 189.874 446.282 189.884 446.342C189.894 446.402 189.892 446.463 189.878 446.522C189.864 446.581 189.839 446.637 189.804 446.686C189.276 447.413 188.754 448.163 188.239 448.938C188.196 449.007 188.135 449.064 188.063 449.102C187.991 449.139 187.91 449.157 187.828 449.152L187.857 449.148ZM191.064 444.671C190.963 444.672 190.864 444.639 190.784 444.576C190.736 444.54 190.695 444.494 190.664 444.442C190.634 444.39 190.613 444.332 190.605 444.272C190.596 444.212 190.6 444.151 190.615 444.092C190.63 444.034 190.657 443.978 190.694 443.93C191.258 443.189 191.827 442.463 192.4 441.751C192.438 441.703 192.486 441.664 192.539 441.634C192.593 441.605 192.651 441.586 192.712 441.579C192.773 441.573 192.834 441.578 192.893 441.595C192.952 441.612 193.006 441.64 193.054 441.679C193.102 441.717 193.141 441.764 193.171 441.817C193.2 441.871 193.219 441.93 193.226 441.99C193.232 442.051 193.227 442.112 193.21 442.171C193.193 442.23 193.165 442.285 193.127 442.332C192.555 443.037 191.991 443.756 191.434 444.489C191.39 444.554 191.331 444.606 191.261 444.641C191.191 444.676 191.113 444.693 191.035 444.689L191.064 444.671ZM194.521 440.382C194.411 440.382 194.304 440.343 194.22 440.273C194.127 440.193 194.069 440.079 194.059 439.957C194.05 439.834 194.089 439.713 194.169 439.619C194.772 438.913 195.377 438.219 195.985 437.539C196.067 437.448 196.182 437.393 196.305 437.387C196.427 437.381 196.547 437.424 196.638 437.506C196.729 437.588 196.784 437.703 196.79 437.826C196.796 437.949 196.753 438.069 196.671 438.16C196.066 438.833 195.46 439.519 194.855 440.219C194.811 440.272 194.756 440.315 194.693 440.344C194.63 440.373 194.561 440.387 194.492 440.386L194.521 440.382ZM198.192 436.297C198.075 436.296 197.962 436.251 197.877 436.17C197.788 436.084 197.736 435.968 197.733 435.845C197.729 435.722 197.775 435.602 197.858 435.512C198.501 434.84 199.148 434.18 199.798 433.537C199.84 433.494 199.891 433.46 199.947 433.436C200.004 433.413 200.064 433.401 200.124 433.401C200.185 433.401 200.245 433.413 200.301 433.436C200.357 433.46 200.408 433.494 200.451 433.537C200.538 433.624 200.586 433.742 200.586 433.865C200.586 433.988 200.538 434.106 200.451 434.194C199.81 434.831 199.171 435.483 198.534 436.151C198.49 436.198 198.437 436.235 198.379 436.26C198.32 436.285 198.256 436.298 198.192 436.297ZM202.1 432.411C202.037 432.41 201.976 432.397 201.918 432.372C201.861 432.347 201.809 432.311 201.766 432.266C201.724 432.222 201.691 432.17 201.669 432.113C201.648 432.056 201.637 431.996 201.639 431.935C201.641 431.874 201.654 431.815 201.679 431.759C201.704 431.704 201.74 431.654 201.784 431.612C202.463 430.969 203.142 430.348 203.825 429.738C203.87 429.698 203.923 429.667 203.98 429.647C204.038 429.627 204.098 429.619 204.159 429.622C204.219 429.626 204.278 429.641 204.333 429.668C204.388 429.694 204.436 429.731 204.477 429.776C204.517 429.822 204.548 429.875 204.568 429.932C204.588 429.989 204.596 430.05 204.593 430.11C204.589 430.171 204.574 430.23 204.547 430.285C204.521 430.339 204.484 430.388 204.439 430.428C203.767 431.031 203.091 431.648 202.42 432.284C202.33 432.368 202.212 432.413 202.089 432.411H202.1ZM206.211 428.736C206.116 428.737 206.023 428.708 205.945 428.654C205.867 428.601 205.808 428.524 205.775 428.435C205.742 428.346 205.737 428.249 205.761 428.158C205.785 428.066 205.837 427.984 205.909 427.923C206.636 427.317 207.347 426.729 208.045 426.158C208.092 426.119 208.146 426.091 208.204 426.074C208.263 426.056 208.324 426.051 208.384 426.057C208.444 426.064 208.503 426.082 208.556 426.111C208.61 426.14 208.657 426.179 208.695 426.227C208.772 426.322 208.808 426.445 208.796 426.568C208.783 426.69 208.722 426.803 208.626 426.88C207.921 427.443 207.217 428.028 206.509 428.627C206.422 428.7 206.313 428.738 206.2 428.736H206.211ZM210.503 425.279C210.406 425.28 210.312 425.25 210.233 425.194C210.154 425.138 210.094 425.059 210.063 424.967C210.032 424.875 210.03 424.776 210.058 424.684C210.086 424.591 210.143 424.51 210.22 424.451C210.968 423.877 211.709 423.329 212.442 422.795C212.542 422.73 212.663 422.707 212.78 422.728C212.897 422.75 213.001 422.816 213.071 422.913C213.141 423.009 213.171 423.128 213.155 423.246C213.14 423.364 213.08 423.472 212.987 423.547C212.261 424.072 211.526 424.618 210.783 425.184C210.7 425.249 210.597 425.282 210.492 425.279H210.503ZM214.966 422.043C214.867 422.043 214.771 422.011 214.691 421.953C214.612 421.894 214.553 421.812 214.523 421.717C214.494 421.623 214.495 421.522 214.527 421.428C214.559 421.335 214.62 421.254 214.701 421.197C215.482 420.663 216.248 420.148 217.003 419.657C217.054 419.624 217.111 419.601 217.171 419.59C217.23 419.579 217.292 419.58 217.351 419.592C217.41 419.605 217.467 419.629 217.517 419.663C217.567 419.697 217.609 419.741 217.643 419.792C217.676 419.842 217.699 419.899 217.71 419.959C217.721 420.019 217.72 420.08 217.708 420.139C217.695 420.198 217.671 420.255 217.637 420.305C217.603 420.355 217.559 420.398 217.508 420.431C216.76 420.921 215.998 421.429 215.228 421.96C215.148 422.015 215.053 422.045 214.955 422.043H214.966ZM219.585 419.033C219.485 419.031 219.388 418.998 219.309 418.937C219.229 418.876 219.172 418.791 219.144 418.695C219.117 418.599 219.122 418.496 219.157 418.402C219.193 418.309 219.258 418.229 219.342 418.176C220.156 417.675 220.947 417.199 221.717 416.749C221.77 416.711 221.829 416.685 221.893 416.672C221.956 416.659 222.021 416.66 222.084 416.673C222.147 416.687 222.206 416.713 222.259 416.751C222.311 416.789 222.355 416.837 222.387 416.892C222.42 416.948 222.44 417.01 222.448 417.074C222.455 417.138 222.449 417.203 222.43 417.264C222.412 417.326 222.38 417.383 222.338 417.432C222.296 417.48 222.244 417.52 222.186 417.547C221.421 417.995 220.635 418.466 219.829 418.96C219.753 419.009 219.665 419.034 219.575 419.033H219.585ZM224.339 416.255C224.236 416.255 224.136 416.22 224.054 416.157C223.973 416.094 223.915 416.006 223.889 415.906C223.863 415.806 223.871 415.701 223.912 415.606C223.953 415.511 224.024 415.433 224.114 415.383C224.967 414.918 225.784 414.482 226.561 414.083C226.671 414.027 226.798 414.017 226.915 414.054C227.032 414.091 227.13 414.174 227.186 414.283C227.241 414.392 227.251 414.519 227.214 414.636C227.176 414.753 227.095 414.85 226.986 414.907C226.214 415.302 225.405 415.732 224.561 416.197C224.493 416.235 224.417 416.255 224.339 416.255ZM229.245 413.713C229.158 413.713 229.073 413.688 228.999 413.642C228.925 413.596 228.866 413.529 228.828 413.451C228.801 413.396 228.785 413.337 228.781 413.276C228.778 413.215 228.786 413.154 228.806 413.097C228.827 413.039 228.858 412.986 228.899 412.941C228.94 412.896 228.99 412.859 229.045 412.834C229.971 412.387 230.818 411.999 231.566 411.668C231.676 411.628 231.798 411.632 231.906 411.679C232.014 411.726 232.1 411.812 232.146 411.92C232.192 412.028 232.196 412.15 232.155 412.26C232.115 412.371 232.034 412.462 231.929 412.514C231.203 412.845 230.353 413.24 229.434 413.665C229.378 413.699 229.314 413.72 229.249 413.727L229.245 413.713Z" fill="#D8DEE8"/>
</g>
<g id="Vector_57" style="mix-blend-mode:soft-light">
<path d="M172.301 521.622C172.187 521.621 172.077 521.58 171.992 521.504C171.907 521.428 171.853 521.324 171.839 521.211C171.785 520.75 171.734 520.289 171.683 519.828C171.677 519.767 171.682 519.706 171.699 519.648C171.717 519.59 171.745 519.536 171.783 519.488C171.821 519.441 171.868 519.402 171.922 519.373C171.975 519.344 172.033 519.326 172.094 519.319C172.154 519.313 172.215 519.318 172.273 519.335C172.331 519.352 172.386 519.381 172.433 519.419C172.48 519.457 172.519 519.504 172.548 519.557C172.577 519.611 172.596 519.669 172.602 519.73C172.653 520.183 172.704 520.645 172.758 521.102C172.766 521.163 172.761 521.224 172.745 521.282C172.729 521.341 172.701 521.396 172.664 521.444C172.626 521.492 172.58 521.532 172.527 521.562C172.474 521.592 172.415 521.611 172.355 521.618L172.301 521.622Z" fill="#D8DEE8"/>
</g>
</g>
<g id="Group_6" style="mix-blend-mode:soft-light">
<g id="Vector_58" style="mix-blend-mode:soft-light">
<path d="M234.471 417.482C234.374 417.483 234.278 417.453 234.199 417.397C234.119 417.34 234.06 417.26 234.029 417.168C233.998 417.076 233.997 416.976 234.026 416.883C234.055 416.79 234.113 416.708 234.191 416.65C234.918 416.095 235.332 415.822 235.332 415.822C235.382 415.789 235.438 415.765 235.498 415.753C235.557 415.741 235.618 415.741 235.678 415.752C235.738 415.764 235.794 415.787 235.845 415.821C235.895 415.854 235.939 415.897 235.973 415.948C236.006 415.998 236.03 416.055 236.042 416.114C236.054 416.173 236.054 416.235 236.043 416.294C236.031 416.354 236.008 416.41 235.974 416.461C235.941 416.511 235.898 416.555 235.847 416.589C235.847 416.589 235.448 416.857 234.758 417.388C234.676 417.451 234.575 417.485 234.471 417.482Z" fill="#D8DEE8"/>
</g>
<g id="Vector_59" style="mix-blend-mode:soft-light">
<path d="M205.993 521.549C205.894 521.549 205.797 521.516 205.717 521.457C205.638 521.397 205.579 521.314 205.55 521.219C205.285 520.336 205.031 519.454 204.791 518.582C204.759 518.464 204.774 518.338 204.834 518.231C204.895 518.125 204.995 518.047 205.113 518.014C205.231 517.981 205.357 517.997 205.463 518.057C205.57 518.117 205.648 518.217 205.681 518.335C205.923 519.204 206.175 520.077 206.436 520.954C206.454 521.012 206.46 521.073 206.455 521.133C206.449 521.194 206.431 521.253 206.402 521.307C206.374 521.36 206.335 521.408 206.287 521.446C206.24 521.485 206.186 521.513 206.128 521.531C206.084 521.542 206.039 521.548 205.993 521.549ZM204.541 516.276C204.436 516.275 204.334 516.239 204.252 516.173C204.17 516.107 204.113 516.016 204.09 515.913C203.863 515.02 203.646 514.131 203.44 513.248C203.412 513.128 203.433 513.002 203.498 512.898C203.563 512.794 203.666 512.72 203.785 512.692C203.905 512.664 204.03 512.685 204.135 512.749C204.239 512.814 204.313 512.917 204.341 513.037C204.544 513.912 204.762 514.798 204.987 515.684C205.003 515.743 205.007 515.805 204.999 515.865C204.99 515.925 204.97 515.984 204.939 516.036C204.908 516.088 204.866 516.134 204.817 516.17C204.768 516.207 204.713 516.233 204.653 516.247C204.615 516.263 204.575 516.273 204.533 516.276H204.541ZM203.277 510.949C203.171 510.949 203.069 510.913 202.986 510.847C202.904 510.781 202.846 510.689 202.823 510.586C202.634 509.681 202.46 508.77 202.289 507.891C202.278 507.832 202.279 507.77 202.291 507.711C202.304 507.652 202.328 507.595 202.362 507.545C202.396 507.495 202.44 507.452 202.491 507.419C202.541 507.386 202.598 507.363 202.658 507.352C202.717 507.341 202.779 507.341 202.838 507.354C202.897 507.366 202.954 507.39 203.004 507.424C203.054 507.459 203.097 507.502 203.13 507.553C203.163 507.604 203.186 507.661 203.197 507.72C203.364 508.607 203.538 509.496 203.727 510.393C203.74 510.453 203.742 510.515 203.73 510.575C203.719 510.636 203.696 510.693 203.662 510.744C203.628 510.796 203.584 510.839 203.533 510.873C203.482 510.907 203.424 510.93 203.364 510.942L203.277 510.949ZM202.271 505.571C202.161 505.57 202.055 505.531 201.971 505.46C201.887 505.389 201.832 505.29 201.813 505.182C201.665 504.271 201.53 503.366 201.403 502.466C201.395 502.348 201.432 502.232 201.506 502.14C201.58 502.049 201.686 501.989 201.803 501.973C201.92 501.957 202.038 501.986 202.135 502.053C202.231 502.121 202.298 502.223 202.322 502.339C202.445 503.232 202.581 504.13 202.729 505.033C202.749 505.151 202.722 505.273 202.655 505.372C202.587 505.471 202.483 505.54 202.365 505.563C202.339 505.57 202.312 505.572 202.286 505.571H202.271ZM201.519 500.152C201.406 500.152 201.296 500.111 201.211 500.035C201.126 499.959 201.071 499.855 201.058 499.742C200.954 498.822 200.862 497.911 200.782 497.008C200.776 496.947 200.782 496.886 200.8 496.828C200.818 496.77 200.847 496.716 200.886 496.67C200.925 496.623 200.973 496.584 201.026 496.556C201.08 496.528 201.139 496.511 201.2 496.506C201.322 496.498 201.443 496.537 201.537 496.616C201.631 496.694 201.691 496.806 201.705 496.928C201.784 497.821 201.875 498.724 201.977 499.637C201.984 499.697 201.98 499.759 201.963 499.817C201.947 499.876 201.919 499.931 201.881 499.978C201.843 500.026 201.796 500.066 201.743 500.095C201.689 500.124 201.631 500.143 201.57 500.149L201.519 500.152ZM201.033 494.705C200.916 494.705 200.803 494.66 200.717 494.58C200.632 494.5 200.58 494.39 200.572 494.273C200.513 493.351 200.467 492.436 200.434 491.528C200.439 491.411 200.488 491.301 200.571 491.219C200.654 491.137 200.765 491.089 200.881 491.084C200.998 491.08 201.112 491.12 201.201 491.196C201.289 491.272 201.346 491.379 201.36 491.495C201.391 492.391 201.437 493.297 201.498 494.215C201.504 494.338 201.463 494.458 201.381 494.55C201.299 494.642 201.184 494.698 201.062 494.705H201.033ZM200.833 489.258C200.711 489.258 200.594 489.21 200.507 489.125C200.42 489.039 200.37 488.923 200.368 488.801C200.368 488.459 200.368 488.121 200.368 487.784C200.368 487.203 200.368 486.625 200.368 486.052C200.378 485.936 200.432 485.828 200.517 485.75C200.603 485.671 200.715 485.628 200.831 485.628C200.947 485.628 201.059 485.671 201.145 485.75C201.231 485.828 201.284 485.936 201.294 486.052C201.294 486.622 201.294 487.192 201.294 487.769C201.294 488.103 201.294 488.437 201.294 488.775C201.295 488.836 201.284 488.896 201.262 488.953C201.239 489.01 201.206 489.061 201.163 489.105C201.12 489.148 201.07 489.183 201.014 489.207C200.958 489.231 200.898 489.243 200.837 489.244L200.833 489.258ZM200.927 483.789H200.906C200.784 483.783 200.669 483.728 200.587 483.638C200.505 483.547 200.461 483.428 200.466 483.306C200.505 482.379 200.559 481.464 200.63 480.561C200.633 480.5 200.649 480.441 200.676 480.386C200.703 480.332 200.741 480.283 200.787 480.244C200.833 480.204 200.886 480.174 200.944 480.156C201.002 480.137 201.063 480.13 201.124 480.136C201.184 480.14 201.243 480.156 201.298 480.183C201.352 480.21 201.401 480.248 201.44 480.294C201.48 480.34 201.511 480.393 201.53 480.451C201.549 480.508 201.556 480.569 201.552 480.63C201.487 481.528 201.432 482.433 201.389 483.346C201.378 483.459 201.327 483.563 201.245 483.641C201.163 483.718 201.055 483.763 200.942 483.767L200.927 483.789ZM201.331 478.342H201.283C201.161 478.329 201.049 478.268 200.971 478.173C200.894 478.078 200.857 477.956 200.869 477.833C200.967 476.915 201.073 476.018 201.193 475.106C201.196 475.042 201.212 474.979 201.241 474.922C201.269 474.864 201.309 474.813 201.359 474.772C201.408 474.731 201.465 474.7 201.527 474.682C201.588 474.664 201.653 474.659 201.717 474.668C201.781 474.676 201.842 474.697 201.897 474.73C201.952 474.764 201.999 474.808 202.037 474.86C202.074 474.913 202.099 474.972 202.112 475.035C202.125 475.098 202.125 475.163 202.111 475.226C201.991 476.116 201.886 477.02 201.792 477.928C201.773 478.034 201.719 478.13 201.637 478.2C201.556 478.27 201.453 478.31 201.345 478.313L201.331 478.342ZM202.057 472.92H201.981C201.921 472.91 201.863 472.889 201.812 472.857C201.76 472.825 201.715 472.783 201.68 472.734C201.644 472.685 201.619 472.629 201.605 472.57C201.591 472.511 201.589 472.45 201.599 472.39C201.748 471.478 201.908 470.574 202.082 469.684C202.094 469.625 202.117 469.568 202.15 469.517C202.184 469.467 202.227 469.423 202.277 469.389C202.327 469.355 202.384 469.331 202.443 469.319C202.502 469.307 202.564 469.306 202.623 469.318C202.683 469.329 202.74 469.352 202.79 469.386C202.841 469.419 202.885 469.462 202.919 469.512C202.953 469.563 202.977 469.619 202.989 469.678C203.001 469.738 203.002 469.799 202.99 469.859C202.818 470.74 202.658 471.633 202.511 472.539C202.487 472.638 202.43 472.727 202.35 472.791C202.269 472.855 202.17 472.89 202.068 472.891L202.057 472.92ZM203.099 467.553C203.064 467.556 203.029 467.556 202.994 467.553C202.933 467.54 202.876 467.516 202.825 467.481C202.774 467.446 202.731 467.402 202.697 467.35C202.663 467.299 202.64 467.241 202.628 467.18C202.617 467.12 202.618 467.058 202.631 466.997C202.834 466.093 203.052 465.203 203.277 464.324C203.315 464.214 203.394 464.122 203.497 464.067C203.6 464.012 203.72 463.998 203.833 464.027C203.946 464.056 204.043 464.127 204.107 464.225C204.17 464.323 204.194 464.442 204.174 464.557C203.949 465.426 203.736 466.307 203.535 467.201C203.505 467.291 203.449 467.371 203.373 467.429C203.297 467.486 203.205 467.52 203.11 467.524L203.099 467.553ZM204.464 462.254C204.421 462.26 204.377 462.26 204.334 462.254C204.275 462.237 204.221 462.209 204.174 462.171C204.127 462.133 204.087 462.086 204.058 462.032C204.029 461.979 204.011 461.921 204.005 461.86C203.999 461.8 204.004 461.739 204.021 461.681C204.278 460.792 204.547 459.916 204.828 459.052C204.867 458.935 204.95 458.839 205.059 458.784C205.169 458.729 205.296 458.719 205.412 458.757C205.47 458.776 205.524 458.805 205.571 458.844C205.617 458.883 205.655 458.931 205.683 458.985C205.711 459.04 205.727 459.099 205.732 459.159C205.737 459.22 205.729 459.281 205.71 459.338C205.434 460.191 205.167 461.057 204.907 461.939C204.873 462.024 204.813 462.097 204.736 462.149C204.659 462.2 204.568 462.226 204.475 462.225L204.464 462.254ZM206.182 457.036C206.129 457.035 206.076 457.025 206.026 457.007C205.911 456.964 205.818 456.879 205.766 456.768C205.713 456.657 205.706 456.531 205.746 456.415C206.064 455.544 206.387 454.687 206.716 453.844C206.766 453.737 206.855 453.652 206.964 453.608C207.074 453.564 207.197 453.563 207.307 453.606C207.417 453.649 207.507 453.733 207.558 453.84C207.608 453.947 207.617 454.069 207.58 454.182C207.249 455.017 206.928 455.864 206.618 456.724C206.587 456.815 206.528 456.894 206.45 456.95C206.372 457.006 206.278 457.036 206.182 457.036ZM208.19 451.952C208.128 451.951 208.066 451.938 208.009 451.912C207.953 451.888 207.902 451.854 207.86 451.81C207.817 451.767 207.784 451.716 207.761 451.659C207.739 451.603 207.727 451.543 207.728 451.482C207.729 451.421 207.741 451.361 207.765 451.306C208.129 450.452 208.51 449.617 208.891 448.796C208.913 448.736 208.948 448.68 208.992 448.634C209.037 448.587 209.091 448.55 209.15 448.526C209.21 448.501 209.274 448.489 209.339 448.49C209.403 448.492 209.466 448.507 209.525 448.534C209.583 448.561 209.635 448.601 209.678 448.649C209.72 448.698 209.752 448.755 209.772 448.816C209.791 448.878 209.797 448.943 209.79 449.007C209.783 449.071 209.762 449.133 209.73 449.188C209.367 449.998 208.978 450.826 208.615 451.669C208.579 451.756 208.518 451.83 208.438 451.88C208.359 451.931 208.266 451.956 208.172 451.952H208.19ZM210.511 446.995C210.438 446.994 210.366 446.977 210.3 446.944C210.246 446.917 210.198 446.879 210.158 446.833C210.119 446.787 210.088 446.734 210.07 446.676C210.051 446.618 210.043 446.557 210.048 446.497C210.053 446.436 210.069 446.377 210.097 446.323C210.514 445.495 210.943 444.682 211.375 443.887C211.401 443.828 211.439 443.775 211.486 443.731C211.534 443.687 211.59 443.654 211.65 443.633C211.711 443.613 211.776 443.605 211.84 443.61C211.904 443.616 211.967 443.634 212.023 443.665C212.08 443.696 212.129 443.738 212.169 443.789C212.208 443.84 212.236 443.899 212.252 443.961C212.267 444.023 212.27 444.088 212.259 444.152C212.248 444.215 212.224 444.276 212.189 444.33C211.76 445.119 211.338 445.923 210.921 446.741C210.88 446.817 210.817 446.88 210.741 446.922C210.666 446.965 210.579 446.985 210.493 446.981L210.511 446.995ZM213.126 442.191C213.044 442.19 212.963 442.168 212.893 442.125C212.841 442.095 212.795 442.054 212.758 442.006C212.721 441.958 212.694 441.903 212.678 441.844C212.663 441.785 212.659 441.724 212.667 441.664C212.675 441.604 212.695 441.546 212.726 441.493C213.198 440.691 213.67 439.906 214.153 439.14C214.223 439.046 214.326 438.982 214.441 438.96C214.556 438.939 214.675 438.962 214.774 439.024C214.873 439.086 214.945 439.184 214.975 439.297C215.006 439.41 214.992 439.53 214.938 439.634C214.453 440.389 213.983 441.165 213.525 441.962C213.481 442.032 213.419 442.088 213.345 442.126C213.272 442.164 213.19 442.181 213.107 442.176L213.126 442.191ZM216.031 437.553C215.939 437.553 215.849 437.525 215.773 437.473C215.671 437.405 215.601 437.299 215.577 437.178C215.553 437.058 215.578 436.933 215.646 436.831C216.166 436.058 216.688 435.304 217.211 434.568C217.282 434.469 217.39 434.401 217.511 434.381C217.632 434.361 217.756 434.39 217.855 434.461C217.955 434.532 218.022 434.64 218.043 434.761C218.063 434.882 218.034 435.006 217.963 435.106C217.447 435.832 216.931 436.558 216.416 437.346C216.37 437.41 216.309 437.46 216.239 437.494C216.168 437.528 216.09 437.543 216.013 437.539L216.031 437.553ZM219.208 433.097C219.107 433.097 219.009 433.064 218.929 433.003C218.831 432.928 218.767 432.818 218.751 432.696C218.734 432.574 218.767 432.451 218.841 432.353C219.408 431.605 219.974 430.9 220.537 430.174C220.614 430.078 220.727 430.016 220.849 430.002C220.972 429.989 221.095 430.024 221.191 430.101C221.287 430.179 221.349 430.291 221.363 430.413C221.376 430.536 221.341 430.659 221.264 430.755C220.708 431.445 220.145 432.161 219.586 432.901C219.538 432.959 219.477 433.003 219.408 433.032C219.339 433.062 219.265 433.074 219.19 433.068L219.208 433.097ZM222.651 428.838C222.561 428.84 222.473 428.817 222.396 428.77C222.32 428.724 222.259 428.656 222.22 428.575C222.182 428.494 222.168 428.404 222.18 428.315C222.192 428.226 222.229 428.143 222.288 428.075C222.905 427.349 223.515 426.67 224.103 426.016C224.188 425.933 224.301 425.886 224.42 425.884C224.538 425.882 224.653 425.925 224.741 426.005C224.829 426.085 224.882 426.195 224.891 426.313C224.901 426.431 224.864 426.548 224.79 426.641C224.199 427.287 223.594 427.966 222.974 428.678C222.93 428.725 222.878 428.762 222.819 428.787C222.76 428.812 222.697 428.824 222.633 428.823L222.651 428.838ZM226.344 424.796C226.253 424.795 226.165 424.768 226.09 424.718C226.014 424.668 225.955 424.597 225.92 424.513C225.884 424.43 225.874 424.338 225.89 424.249C225.906 424.16 225.948 424.077 226.01 424.012C226.682 423.318 227.335 422.671 227.96 422.069C228.048 421.983 228.167 421.937 228.289 421.939C228.412 421.941 228.528 421.991 228.614 422.08C228.699 422.168 228.746 422.286 228.744 422.409C228.742 422.531 228.691 422.648 228.603 422.733C227.985 423.332 227.339 423.972 226.674 424.658C226.628 424.701 226.573 424.734 226.513 424.756C226.453 424.777 226.389 424.786 226.326 424.781L226.344 424.796ZM230.284 420.997C230.19 420.998 230.099 420.97 230.021 420.917C229.944 420.864 229.884 420.789 229.851 420.701C229.817 420.614 229.811 420.518 229.834 420.427C229.856 420.336 229.905 420.253 229.976 420.191C230.734 419.505 231.428 418.906 232.056 418.375C232.103 418.337 232.157 418.307 232.214 418.289C232.272 418.271 232.333 418.264 232.393 418.27C232.454 418.275 232.512 418.292 232.566 418.321C232.62 418.349 232.668 418.387 232.706 418.434C232.785 418.528 232.823 418.65 232.812 418.772C232.801 418.895 232.742 419.008 232.648 419.087C232.031 419.6 231.346 420.195 230.593 420.87C230.503 420.949 230.385 420.99 230.266 420.983L230.284 420.997Z" fill="#D8DEE8"/>
</g>
<g id="Vector_60" style="mix-blend-mode:soft-light">
<path d="M207.236 525.496C207.138 525.496 207.043 525.465 206.964 525.408C206.885 525.35 206.827 525.27 206.796 525.177C206.651 524.734 206.509 524.294 206.368 523.851C206.348 523.793 206.34 523.732 206.344 523.671C206.349 523.61 206.365 523.55 206.393 523.495C206.42 523.441 206.459 523.392 206.505 523.352C206.552 523.312 206.606 523.282 206.665 523.264C206.723 523.245 206.785 523.239 206.846 523.244C206.907 523.249 206.966 523.267 207.02 523.296C207.074 523.324 207.122 523.364 207.161 523.411C207.2 523.458 207.229 523.513 207.246 523.572C207.388 524.008 207.53 524.447 207.675 524.886C207.694 524.944 207.702 525.005 207.698 525.066C207.693 525.126 207.677 525.186 207.65 525.24C207.622 525.294 207.584 525.343 207.538 525.382C207.492 525.422 207.439 525.452 207.381 525.471C207.334 525.487 207.285 525.495 207.236 525.496Z" fill="#D8DEE8"/>
</g>
</g>
</g>
<defs>
<linearGradient id="paint0_linear" x1="552.101" y1="183.451" x2="392.153" y2="339.6" gradientUnits="userSpaceOnUse">
<stop stop-color="#799B91"/>
<stop offset="1" stop-color="#3E6764"/>
</linearGradient>
<linearGradient id="paint1_linear" x1="684.137" y1="480.604" x2="393.528" y2="473.464" gradientUnits="userSpaceOnUse">
<stop stop-color="#46736E"/>
<stop offset="1" stop-color="#2F4F4F"/>
</linearGradient>
<linearGradient id="paint2_linear" x1="594.313" y1="634.622" x2="339.127" y2="384.439" gradientUnits="userSpaceOnUse">
<stop stop-color="#EF9F8E"/>
<stop offset="1" stop-color="#E68273"/>
</linearGradient>
<linearGradient id="paint3_linear" x1="276501" y1="32586" x2="315769" y2="115389" gradientUnits="userSpaceOnUse">
<stop stop-color="#EF9F8E"/>
<stop offset="1" stop-color="#E68273"/>
</linearGradient>
<linearGradient id="paint4_linear" x1="447.459" y1="513.237" x2="904.089" y2="1073.85" gradientUnits="userSpaceOnUse">
<stop stop-color="#F6AF9A"/>
<stop offset="1" stop-color="#F89F8A"/>
</linearGradient>
<linearGradient id="paint5_linear" x1="245432" y1="203036" x2="407618" y2="474930" gradientUnits="userSpaceOnUse">
<stop stop-color="#F6AF9A"/>
<stop offset="1" stop-color="#F89F8A"/>
</linearGradient>
<linearGradient id="paint6_linear" x1="248.151" y1="690.953" x2="185.138" y2="569.771" gradientUnits="userSpaceOnUse">
<stop stop-color="#5D535A"/>
<stop offset="1" stop-color="#464143"/>
</linearGradient>
<linearGradient id="paint7_linear" x1="80510.3" y1="203311" x2="79095.7" y2="223329" gradientUnits="userSpaceOnUse">
<stop stop-color="#5D535A"/>
<stop offset="1" stop-color="#464143"/>
</linearGradient>
<linearGradient id="paint8_linear" x1="110.744" y1="521.386" x2="238.132" y2="521.386" gradientUnits="userSpaceOnUse">
<stop stop-color="#3B3138"/>
<stop offset="1" stop-color="#241F21"/>
</linearGradient>
<linearGradient id="paint9_linear" x1="172.184" y1="551.367" x2="173.749" y2="530.232" gradientUnits="userSpaceOnUse">
<stop stop-color="#D3C5CB"/>
<stop offset="1" stop-color="#ADA0A6"/>
</linearGradient>
<linearGradient id="paint10_linear" x1="183.78" y1="502.948" x2="163.429" y2="548.349" gradientUnits="userSpaceOnUse">
<stop stop-color="#96888E"/>
<stop offset="1" stop-color="#706369"/>
</linearGradient>
<linearGradient id="paint11_linear" x1="5729.74" y1="434579" x2="-22801.2" y2="427822" gradientUnits="userSpaceOnUse">
<stop stop-color="#5D535A"/>
<stop offset="1" stop-color="#464143"/>
</linearGradient>
<linearGradient id="paint12_linear" x1="10.1448" y1="48.6523" x2="65.757" y2="93.3992" gradientUnits="userSpaceOnUse">
<stop stop-color="#DDCBBD"/>
<stop offset="1" stop-color="#C9AD9A"/>
</linearGradient>
<linearGradient id="paint13_linear" x1="254.546" y1="12.225" x2="96.4795" y2="360.955" gradientUnits="userSpaceOnUse">
<stop stop-color="#F0E3D9"/>
<stop offset="1" stop-color="#D9C5B7"/>
</linearGradient>
<linearGradient id="paint14_linear" x1="345729" y1="385347" x2="189913" y2="150888" gradientUnits="userSpaceOnUse">
<stop stop-color="#F0E3D9"/>
<stop offset="1" stop-color="#D9C5B7"/>
</linearGradient>
<linearGradient id="paint15_linear" x1="184318" y1="132881" x2="401980" y2="480755" gradientUnits="userSpaceOnUse">
<stop stop-color="#F0E3D9"/>
<stop offset="1" stop-color="#D9C5B7"/>
</linearGradient>
<linearGradient id="paint16_linear" x1="160816" y1="-47000.1" x2="88456.8" y2="99823.6" gradientUnits="userSpaceOnUse">
<stop stop-color="#DDCBBD"/>
<stop offset="1" stop-color="#C9AD9A"/>
</linearGradient>
<linearGradient id="paint17_linear" x1="115428" y1="198368" x2="239692" y2="353325" gradientUnits="userSpaceOnUse">
<stop stop-color="#F0E3D9"/>
<stop offset="1" stop-color="#D9C5B7"/>
</linearGradient>
<linearGradient id="paint18_linear" x1="89213.7" y1="274884" x2="164057" y2="384626" gradientUnits="userSpaceOnUse">
<stop stop-color="#46736E"/>
<stop offset="1" stop-color="#2F4F4F"/>
</linearGradient>
<linearGradient id="paint19_linear" x1="49712.5" y1="44656.9" x2="52107.5" y2="47498.9" gradientUnits="userSpaceOnUse">
<stop stop-color="#3B3138"/>
<stop offset="1" stop-color="#241F21"/>
</linearGradient>
<linearGradient id="paint20_linear" x1="36206" y1="18254.3" x2="36259.1" y2="20518.8" gradientUnits="userSpaceOnUse">
<stop stop-color="#3B3138"/>
<stop offset="1" stop-color="#241F21"/>
</linearGradient>
<linearGradient id="paint21_linear" x1="476.985" y1="599.538" x2="494.031" y2="617.438" gradientUnits="userSpaceOnUse">
<stop stop-color="#FAEBD7"/>
<stop offset="1" stop-color="#E8D0BA"/>
</linearGradient>
<linearGradient id="paint22_linear" x1="79822.4" y1="349184" x2="97231.2" y2="342966" gradientUnits="userSpaceOnUse">
<stop stop-color="#3B3138"/>
<stop offset="1" stop-color="#241F21"/>
</linearGradient>
<linearGradient id="paint23_linear" x1="57919.2" y1="350232" x2="71101.3" y2="346848" gradientUnits="userSpaceOnUse">
<stop stop-color="#5D535A"/>
<stop offset="1" stop-color="#464143"/>
</linearGradient>
<linearGradient id="paint24_linear" x1="16441.3" y1="31269.6" x2="17424.4" y2="31620.3" gradientUnits="userSpaceOnUse">
<stop stop-color="#FAEBD7"/>
<stop offset="1" stop-color="#E8D0BA"/>
</linearGradient>
<linearGradient id="paint25_linear" x1="204815" y1="329305" x2="197131" y2="294485" gradientUnits="userSpaceOnUse">
<stop stop-color="#3B3138"/>
<stop offset="1" stop-color="#241F21"/>
</linearGradient>
<linearGradient id="paint26_linear" x1="397471" y1="146687" x2="437974" y2="237939" gradientUnits="userSpaceOnUse">
<stop stop-color="#3B3138"/>
<stop offset="1" stop-color="#241F21"/>
</linearGradient>
<linearGradient id="paint27_linear" x1="28693.1" y1="21044.1" x2="29563" y2="19089.8" gradientUnits="userSpaceOnUse">
<stop stop-color="#FAEBD7"/>
<stop offset="1" stop-color="#E8D0BA"/>
</linearGradient>
<linearGradient id="paint28_linear" x1="71468.2" y1="84473.8" x2="83041.6" y2="99733.7" gradientUnits="userSpaceOnUse">
<stop stop-color="#D3C5CB"/>
<stop offset="1" stop-color="#ADA0A6"/>
</linearGradient>
<linearGradient id="paint29_linear" x1="48479.8" y1="32900.4" x2="51481" y2="40649.5" gradientUnits="userSpaceOnUse">
<stop stop-color="#D3C5CB"/>
<stop offset="1" stop-color="#ADA0A6"/>
</linearGradient>
<linearGradient id="paint30_linear" x1="19197.1" y1="26105" x2="22268.7" y2="30306.5" gradientUnits="userSpaceOnUse">
<stop stop-color="#D3C5CB"/>
<stop offset="1" stop-color="#ADA0A6"/>
</linearGradient>
<linearGradient id="paint31_linear" x1="45445.8" y1="50423.7" x2="47524.6" y2="54012.6" gradientUnits="userSpaceOnUse">
<stop stop-color="#96888E"/>
<stop offset="1" stop-color="#706369"/>
</linearGradient>
<linearGradient id="paint32_linear" x1="58665.2" y1="84464.2" x2="70646" y2="97418.9" gradientUnits="userSpaceOnUse">
<stop stop-color="#D3C5CB"/>
<stop offset="1" stop-color="#ADA0A6"/>
</linearGradient>
<linearGradient id="paint33_linear" x1="55518.7" y1="37621.6" x2="50394" y2="32120.5" gradientUnits="userSpaceOnUse">
<stop stop-color="#96888E"/>
<stop offset="1" stop-color="#706369"/>
</linearGradient>
<linearGradient id="paint34_linear" x1="27132.7" y1="35657.8" x2="28751.3" y2="37926.3" gradientUnits="userSpaceOnUse">
<stop stop-color="#96888E"/>
<stop offset="1" stop-color="#706369"/>
</linearGradient>
<linearGradient id="paint35_linear" x1="12026.3" y1="10132.1" x2="12474" y2="9251.46" gradientUnits="userSpaceOnUse">
<stop stop-color="#FAEBD7"/>
<stop offset="1" stop-color="#E8D0BA"/>
</linearGradient>
<linearGradient id="paint36_linear" x1="340.26" y1="253.416" x2="440.612" y2="434.314" gradientUnits="userSpaceOnUse">
<stop stop-color="#95AFC7"/>
<stop offset="1" stop-color="#7595B6"/>
</linearGradient>
<linearGradient id="paint37_linear" x1="259629" y1="170478" x2="309009" y2="259486" gradientUnits="userSpaceOnUse">
<stop stop-color="#95AFC7"/>
<stop offset="1" stop-color="#7595B6"/>
</linearGradient>
<linearGradient id="paint38_linear" x1="445.463" y1="362.24" x2="592.563" y2="362.24" gradientUnits="userSpaceOnUse">
<stop stop-color="#A6B2C7"/>
<stop offset="1" stop-color="#7595B6"/>
</linearGradient>
<linearGradient id="paint39_linear" x1="41597.6" y1="20420.4" x2="42776.9" y2="22331.7" gradientUnits="userSpaceOnUse">
<stop stop-color="#FAEBD7"/>
<stop offset="1" stop-color="#E8D0BA"/>
</linearGradient>
<linearGradient id="paint40_linear" x1="159835" y1="78237.8" x2="182565" y2="124862" gradientUnits="userSpaceOnUse">
<stop stop-color="#95AFC7"/>
<stop offset="1" stop-color="#7595B6"/>
</linearGradient>
<linearGradient id="paint41_linear" x1="70251.4" y1="29876.2" x2="71389.5" y2="27113.4" gradientUnits="userSpaceOnUse">
<stop stop-color="#FAEBD7"/>
<stop offset="1" stop-color="#E8D0BA"/>
</linearGradient>
<linearGradient id="paint42_linear" x1="28095.5" y1="12967.4" x2="29737.7" y2="11598.5" gradientUnits="userSpaceOnUse">
<stop stop-color="#FAEBD7"/>
<stop offset="1" stop-color="#E8D0BA"/>
</linearGradient>
</defs>
</svg>
