<svg width="253" height="262" viewBox="0 0 253 262" fill="none" xmlns="http://www.w3.org/2000/svg">
<g id="learn">
<g id="learntoinvest">
<path id="Vector" d="M178.296 26.8495C129.366 22.8728 135.609 15.9971 117.79 11.0587C99.9722 6.1203 17.8767 15.4587 39.237 125.056C44.4832 151.971 53.5558 178.385 75.9008 194.907C88.0448 203.89 104.764 206.558 119.397 203.425C132.832 200.55 146.749 198.378 160.434 197.241C165.942 196.783 171.718 197.107 177.024 195.293C190.096 190.821 200.597 179.117 205.49 166.211C210.289 153.557 212.257 139.533 214.099 126.163C214.094 126.158 227.226 30.8253 178.296 26.8495Z" fill="#F9EFE4"/>
<g id="leaves">
<path id="Vector142" d="M50.9966 173.673C49.9644 172.192 48.9463 168.003 49.1042 166.795C50.1546 158.753 51.202 143.561 57.3307 137.982C58.3771 137.029 63.5596 140.798 65.0664 140.527C68.9181 142.075 70.1649 142.867 74.5064 142.425C87.3254 141.122 88.2939 113.147 107.83 124.523C122.139 132.857 127.397 146.893 143.642 127.772C159.888 108.652 204.902 90.8365 210.459 122.839C213.649 141.205 188.533 144.978 182.842 161.942C177.433 178.062 164.652 182.134 147.815 176.786C130.977 171.438 131.856 182.607 125.081 196.12C116.943 212.351 97.2986 195.114 88.8677 186.332C82.0782 179.262 60.307 166.13 50.9966 173.673Z" fill="url(#paint0_linear)"/>
<g id="veins">
<g id="Vector141" style="mix-blend-mode:soft-light">
<path d="M52.8672 153.065L52.9937 152.697C106.275 173.445 165.351 158.305 211.021 112.201L211.275 112.485C189.631 134.336 163.981 149.788 137.096 157.175C108.837 164.939 79.7105 163.517 52.8672 153.065Z" fill="#FCFDFE"/>
</g>
<path id="Vector140" d="M122.426 203.278C115.683 188.406 98.67 169.405 84.502 160.923L84.6821 160.582C98.9058 169.097 115.985 188.175 122.757 203.108L122.426 203.278Z" fill="#FCFDFE"/>
<path id="Vector139" d="M63.3711 157.011L63.3964 156.619C71.8263 157.248 80.23 153.318 88.3756 144.939C94.3464 138.795 100.046 130.446 105.309 120.124L105.633 120.311C100.352 130.668 94.6318 139.048 88.6316 145.22C80.4081 153.681 71.9093 157.647 63.3711 157.011Z" fill="#FCFDFE"/>
<g id="Vector138" style="mix-blend-mode:soft-light">
<path d="M140.875 155.968L140.882 155.576C156.828 155.892 170.445 166.309 179.061 174.994L178.807 175.278C170.239 166.647 156.703 156.281 140.875 155.968Z" fill="#FCFDFE"/>
</g>
<g id="Vector137" style="mix-blend-mode:soft-light">
<path d="M174.653 141.222L174.418 140.921C188.227 128.69 192.45 109.131 193.738 98.5608L194.103 98.6114C192.808 109.239 188.56 128.905 174.653 141.222Z" fill="#FCFDFE"/>
</g>
</g>
<g id="bigleaf">
<path id="Vector136" d="M63.1488 252.23C54.4834 246.407 45.9232 240.363 37.4683 234.099C37.2578 234.172 43.1517 211.296 57.4047 204.566C85.4078 191.709 80.8022 166.143 81.9963 152.843C83.0346 133.801 93.4319 117.553 109.152 124.657C126.741 132.174 142.591 103.153 151.005 73.9309C154.215 59.2545 173.052 48.4958 186.589 50.391C200.544 51.9988 209.198 66.2616 201.7 94.9961C194.351 128.894 165.087 137.625 150.634 149.542C136.428 161.231 149.401 182.229 129.116 188.954C111.785 195.258 92.6709 196.65 92.006 214.523C91.5668 232.296 85.0556 243.925 63.1488 252.23Z" fill="url(#paint1_linear)"/>
<g id="Vector135" style="mix-blend-mode:soft-light">
<path d="M49.7578 247.432C49.8347 247.239 77.4866 206.297 111.07 169.576C116.138 163.465 121.418 157.376 126.522 151.485C154.953 118.691 181.808 87.7145 186.137 41.2261L186.744 41.2907C182.393 87.9956 155.473 119.049 126.971 151.927C121.868 157.813 116.591 163.899 111.517 170.018C77.7528 206.935 50.452 247.443 50.3094 247.709L49.7578 247.432Z" fill="white"/>
</g>
<g id="Vector134" style="mix-blend-mode:soft-light">
<path d="M152.667 121.001L152.418 120.408C167.839 113.066 187.54 101.585 198.124 95.4164C206.691 90.4241 206.713 90.4381 206.977 90.6201L206.812 90.8936L206.835 91.2167C206.442 91.3147 202.9 93.3779 198.417 95.9914C187.828 102.159 168.111 113.647 152.667 121.001Z" fill="white"/>
</g>
<g id="Vector133" style="mix-blend-mode:soft-light">
<path d="M162.634 105.59C166.311 90.6532 164.753 78.9372 162.798 71.7407C160.672 63.9002 157.512 59.2676 157.029 58.9263L157.162 58.7174L157.095 58.3157C157.276 58.2812 157.417 58.3997 157.615 58.628C160.449 61.9016 169.689 79.4939 163.224 105.76L162.634 105.59Z" fill="white"/>
</g>
<path id="Vector132" d="M90.5487 194.314L90.0234 193.982C104.753 167.579 97.7956 133.181 94.121 119.617C93.9186 118.889 93.8599 118.648 93.8488 118.54L94.456 118.47L94.1524 118.506L94.456 118.468C94.4671 118.549 94.5785 118.961 94.708 119.437C97.3584 129.219 98.9675 138.947 99.4907 148.35C100.493 166.413 97.4859 181.877 90.5487 194.314Z" fill="white"/>
<path id="Vector131" d="M100.41 182.6L100.066 182.061C119.112 168.216 143.056 177.862 143.417 178.083L143.509 178.459L143.197 178.661L143.224 178.338L143.083 178.621C142.868 178.517 119.266 168.894 100.41 182.6ZM143.258 178.019L143.229 178.342L143.258 178.019Z" fill="white"/>
<path id="Vector130" d="M54.375 240.789C56.9273 235.226 59.0414 224.683 54.629 206.056C54.378 204.999 54.378 204.999 54.463 204.856L54.9792 205.201L54.7211 205.028H55.0247C55.0328 205.105 55.1198 205.474 55.221 205.902C59.6799 224.719 57.5213 235.418 54.9255 241.079L54.375 240.789Z" fill="white"/>
<path id="Vector129" d="M61.7156 231.521L61.248 231.103C68.1995 222.308 84.5059 221.17 93.6068 221.274C93.8962 221.274 94.0814 221.28 94.1502 221.274L94.1846 221.92C94.1118 221.92 93.9114 221.92 93.6007 221.92C84.603 221.821 68.5051 222.932 61.7156 231.521Z" fill="white"/>
</g>
</g>
<path id="Vector128" d="M219.098 191.307L35.8516 189.613V194.638C35.8516 196.002 36.651 197.162 37.7329 197.369L89.5473 207.263C90.1605 207.38 90.7855 207.411 91.4063 207.355L217.104 196.074C218.226 195.974 219.095 194.81 219.095 193.409L219.098 191.307Z" fill="url(#paint2_linear)"/>
<path id="Vector127" d="M160.109 183.166L37.8684 192.358C35.6804 192.523 33.9023 190.775 33.9023 188.455V95.4683C33.9056 94.3519 34.3251 93.2826 35.0687 92.4952C35.8123 91.7077 36.8193 91.2666 37.8684 91.2686H160.109C161.911 91.2686 163.367 92.9689 163.367 95.0677V179.126C163.367 181.221 161.911 183.031 160.109 183.166Z" fill="url(#paint3_linear)"/>
<path id="Vector126" d="M162.058 183.166L39.8176 192.358C37.6296 192.523 35.8516 190.775 35.8516 188.455V95.4683C35.8548 94.3519 36.2743 93.2826 37.0179 92.4952C37.7615 91.7077 38.7685 91.2666 39.8176 91.2686H162.058C163.86 91.2686 165.317 92.9689 165.317 95.0677V179.126C165.317 181.221 163.86 183.031 162.058 183.166Z" fill="url(#paint4_linear)"/>
<path id="Vector125" d="M158.249 177.241L44.3994 185.225C43.9852 185.261 43.5685 185.205 43.1761 185.06C42.7836 184.915 42.4239 184.684 42.1201 184.382C41.8163 184.08 41.5751 183.715 41.4118 183.308C41.2486 182.901 41.1669 182.463 41.1721 182.021V100.611C41.1721 99.6994 41.5118 98.8248 42.1167 98.1789C42.7216 97.533 43.5424 97.1685 44.3994 97.1654L158.249 96.6636C159.736 96.6571 160.938 98.0517 160.938 99.7768V173.927C160.938 175.653 159.736 177.136 158.249 177.241Z" fill="url(#paint5_linear)"/>
<path id="Vector124" d="M105.254 93.8087C105.254 94.6702 104.625 95.3744 103.848 95.3777C103.071 95.3809 102.439 94.6799 102.439 93.8141C102.439 92.9483 103.07 92.2451 103.848 92.2451C104.626 92.2451 105.254 92.944 105.254 93.8087Z" fill="white"/>
<path id="Vector123" d="M159.008 182.75L35.8477 192.425L89.5464 202.679C90.1596 202.796 90.7846 202.828 91.4054 202.773L219.099 191.307L160.967 182.811C160.318 182.717 159.661 182.697 159.008 182.75V182.75Z" fill="url(#paint6_linear)"/>
<path id="Vector122" style="mix-blend-mode:multiply" opacity="0.3" d="M53.8223 192.669L156.354 184.493L188.086 189.095L86.438 197.833L53.8223 192.669Z" fill="url(#paint7_linear)"/>
<g id="Vector121" style="mix-blend-mode:soft-light" opacity="0.7">
<path d="M132.606 157.663C123.182 152.268 115.772 159.104 108.622 152.359C104.286 148.267 106.416 145.22 101.08 139.114C95.1722 132.346 91.3256 134.62 85.3872 128.528C77.8791 120.826 81.6347 114.833 75.166 109.303C67.3199 102.594 58.8596 108.804 51.391 102.37C48.1688 99.5946 46.4019 95.5597 45.4789 91.2695H38.1723C37.8677 91.2694 37.566 91.3331 37.2846 91.457C37.0031 91.5809 36.7473 91.7626 36.5319 91.9917C36.3164 92.2208 36.1454 92.4928 36.0287 92.7922C35.912 93.0915 35.8519 93.4125 35.8518 93.7366V190.123C35.8476 190.44 35.9062 190.755 36.0236 191.047C36.141 191.339 36.3147 191.601 36.5334 191.817C36.7521 192.033 37.011 192.198 37.2933 192.301C37.5756 192.404 37.8751 192.442 38.1723 192.414L162.756 183.005C163.059 182.974 163.352 182.87 163.612 182.701C163.872 182.532 164.092 182.302 164.256 182.028C155.137 181.674 149.534 178.421 145.952 175.058C138.948 168.478 140.163 161.989 132.606 157.663Z" fill="#ECECEC"/>
</g>
<g id="upwards">
<path id="Vector120" opacity="0.8" d="M173.47 108.821L172.405 107.862C172.167 107.648 171.863 107.535 171.552 107.545C171.24 107.554 170.943 107.686 170.717 107.914L120.669 158.531L93.9131 134.438C93.6654 134.215 93.3471 134.102 93.0236 134.122C92.7001 134.143 92.3961 134.294 92.1744 134.545L39.6314 194.115C39.4101 194.377 39.2939 194.721 39.3078 195.072C39.3216 195.424 39.4645 195.756 39.7057 195.997C39.9469 196.238 40.2672 196.369 40.598 196.362C40.9288 196.354 41.2437 196.209 41.4753 195.958L93.1966 137.318L119.905 161.363C120.143 161.577 120.447 161.69 120.759 161.681C121.07 161.671 121.367 161.54 121.593 161.311L171.642 110.7L173.674 112.53L173.47 108.821Z" fill="white"/>
<path id="Vector119" d="M92.8416 144.499C96.2861 144.288 98.926 141.295 98.7379 137.814C98.5499 134.333 95.6051 131.682 92.1606 131.893C88.7161 132.103 86.0763 135.096 86.2643 138.577C86.4524 142.058 89.3972 144.71 92.8416 144.499Z" fill="white"/>
<path id="Vector118" d="M120.906 165.846C124.351 165.635 126.99 162.642 126.802 159.161C126.614 155.68 123.67 153.029 120.225 153.24C116.781 153.45 114.141 156.443 114.329 159.924C114.517 163.405 117.462 166.057 120.906 165.846Z" fill="white"/>
<path id="Vector117" d="M171.889 115.197C175.333 114.987 177.973 111.994 177.785 108.513C177.597 105.031 174.652 102.38 171.207 102.591C167.763 102.802 165.123 105.794 165.311 109.276C165.499 112.757 168.444 115.408 171.889 115.197Z" fill="white"/>
</g>
<path id="Vector116" d="M83.9613 53.5788C84.9966 52.8638 84.0534 50.7844 83.9968 46.3177C83.9289 40.8441 85.2951 39.8243 84.1992 37.6771C82.8572 35.0507 79.4792 33.9642 77.2417 33.9082C76.7478 33.8963 76.6345 33.6099 72.4974 34.7492C65.0481 36.8016 63.187 34.6017 59.8474 36.7952C56.6242 38.9198 58.0359 41.2458 54.9058 43.7365C49.8327 47.7736 44.4974 43.4134 40.8724 46.7861C37.4427 49.98 37.3638 58.1188 40.9736 62.5608C45.0591 67.6069 52.4335 66.095 57.3801 65.101C58.4205 64.8857 63.6728 63.7173 69.1416 59.4229C71.5802 57.5041 73.7441 55.2189 75.5658 52.6388C75.8755 52.2672 76.3592 51.8171 76.9988 51.745C77.7659 51.6577 78.3812 52.1574 78.6787 52.376C80.2331 53.5207 82.9433 54.2831 83.9613 53.5788Z" fill="url(#paint8_linear)"/>
<path id="Vector115" d="M79.7994 50.5811C81.1312 49.2889 85.8856 51.7785 89.036 55.0823C92.7379 58.9589 92.4535 62.1108 95.6838 66.9276C97.2898 69.3246 100.043 72.5519 104.921 75.3786L103.885 78.1343C101.527 78.285 96.8962 78.1967 92.5759 75.1956C89.5754 73.1097 88.031 70.3498 85.0649 64.9063C82.0886 59.451 78.1337 52.1963 79.7994 50.5811Z" fill="url(#paint9_linear)"/>
<path id="Vector114" d="M108.892 126.464L107.374 123.04C107.159 122.553 106.823 122.138 106.403 121.839L105.654 121.301C105.654 121.301 103.86 121.25 103.581 122.449C103.521 123.972 106.302 127.375 108.061 128.727C108.354 128.951 108.77 129.25 109.024 129.096C109.459 128.84 109.158 127.439 108.892 126.464Z" fill="url(#paint10_linear)"/>
<path id="Vector113" d="M106.049 119.442C105.81 120.912 106.112 121.677 106.438 122.106C106.666 122.409 108.525 125.668 107.761 126.198C107.417 126.436 105.056 123.317 104.827 122.839C104.624 122.409 104.485 122.509 104.472 121.332C104.466 120.723 104.374 120.119 104.199 119.54L106.049 119.442Z" fill="url(#paint11_linear)"/>
<g id="Leg">
<path id="Vector_2" d="M108.731 107.8C108.731 107.8 110.408 109.929 110.135 112.263C109.861 114.596 107.408 111.154 107 110C106.631 108.963 107 108 107 108C107 108 107.5 106.5 108.731 107.8Z" fill="url(#paint12_linear)"/>
<path id="Vector_3" d="M108.092 104.468C108.092 104.468 107.638 106.945 108.505 108.258C108.937 108.91 109.517 109.463 109.348 109.994C109.233 110.349 108.797 110.605 108.428 110.564C107.719 110.487 107.328 109.333 107.052 108.518C106.647 107.317 106.416 104.749 106.416 104.749L108.092 104.468Z" fill="url(#paint13_linear)"/>
<path id="Vector_4" d="M106.756 106.56L108.303 105.96C109.113 104.004 110.09 100.791 109.762 96.8895C108.919 86.8532 100.189 81.5325 99.2238 80.9629C96.8466 82.2325 94.4391 84.0222 94.352 86.2793C94.2427 89.1136 97.8697 90.6104 101.28 94.7541C103.326 97.2405 105.513 100.947 106.756 106.56Z" fill="url(#paint14_linear)"/>
</g>
<path id="Vector112" d="M106.199 120.591C107.903 113.509 107.468 107.729 106.976 104.4C106.234 99.3675 104.723 89.1321 98.3006 85.3157C96.8979 84.4822 94.8932 83.736 92.4492 81.4186C90.8156 79.8606 89.425 78.0363 88.3293 76.0139C79.7395 73.3337 71.8175 74.4202 68.3221 79.3209C67.9173 79.8873 66.9053 81.116 66.711 82.9273C66.2697 87.0193 70.0435 91.9351 74.2787 92.9635C79.6605 94.2686 82.7795 88.388 87.5521 90.3446C88.8859 90.8927 90.0163 92.2485 92.2782 94.961C94.285 97.3593 96.001 100.016 97.3857 102.869C99.2073 106.663 100.59 109.464 100.791 113.099C100.838 113.945 100.866 115.654 101.797 117.495C102.39 118.647 103.21 119.65 104.2 120.436L106.199 120.591Z" fill="url(#paint15_linear)"/>
<path id="Vector111" style="mix-blend-mode:multiply" opacity="0.3" d="M66.711 82.9272C66.9063 81.116 67.9183 79.8873 68.3221 79.3209C71.8175 74.4202 79.7395 73.3337 88.3293 76.0139C89.425 78.0363 90.8156 79.8605 92.4492 81.4186C94.8932 83.736 96.902 84.4822 98.3006 85.3157C102.222 87.646 104.311 92.3701 105.513 96.8379C103.729 93.8938 102.202 93.1109 101.02 93.0969C99.3277 93.0776 98.5718 94.6164 96.5518 94.4064C94.3932 94.1824 93.8994 92.2829 92.1496 92.0643C91.6254 91.9986 90.9808 92.0847 90.2066 92.523C89.1733 91.3718 88.4032 90.6924 87.5521 90.3413C82.7836 88.3847 79.6585 94.2653 74.2787 92.9602C70.0435 91.935 66.2697 87.0149 66.711 82.9272Z" fill="url(#paint16_linear)"/>
<path id="Vector110" d="M101.75 88.4826C100.324 88.4039 98.895 88.4399 97.4744 88.5903C88.9048 89.4916 86.5448 94.0025 79.4608 95.1031C77.7859 95.3637 70.3255 96.5223 67.0941 91.9339C64.7746 88.6388 65.1258 82.9616 67.6629 80.7293C68.7366 79.7838 69.8002 79.8108 76.6768 79.8765C79.2665 79.9012 81.8572 79.9109 84.4469 79.9454C95.4099 80.094 97.5068 79.2863 99.5014 81.2161C100.429 82.1152 101.791 84.0449 101.75 88.4826Z" fill="url(#paint17_linear)"/>
<path id="Vector109" d="M78.6055 51.0547C78.6055 51.0547 69.9519 48.3691 66.1407 52.9596C65.4414 53.8028 64.8879 54.9109 64.4861 57.0516C62.4348 67.9536 70.1938 74.4965 67.1365 80.2533C65.9221 82.5373 63.7848 83.2254 62.2648 87.3293C62.0077 88.0249 61.0777 90.5383 61.9308 91.3297C62.6827 92.0275 63.9194 90.5555 66.1164 90.8398C68.444 91.1402 68.9855 93.0419 70.551 92.7652C71.5711 92.5843 72.0103 91.6571 73.5142 89.3462C75.69 86.0004 76.7779 84.3281 77.5622 83.7412C80.6396 81.4271 83.0189 84.4444 86.5285 82.1529C87.7985 81.3237 92.5064 74.8734 91.1209 76.6459C87.8248 72.2696 87.0588 68.6589 86.9798 66.1488C86.8938 63.3964 87.6396 62.1462 86.9798 58.893C86.9798 58.893 86.2441 55.263 83.5916 52.1455C83.2061 51.6965 82.7517 51.2313 78.6055 51.0547Z" fill="url(#paint18_linear)"/>
<path id="Vector108" d="M75.827 45.0825C75.9444 45.6651 76.5405 48.7912 75.3382 49.5956C75.0781 49.7701 74.5772 49.8691 73.5753 50.0694C72.9206 50.1997 72.37 50.2848 71.9824 50.33C72.0546 51.1117 72.3281 51.8569 72.7728 52.4838C74.3667 54.6601 77.5626 54.099 78.018 54.0086C79.625 53.6974 81.2068 53.1686 81.5893 52.8456C82.1712 52.3535 82.6276 51.9841 82.8989 51.6104C82.2765 51.2874 81.0206 50.4463 80.1776 50.1707C79.6003 49.9813 79.013 49.8281 78.4187 49.7119C78.331 49.1075 78.2427 48.5033 78.1536 47.8996L75.827 45.0825Z" fill="url(#paint19_linear)"/>
<path id="Vector107" d="M75.7711 46.6398C75.7711 46.6398 75.9887 48.9313 78.0815 49.3319C79.9557 49.6937 81.3665 44.8749 80.4091 43.6247C80.0893 43.209 79.2959 42.8138 78.6148 42.8343C78.1331 42.8493 76.5068 43.5084 76.2801 45.2399C75.9563 44.877 75.5525 44.7726 75.3531 44.9244C75.1012 45.1171 75.2357 45.6782 75.2671 45.8052C75.3487 46.1328 75.525 46.4247 75.7711 46.6398Z" fill="url(#paint20_linear)"/>
<path id="Vector106" style="mix-blend-mode:multiply" opacity="0.3" d="M91.1169 76.6449C90.7212 76.1183 90.3629 75.6036 90.036 75.0996C88.5331 74.5543 86.9665 74.2329 85.3808 74.1444C82.5189 73.9969 80.9523 74.713 79.0053 73.466C76.794 72.05 77.1837 70.0836 75.0514 68.9874C72.8057 67.832 71.2179 69.1371 69.0573 68.716C67.7518 68.4608 66.162 67.5315 64.5408 64.8232C65.7805 71.3468 69.3882 76.016 67.1365 80.2523C65.9221 82.5363 63.7848 83.2244 62.2648 87.3283C62.0077 88.0239 61.0777 90.5373 61.9308 91.3288C62.6827 92.0266 63.9194 90.5545 66.1164 90.8388C68.444 91.1392 68.9855 93.0409 70.551 92.7642C71.5711 92.5833 72.0103 91.6561 73.5141 89.3452C75.6899 85.9994 76.7778 84.3271 77.5621 83.7402C80.6396 81.4261 83.0188 84.4434 86.5285 82.1519C87.7945 81.3227 92.5023 74.8724 91.1169 76.6449Z" fill="url(#paint21_linear)"/>
<path id="Vector105" d="M93.7254 77.7637L74.1452 78.777C74.0125 78.784 73.8834 78.8251 73.7688 78.8967C73.6543 78.9684 73.5577 79.0684 73.4874 79.1883L72.946 80.1144C72.8848 80.2187 72.8515 80.3387 72.8497 80.4615C72.8478 80.5844 72.8775 80.7055 72.9354 80.8118C72.9934 80.9181 73.0775 81.0056 73.1786 81.0648C73.2798 81.1241 73.3943 81.1529 73.5097 81.1482L94.2496 80.3072L93.7254 77.7637Z" fill="url(#paint22_linear)"/>
<path id="Vector104" d="M114.088 66.1618L93.8603 66.5785C93.5661 66.5846 93.2785 66.672 93.0257 66.8321C92.7728 66.9922 92.5635 67.2195 92.4182 67.4917L85.4121 80.6079L106.775 79.7023C107.064 79.6899 107.345 79.6014 107.594 79.4446C107.842 79.2878 108.05 79.0677 108.198 78.8042L114.688 67.2667C114.752 67.1551 114.786 67.0274 114.787 66.897C114.788 66.7666 114.757 66.6382 114.695 66.5253C114.634 66.4124 114.545 66.3191 114.439 66.2551C114.332 66.1912 114.211 66.1589 114.088 66.1618V66.1618Z" fill="url(#paint23_linear)"/>
<path id="Vector103" style="mix-blend-mode:multiply" opacity="0.3" d="M92.4182 67.4916C92.5635 67.2194 92.7728 66.992 93.0257 66.8319C93.2785 66.6718 93.5661 66.5845 93.8603 66.5784L94.3035 66.5698C94.3693 67.2644 94.5697 67.8997 94.9694 68.4134C96.2172 70.0146 98.2888 69.0272 99.8341 70.7221C101.53 72.585 99.9626 74.8011 101.48 76.537C103.077 78.3611 105.658 76.8762 108.626 78.0446L108.199 78.8048C108.051 79.0684 107.843 79.2884 107.595 79.4452C107.346 79.602 107.065 79.6905 106.776 79.7029L85.4121 80.6074L92.4182 67.4916Z" fill="url(#paint24_linear)"/>
<path id="Vector102" d="M75.7406 77.0669C75.9957 76.349 76.2504 75.6311 76.5047 74.9132C73.6883 74.0916 69.7931 72.878 65.7977 71.3596C65.1713 71.1217 64.4285 70.8266 64.1846 70.1267C63.5015 68.1603 67.845 66.124 69.533 61.835C71.0956 57.8658 70.2354 52.3588 68.4198 51.7063C64.6522 50.3548 51.2786 68.0677 56.0552 75.5345C58.7553 79.7557 67.0789 80.4277 75.7406 77.0669Z" fill="url(#paint25_linear)"/>
<path id="Vector101" d="M76.5083 74.9188C78.2773 73.9195 80.3934 74.9436 80.53 75.0125C81.0998 75.3003 81.6163 75.6945 82.0551 76.1766C82.1199 76.2702 82.887 77.4009 82.6077 77.7638C82.384 78.0535 81.5167 77.8133 80.4734 77.1177C79.8551 77.0253 79.2289 77.009 78.6072 77.0693C77.1752 77.2092 76.5205 77.6906 76.0003 77.276C75.6198 76.9713 75.4943 76.3284 75.6279 75.8514C75.7716 75.3431 76.2047 75.0879 76.5083 74.9188Z" fill="url(#paint26_linear)"/>
</g>
</g>
<defs>
<linearGradient id="paint0_linear" x1="204.599" y1="155.014" x2="-101.11" y2="147.944" gradientUnits="userSpaceOnUse">
<stop stop-color="#799B91"/>
<stop offset="1" stop-color="#3E6764"/>
</linearGradient>
<linearGradient id="paint1_linear" x1="185.107" y1="54.7157" x2="49.7119" y2="239.534" gradientUnits="userSpaceOnUse">
<stop stop-color="#46736E"/>
<stop offset="1" stop-color="#2F4F4F"/>
</linearGradient>
<linearGradient id="paint2_linear" x1="113.254" y1="198.807" x2="100.152" y2="203.979" gradientUnits="userSpaceOnUse">
<stop stop-color="#3B3138"/>
<stop offset="1" stop-color="#241F21"/>
</linearGradient>
<linearGradient id="paint3_linear" x1="122930" y1="154374" x2="106622" y2="163145" gradientUnits="userSpaceOnUse">
<stop stop-color="#3B3138"/>
<stop offset="1" stop-color="#241F21"/>
</linearGradient>
<linearGradient id="paint4_linear" x1="35.8516" y1="141.818" x2="165.317" y2="141.818" gradientUnits="userSpaceOnUse">
<stop stop-color="#5D535A"/>
<stop offset="1" stop-color="#464143"/>
</linearGradient>
<linearGradient id="paint5_linear" x1="67.898" y1="59.8258" x2="151.386" y2="240.117" gradientUnits="userSpaceOnUse">
<stop stop-color="#F3E9E1"/>
<stop offset="1" stop-color="#E1D1C5"/>
</linearGradient>
<linearGradient id="paint6_linear" x1="64954.3" y1="40950.4" x2="396774" y2="40950.4" gradientUnits="userSpaceOnUse">
<stop stop-color="#5D535A"/>
<stop offset="1" stop-color="#464143"/>
</linearGradient>
<linearGradient id="paint7_linear" x1="71459.5" y1="27073.3" x2="249590" y2="27073.3" gradientUnits="userSpaceOnUse">
<stop stop-color="#5D535A"/>
<stop offset="1" stop-color="#464143"/>
</linearGradient>
<linearGradient id="paint8_linear" x1="-163075" y1="17490.8" x2="-181949" y2="35915.2" gradientUnits="userSpaceOnUse">
<stop stop-color="#3B3138"/>
<stop offset="1" stop-color="#241F21"/>
</linearGradient>
<linearGradient id="paint9_linear" x1="104.988" y1="43.5676" x2="66.6166" y2="97.1016" gradientUnits="userSpaceOnUse">
<stop stop-color="#F6AF9A"/>
<stop offset="1" stop-color="#F89F8A"/>
</linearGradient>
<linearGradient id="paint10_linear" x1="-25742.5" y1="14801.3" x2="-26132.7" y2="14553.8" gradientUnits="userSpaceOnUse">
<stop stop-color="#3B3138"/>
<stop offset="1" stop-color="#241F21"/>
</linearGradient>
<linearGradient id="paint11_linear" x1="107.951" y1="129.277" x2="93.191" y2="87.6626" gradientUnits="userSpaceOnUse">
<stop stop-color="#E4D6CA"/>
<stop offset="0.59" stop-color="#D4BDAC"/>
</linearGradient>
<linearGradient id="paint12_linear" x1="-14625.8" y1="8045.76" x2="-14829.1" y2="8045.76" gradientUnits="userSpaceOnUse">
<stop stop-color="#3B3138"/>
<stop offset="1" stop-color="#241F21"/>
</linearGradient>
<linearGradient id="paint13_linear" x1="9799.28" y1="8548.81" x2="10493.8" y2="7537.16" gradientUnits="userSpaceOnUse">
<stop stop-color="#E4D6CA"/>
<stop offset="0.59" stop-color="#D4BDAC"/>
</linearGradient>
<linearGradient id="paint14_linear" x1="-51697.2" y1="26043.2" x2="-53897.3" y2="33734.6" gradientUnits="userSpaceOnUse">
<stop stop-color="#5D535A"/>
<stop offset="1" stop-color="#464143"/>
</linearGradient>
<linearGradient id="paint15_linear" x1="-139767" y1="63946.1" x2="-143701" y2="52918.5" gradientUnits="userSpaceOnUse">
<stop stop-color="#5D535A"/>
<stop offset="1" stop-color="#464143"/>
</linearGradient>
<linearGradient id="paint16_linear" x1="-133219" y1="30968.4" x2="-134273" y2="25146.5" gradientUnits="userSpaceOnUse">
<stop stop-color="#5D535A"/>
<stop offset="1" stop-color="#464143"/>
</linearGradient>
<linearGradient id="paint17_linear" x1="-128136" y1="15382.1" x2="-128509" y2="20406.1" gradientUnits="userSpaceOnUse">
<stop stop-color="#5D535A"/>
<stop offset="1" stop-color="#464143"/>
</linearGradient>
<linearGradient id="paint18_linear" x1="-108750" y1="30938" x2="-116355" y2="45569.5" gradientUnits="userSpaceOnUse">
<stop stop-color="#F6AF9A"/>
<stop offset="1" stop-color="#F89F8A"/>
</linearGradient>
<linearGradient id="paint19_linear" x1="76.0411" y1="57.7282" x2="79.6757" y2="42.2303" gradientUnits="userSpaceOnUse">
<stop stop-color="#FAEBD7"/>
<stop offset="1" stop-color="#E8D0BA"/>
</linearGradient>
<linearGradient id="paint20_linear" x1="4261.04" y1="4570.88" x2="4724.43" y2="3476.91" gradientUnits="userSpaceOnUse">
<stop stop-color="#FAEBD7"/>
<stop offset="1" stop-color="#E8D0BA"/>
</linearGradient>
<linearGradient id="paint21_linear" x1="-106200" y1="27257.9" x2="-114970" y2="27257.9" gradientUnits="userSpaceOnUse">
<stop stop-color="#F6AF9A"/>
<stop offset="1" stop-color="#F89F8A"/>
</linearGradient>
<linearGradient id="paint22_linear" x1="-105745" y1="3389.35" x2="-110271" y2="3389.35" gradientUnits="userSpaceOnUse">
<stop stop-color="#5D535A"/>
<stop offset="1" stop-color="#464143"/>
</linearGradient>
<linearGradient id="paint23_linear" x1="-141389" y1="12272" x2="-142983" y2="15487.7" gradientUnits="userSpaceOnUse">
<stop stop-color="#5D535A"/>
<stop offset="1" stop-color="#464143"/>
</linearGradient>
<linearGradient id="paint24_linear" x1="-111628" y1="11927.1" x2="-113358" y2="14765.2" gradientUnits="userSpaceOnUse">
<stop stop-color="#5D535A"/>
<stop offset="1" stop-color="#464143"/>
</linearGradient>
<linearGradient id="paint25_linear" x1="-79509.3" y1="26343.4" x2="-91132.9" y2="18673.7" gradientUnits="userSpaceOnUse">
<stop stop-color="#F6AF9A"/>
<stop offset="1" stop-color="#F89F8A"/>
</linearGradient>
<linearGradient id="paint26_linear" x1="-31779.8" y1="3259.67" x2="-31973.4" y2="3640.13" gradientUnits="userSpaceOnUse">
<stop stop-color="#FAEBD7"/>
<stop offset="1" stop-color="#E8D0BA"/>
</linearGradient>
</defs>
</svg>
