<svg width="188" height="29" viewBox="0 0 188 29" fill="none" xmlns="http://www.w3.org/2000/svg">
<path d="M17.9837 7.03175V0.341064H0V0.693206H1.99818V27.4559H0V28.1602H8.6588V27.4559H6.32758V14.4267H10.9467C11.6171 14.7789 12.0177 15.444 12.2522 16.0807C12.5876 17.0002 12.6885 17.9481 12.6885 17.9481H12.9882V10.5532H12.6885C12.6885 10.5532 12.5876 11.518 12.2522 12.4378C12.0177 13.109 11.6171 13.7224 10.9467 14.0746H6.32758V0.693206H14.3276C17.207 2.10177 17.7086 7.03175 17.7086 7.03175H17.9837Z" fill="#212348"/>
<path d="M34.8737 27.1395C33.6688 27.1395 34.0041 23.3977 34.0041 22.2993C34.0041 18.9737 34.1037 16.7823 34.1037 14.6956C34.1037 11.0843 32.1958 7.61963 25.3683 7.61963C23.6269 7.61963 18.673 7.7964 18.673 12.1858C18.673 13.7423 19.6105 15.1583 20.916 15.1583C21.9531 15.1583 22.9914 14.0631 22.9914 12.9648C22.9914 12.2932 22.6221 11.6566 22.0866 11.2301C21.2497 10.6276 20.8817 10.135 20.8817 9.74269C20.8817 8.71655 23.2925 7.97318 24.8654 7.97318C28.8488 7.97318 29.4782 9.70853 29.5465 12.8236C29.5465 13.9564 29.6401 15.265 29.6401 16.7517V16.9648C29.6401 16.9648 21.311 16.7517 18.6008 19.7949C17.5294 20.752 17.2307 25.2823 19.038 26.8039C22.3524 29.5996 28.7136 28.1498 29.4166 23.0515C29.4166 26.4497 29.5345 28.1991 33.5176 28.1991C35.7935 28.1991 37.1513 27.1036 37.1513 24.2865H36.7813C36.749 24.2872 37.1509 27.1395 34.8737 27.1395ZM29.049 22.7698C27.476 28.2921 24.196 27.4417 24.1294 27.335C22.0866 26.5222 23.0244 20.6805 23.0244 20.4703C23.0244 17.7782 29.3177 17.3546 29.3177 17.3546C29.3174 20.0435 29.1172 22.7698 29.049 22.7698Z" fill="#212348"/>
<path d="M39.2976 8.44076H41.6288V27.4564H39.2976V28.1607H47.9564V27.4564H45.9582V8.44076H47.9564V8.08862H39.2976V8.44076Z" fill="#212348"/>
<path d="M43.6214 4.86112C44.7251 4.86112 45.7965 3.72863 45.7965 2.5236C45.7965 1.35661 44.7251 0.224121 43.6214 0.224121C42.4835 0.224121 41.4121 1.35661 41.4121 2.5236C41.4124 3.72863 42.4835 4.86112 43.6214 4.86112Z" fill="#212348"/>
<path d="M64.2636 8.01116C60.7148 7.0889 58.6131 9.49544 57.614 12.7172V8.08863H50.9534V8.44077H53.2846V27.4564H50.9534V28.1607H59.6122V27.4564H57.614V14.0257L57.8365 12.8587C58.4732 10.4177 59.9222 9.21267 59.9888 9.10632C61.7632 7.69107 63.3748 8.18723 63.3748 8.18723C63.9786 8.36295 64.0635 9.00244 64.0635 9.00244C64.0635 10.4522 62.1156 9.95639 62.1156 11.9048C62.1156 12.9996 63.1836 14.1324 64.2203 14.1324C65.2591 14.1324 66.3847 12.9996 66.3847 11.9048C66.385 8.43479 64.2636 8.01116 64.2636 8.01116Z" fill="#212348"/>
<path d="M79.1334 11.0549C75.5863 9.56743 67.4844 5.21286 74.7151 1.35656C77.5935 -0.41295 83.3173 0.400144 85.9612 6.98554C86.2636 8.11837 86.3645 9.14522 86.3645 9.14522H86.588V0.293092C85.5889 3.51518 85.7444 2.73942 83.279 1.49777C83.279 1.49777 73.8756 -3.17409 69.3893 5.56746C69.1888 5.92207 68.8225 6.91299 68.8565 8.22155C68.7882 13.1786 72.706 15.7267 77.3924 17.0723C81.0407 18.6636 89.2736 22.9837 81.7784 26.8051C78.899 28.5746 72.8395 27.9284 70.1959 21.3466C69.8948 20.2137 69.7943 19.3577 69.7943 19.3577H69.6034V27.8657C70.9356 24.6465 70.6202 25.1768 73.2318 26.6642C73.2318 26.6642 82.6266 31.3361 87.1102 22.5945C87.3117 22.2399 87.6774 21.2487 87.6444 19.9373C87.5082 14.8418 84.0207 12.6832 79.1334 11.0549Z" fill="#212348"/>
<path d="M109.567 14.1696C109.567 10.6275 106.403 7.97302 103.122 7.97302C100.341 7.97302 97.5777 9.84923 96.5786 12.5755V0.693206H98.2438V0.341064H89.918V0.693206H92.2492V27.4559H89.585V28.1602H98.5768V27.4559H96.5786V13.7432C97.2447 10.6651 100.068 8.36249 102.98 8.29312C104.691 8.29312 105.237 11.3712 105.237 11.3712V27.4559H102.906V28.1602H111.565V27.4559H109.567V14.1696Z" fill="#212348"/>
<path d="M130.741 27.1395C129.537 27.1395 129.87 23.3977 129.87 22.2993C129.87 18.9737 129.973 16.7823 129.973 14.6956C129.973 11.0843 128.065 7.61963 121.235 7.61963C119.496 7.61963 114.54 7.7964 114.54 12.1858C114.54 13.7423 115.478 15.1583 116.781 15.1583C117.822 15.1583 118.858 14.0631 118.858 12.9648C118.858 12.2932 118.488 11.6566 117.953 11.2301C117.119 10.6276 116.748 10.135 116.748 9.74269C116.748 8.71655 119.158 7.97318 120.733 7.97318C124.718 7.97318 125.37 9.70853 125.435 12.8236C125.435 13.9564 125.552 15.265 125.552 16.7517V16.9648C125.552 16.9648 117.199 16.7517 114.489 19.7949C113.415 20.752 113.105 25.2823 114.915 26.8039C118.229 29.5996 124.586 28.1498 125.29 23.0515C125.29 26.4497 125.402 28.1991 129.387 28.1991C131.665 28.1991 133.015 27.1036 133.015 24.2865H132.65C132.617 24.2872 133.015 27.1395 130.741 27.1395ZM124.914 22.7698C123.344 28.2921 120.063 27.4417 119.997 27.335C117.953 26.5222 118.89 20.6805 118.89 20.4703C118.89 17.7782 125.181 17.3546 125.181 17.3546C125.181 20.0435 124.985 22.7698 124.914 22.7698Z" fill="#212348"/>
<path d="M148.528 8.01116C144.98 7.0889 142.87 9.49544 141.871 12.7172V8.08863H135.21V8.44077H137.542V27.4564H135.21V28.1607H143.869V27.4564H141.871V14.0257L142.101 12.8587C142.739 10.4177 144.192 9.21267 144.263 9.10632C146.035 7.69107 147.65 8.18723 147.65 8.18723C148.25 8.36295 148.34 9.00244 148.34 9.00244C148.34 10.4522 146.393 9.95639 146.393 11.9048C146.393 12.9996 147.458 14.1324 148.499 14.1324C149.535 14.1324 150.653 12.9996 150.653 11.9048C150.654 8.43479 148.528 8.01116 148.528 8.01116Z" fill="#212348"/>
<path d="M188 13.2595L186.681 0L176.787 8.28729C176.787 8.28729 179.562 7.2358 183.033 8.69895L178.288 19.7101L174.094 17.0831L174.006 17.4426C172.099 24.5844 167.3 27.8089 163.383 27.8089C163.378 27.8089 163.373 27.8089 163.368 27.8089C162.497 27.8089 161.679 27.5889 160.918 27.3177C159.22 25.95 158.149 22.5268 158.211 16.5404H171.436C170.869 11.6104 166.949 7.86965 162.229 7.86965C157.039 7.86965 152.858 12.383 152.858 17.9398C152.858 23.4537 156.976 27.9568 162.11 28.0255C162.517 28.0882 162.935 28.1614 163.366 28.1614C163.372 28.1614 163.377 28.1614 163.383 28.1614C167.428 28.1614 172.36 25.0038 174.396 17.8282L178.512 20.4774L183.492 8.91446C186.752 10.4861 188 13.2595 188 13.2595ZM161.226 8.3461C161.525 8.31159 161.863 8.28518 162.229 8.28518C162.567 8.28518 162.899 8.30736 163.27 8.34152C164.807 9.29829 165.979 12.3144 166.213 16.1879H158.249C158.516 12.3144 159.688 9.30252 161.226 8.3461Z" fill="#212348"/>
</svg>
