<svg width="82" height="16" viewBox="0 0 82 16" fill="none" xmlns="http://www.w3.org/2000/svg">
<path d="M7.23529 0.764648L8.85972 5.76411H14.1165L9.86367 8.85395L11.4881 13.8534L7.23529 10.7636L2.98249 13.8534L4.60692 8.85395L0.354121 5.76411H5.61087L7.23529 0.764648Z" fill="#2F4F4F"/>
<path d="M24.1181 0.764648L25.7425 5.76411H30.9993L26.7465 8.85395L28.3709 13.8534L24.1181 10.7636L19.8653 13.8534L21.4897 8.85395L17.2369 5.76411H22.4937L24.1181 0.764648Z" fill="#2F4F4F"/>
<path d="M41.0009 0.764648L42.6253 5.76411H47.8821L43.6293 8.85395L45.2537 13.8534L41.0009 10.7636L36.7481 13.8534L38.3725 8.85395L34.1197 5.76411H39.3765L41.0009 0.764648Z" fill="#2F4F4F"/>
<path d="M57.8818 0.764648L59.5062 5.76411H64.763L60.5102 8.85395L62.1346 13.8534L57.8818 10.7636L53.629 13.8534L55.2534 8.85395L51.0006 5.76411H56.2574L57.8818 0.764648Z" fill="#2F4F4F"/>
<path d="M74.7646 0.764648L76.389 5.76411H81.6458L77.393 8.85395L79.0174 13.8534L74.7646 10.7636L70.5118 13.8534L72.1362 8.85395L67.8834 5.76411H73.1402L74.7646 0.764648Z" fill="#2F4F4F"/>
</svg>
