<svg width="589" height="589" viewBox="0 0 589 589" fill="none" xmlns="http://www.w3.org/2000/svg">
<g clip-path="url(#clip0)">
<path d="M274.542 553.085C426.168 553.085 549.085 430.168 549.085 278.542C549.085 126.917 426.168 4 274.542 4C122.917 4 0 126.917 0 278.542C0 430.168 122.917 553.085 274.542 553.085Z" fill="#F9EFE4"/>
<path d="M358.194 544.914C351.47 525.48 344.452 495.776 351.569 462.531C359.724 424.371 379.032 416.45 395.819 375.517C422.749 309.879 401.019 262.16 416.418 257.386C432.446 252.42 472.826 298.894 472.568 349.281C472.319 395.944 437.292 428.775 433.835 431.923C407.161 456.203 385.903 451.468 369.052 474.395C352.853 496.445 354.62 525.144 358.194 544.914Z" fill="url(#paint0_linear)"/>
<g style="mix-blend-mode:soft-light" opacity="0.5">
<path d="M358.855 588.553C345.653 535.574 348.098 489.934 366.152 452.893C377.056 430.516 391.356 415.852 403.958 402.914C419.239 387.246 432.435 373.714 437.611 350.676C444.935 318.073 432.444 280.805 400.481 239.899L401 239.491C433.105 280.559 445.625 318.016 438.256 350.823C433.039 374.041 419.782 387.636 404.432 403.376C391.851 416.278 377.59 430.903 366.731 453.184C348.75 490.09 346.31 535.571 359.482 588.394L358.855 588.553Z" fill="white"/>
</g>
<g style="mix-blend-mode:soft-light" opacity="0.5">
<path d="M435.614 358.822L435.521 358.165C433.841 346.189 429.29 334.796 422.255 324.958C415.221 315.121 405.913 307.13 395.123 301.666L395.423 301.066C406.207 306.526 415.527 314.49 422.6 324.292C429.674 334.094 434.296 345.448 436.079 357.403C444.274 349.025 450.58 338.99 454.571 327.971C461.319 309.188 459.654 292.197 457.071 281.251L457.716 281.098C460.32 292.131 461.994 309.257 455.195 328.205C451.092 339.524 444.569 349.812 436.082 358.351L435.614 358.822Z" fill="white"/>
</g>
<g style="mix-blend-mode:soft-light" opacity="0.5">
<path d="M396.531 411.618L396.954 411.018C401.082 405.26 407.869 393.16 406.948 376.813C406.102 361.829 399.111 351.144 395.021 346.109L395.532 345.692C399.675 350.793 406.75 361.595 407.608 376.774C408.509 392.784 402.112 404.768 397.911 410.811C414.356 409.131 430.169 403.661 443.686 394.972C474.654 375.058 485.605 343.82 488.879 331.314L489.518 331.482C486.218 344.063 475.209 375.49 444.043 395.527C430.241 404.399 414.062 409.929 397.254 411.54L396.531 411.618Z" fill="white"/>
</g>
<g style="mix-blend-mode:soft-light" opacity="0.5">
<path d="M363.29 460.595L363.272 460.265C362.894 452.581 362.894 444.798 363.272 437.126C364.105 420.497 366.692 404.003 370.989 387.918L371.628 388.086C367.343 404.122 364.764 420.566 363.932 437.144C363.56 444.684 363.554 452.335 363.917 459.887C381.885 459.086 399.527 454.805 415.864 447.282C452.587 430.306 472.654 401.009 481.349 385.056L481.928 385.356C473.197 401.381 453.037 430.813 416.14 447.867C399.623 455.478 381.78 459.791 363.611 460.565L363.29 460.595Z" fill="white"/>
</g>
<path d="M359.038 536.282C355.179 522.447 351.449 500.576 360.781 479.672C377.055 443.174 414.753 450.597 445.661 410.034C470.586 377.329 459.211 355.228 488.267 332.127C509.115 315.55 536.524 309.792 540.446 315.817C544.646 322.292 517.198 335.425 504.704 367.89C488.444 410.133 517.063 434.371 499.75 460.856C486.581 481.001 465.113 474.493 418.312 497.189C396.935 507.581 377.008 520.723 359.038 536.282Z" fill="url(#paint1_linear)"/>
<path d="M359.038 536.282C355.179 522.447 351.449 500.576 360.781 479.672C377.055 443.174 414.753 450.597 445.661 410.034C470.586 377.329 459.211 355.228 488.267 332.127C509.115 315.55 536.524 309.792 540.446 315.817C544.646 322.292 517.198 335.425 504.704 367.89C488.444 410.133 517.063 434.371 499.75 460.856C486.581 481.001 465.113 474.493 418.312 497.189C396.935 507.581 377.008 520.723 359.038 536.282Z" fill="url(#paint2_linear)"/>
<g style="mix-blend-mode:soft-light" opacity="0.5">
<path d="M343.638 584.436H342.975C343.029 533.912 355.472 497.645 379.961 476.639C391.606 466.647 402.891 462.558 413.807 458.603C427.222 453.745 439.893 449.151 451.555 434.026C461.979 420.506 463.926 408.489 465.982 395.767C467.878 384.044 469.84 371.923 478.368 357.328C491.155 335.425 512.696 318.568 542.388 307.185L542.625 307.803C513.077 319.132 491.651 335.905 478.938 357.661C470.473 372.151 468.523 384.209 466.636 395.872C464.562 408.678 462.606 420.776 452.077 434.431C440.298 449.71 427.54 454.333 414.032 459.227C403.173 463.161 391.945 467.229 380.39 477.14C356.057 498.011 343.692 534.113 343.638 584.436Z" fill="white"/>
</g>
<g style="mix-blend-mode:soft-light" opacity="0.5">
<path d="M468.247 386.192L467.947 385.325C465.091 377.438 463.767 369.078 464.046 360.694C464.718 341.068 474.248 326.63 479.862 319.768L480.375 320.188C474.809 326.984 465.373 341.284 464.709 360.718C464.445 368.709 465.653 376.68 468.274 384.233C472.775 372.141 479.496 363.401 488.254 358.252C497.459 352.851 505.843 353.076 514.718 353.325C520.206 353.478 525.883 353.625 531.821 352.359C550.022 348.435 566.026 331.758 579.399 302.789L579.999 303.065C566.536 332.235 550.376 349.038 531.962 353.007C525.94 354.304 520.224 354.141 514.694 353.985C505.921 353.739 497.625 353.505 488.59 358.822C479.76 364.013 473.027 372.924 468.58 385.325L468.247 386.192Z" fill="white"/>
</g>
<g style="mix-blend-mode:soft-light" opacity="0.5">
<path d="M447.701 439.211L447.65 438.866C444.03 415.174 444.898 391.014 450.206 367.644L450.851 367.791C445.586 390.965 444.704 414.92 448.25 438.418C459.108 436.136 469.388 431.668 478.465 425.285C489.493 417.501 498.454 407.142 504.569 395.107L505.169 395.407C499.006 407.537 489.975 417.98 478.861 425.829C469.613 432.328 459.129 436.859 448.058 439.139L447.701 439.211Z" fill="white"/>
</g>
<g style="mix-blend-mode:soft-light" opacity="0.5">
<path d="M455.058 472.474C452.322 472.474 449.535 472.374 446.696 472.173C432.882 471.212 419.328 467.934 406.601 462.476L406.133 462.278L406.502 461.93C413.122 455.711 418.216 448.046 421.387 439.534C423.943 432.626 425.165 425.295 424.988 417.931H425.651C425.828 425.382 424.59 432.8 422.002 439.79C418.855 448.237 413.835 455.861 407.318 462.089C419.843 467.401 433.163 470.594 446.735 471.537C476.794 473.602 501.169 464.084 516.322 455.737L516.64 456.316C502.847 463.904 481.435 472.474 455.058 472.474Z" fill="white"/>
</g>
<g style="mix-blend-mode:soft-light" opacity="0.5">
<path d="M426.595 501.776C422.964 497.359 415.028 489.531 402.675 486.696C381.024 481.724 364.098 496.33 362.241 498.01L361.641 498.556L361.692 497.746C362.942 476.729 371.496 456.81 385.875 441.431L386.361 441.878C372.274 456.94 363.811 476.4 362.4 496.975C366.066 493.852 382.359 481.334 402.822 486.033C415.367 488.913 423.42 496.858 427.105 501.335L426.595 501.776Z" fill="white"/>
</g>
<path d="M348.528 575.565C333.354 561.242 313.154 537.879 304.288 504.987C294.099 467.237 308.153 451.464 304.603 407.35C298.92 336.605 256.872 303.785 268.795 292.584C281.207 280.928 339.798 304.232 362.899 349.341C384.284 391.12 367.339 436.219 365.624 440.587C352.386 474.287 330.68 479.638 325.832 507.702C321.175 534.691 336.09 559.522 348.528 575.565Z" fill="url(#paint3_linear)"/>
<g style="mix-blend-mode:soft-light" opacity="0.5">
<path d="M369.348 614.234C332.691 572.876 313.796 531.02 313.211 489.81C312.855 464.915 319.189 445.378 324.764 428.147C331.534 407.27 337.378 389.241 331.459 366.338C323.081 333.925 294.353 306.274 246.068 284.151L246.355 283.552C294.845 305.757 323.688 333.563 332.119 366.178C338.084 389.261 332.213 407.374 325.413 428.346C319.841 445.535 313.525 465.02 313.878 489.809C314.466 530.866 333.293 572.577 369.85 613.81L369.348 614.234Z" fill="white"/>
</g>
<g style="mix-blend-mode:soft-light" opacity="0.5">
<path d="M333.401 374.511L333.011 373.966C325.921 364.029 316.467 355.907 305.454 350.292C294.441 344.677 282.195 341.736 269.761 341.719L269.758 341.048C282.186 341.064 294.429 343.976 305.462 349.541C316.495 355.106 325.996 363.162 333.17 373.034C336.812 361.861 337.952 350.059 336.512 338.421C334.006 318.609 324.608 304.186 317.167 295.577L317.688 295.149C325.188 303.827 334.658 318.366 337.193 338.349C338.669 350.305 337.447 362.43 333.612 373.879L333.401 374.511Z" fill="white"/>
</g>
<g style="mix-blend-mode:soft-light" opacity="0.5">
<path d="M321.977 439.266L322.087 438.54C323.21 431.538 323.835 417.674 315.418 403.493C307.701 390.494 296.335 384.103 290.249 381.45L290.524 380.848C296.69 383.536 308.188 389.993 316.006 403.16C324.248 417.051 323.927 430.635 322.87 437.923C337.187 429.013 349.167 417.004 357.55 403.154C376.751 371.418 372.335 338.59 369.548 325.948L370.212 325.81C373.01 338.531 377.461 371.554 358.135 403.489C349.575 417.63 337.287 429.858 322.604 438.87L321.977 439.266Z" fill="white"/>
</g>
<g style="mix-blend-mode:soft-light" opacity="0.5">
<path d="M314.152 497.977L313.982 497.69C310.076 490.999 306.471 484.049 303.265 477.028C296.327 461.804 291.062 445.911 287.556 429.611L288.221 429.473C291.715 445.723 296.964 461.569 303.879 476.747C307.03 483.647 310.568 490.482 314.399 497.062C330.521 488.25 344.731 476.479 356.243 462.4C382.087 430.694 386.937 395.492 387.529 377.329L388.2 377.336C387.608 395.58 382.735 430.944 356.767 462.798C345.132 477.036 330.751 488.928 314.432 497.805L314.152 497.977Z" fill="white"/>
</g>
<path d="M345.303 567.477C335.353 556.862 321.8 539.013 320.682 516.142C318.716 476.219 356.757 465.861 366.339 415.714C374.069 375.28 353.392 360.669 369.363 326.95C380.82 302.753 403.312 285.262 409.702 288.875C416.557 292.764 397.445 316.859 401.014 351.477C405.656 396.525 443.151 405.273 439.527 436.723C436.77 460.645 414.05 464.507 381.603 505.861C366.795 524.773 354.591 545.487 345.303 567.477V567.477Z" fill="url(#paint4_linear)"/>
<path d="M345.303 567.477C335.353 556.862 321.8 539.013 320.682 516.142C318.716 476.219 356.757 465.861 366.339 415.714C374.069 375.28 353.392 360.669 369.363 326.95C380.82 302.753 403.312 285.262 409.702 288.875C416.557 292.764 397.445 316.859 401.014 351.477C405.656 396.525 443.151 405.273 439.527 436.723C436.77 460.645 414.05 464.507 381.603 505.861C366.795 524.773 354.591 545.487 345.303 567.477V567.477Z" fill="url(#paint5_linear)"/>
<g style="mix-blend-mode:soft-light" opacity="0.5">
<path d="M353.472 617.415L352.863 617.714C329.511 572.574 324.135 534.583 336.884 504.791C342.945 490.622 351.409 481.886 359.597 473.436C369.66 463.054 379.163 453.243 382.863 434.482C386.168 417.712 382.39 406.104 378.384 393.818C374.695 382.496 370.881 370.788 371.949 353.914C373.542 328.593 385.506 303.835 407.488 280.291L407.992 280.736C386.117 304.167 374.219 328.799 372.626 353.954C371.568 370.706 375.363 382.353 379.033 393.617C383.061 405.987 386.869 417.671 383.53 434.608C379.794 453.559 370.225 463.436 360.092 473.892C351.947 482.297 343.526 490.989 337.51 505.045C324.841 534.647 330.213 572.455 353.472 617.415Z" fill="white"/>
</g>
<g style="mix-blend-mode:soft-light" opacity="0.5">
<path d="M376.03 384.248L375.353 383.609C369.078 377.853 363.991 370.984 360.364 363.372C351.891 345.545 353.95 328.358 355.925 319.701L356.59 319.845C354.629 328.422 352.591 345.443 360.984 363.095C364.442 370.349 369.243 376.923 375.147 382.486C373.677 369.661 375.798 358.828 381.453 350.284C387.401 341.313 395.2 337.737 403.462 333.96C408.57 331.624 413.849 329.197 418.713 325.391C433.602 313.686 440.568 291.583 439.425 259.689L440.104 259.666C441.257 291.779 434.206 314.065 419.143 325.906C414.215 329.777 408.894 332.208 403.746 334.56C395.579 338.294 387.855 341.823 382.025 350.641C376.324 359.255 374.272 370.247 375.934 383.323L376.03 384.248Z" fill="white"/>
</g>
<g style="mix-blend-mode:soft-light" opacity="0.5">
<path d="M381.727 440.848L381.521 440.563C367.225 421.039 356.831 399.075 350.879 375.814L351.539 375.655C357.44 398.72 367.726 420.508 381.864 439.894C390.774 432.963 398.14 424.341 403.515 414.552C410.033 402.632 413.46 389.344 413.498 375.842L414.188 375.84C414.15 389.449 410.697 402.843 404.13 414.859C398.653 424.829 391.127 433.599 382.022 440.623L381.727 440.848Z" fill="white"/>
</g>
<g style="mix-blend-mode:soft-light" opacity="0.5">
<path d="M403.886 467.235C401.374 468.468 398.769 469.634 396.071 470.735C382.946 476.101 368.986 479.281 354.777 480.142L354.255 480.176L354.433 479.699C357.629 471.162 358.755 462.023 357.723 452.994C356.869 445.673 354.596 438.577 351.022 432.081L351.63 431.782C355.245 438.356 357.544 445.537 358.406 452.944C359.43 461.905 358.353 470.975 355.256 479.473C369.212 478.573 382.918 475.422 395.813 470.149C424.359 458.449 442.325 438.967 452.367 424.686L452.928 425.059C443.782 438.05 428.097 455.35 403.886 467.235Z" fill="white"/>
</g>
<g style="mix-blend-mode:soft-light" opacity="0.5">
<path d="M391.333 506.226C385.955 503.918 375.044 500.503 362.392 503.538C340.216 508.854 331.445 529.523 330.519 531.86L330.221 532.618L329.893 531.872C321.306 512.541 319.931 490.9 326.007 470.688L326.66 470.868C320.705 490.666 321.951 511.855 330.185 530.864C332.104 526.423 341.261 507.904 362.22 502.879C375.069 499.799 386.141 503.265 391.597 505.602L391.333 506.226Z" fill="white"/>
</g>
<path d="M357.252 524.367C368.166 514.97 380.165 506.911 392.993 500.363C430.37 481.328 449.309 488.472 469.727 470.803C494.832 449.079 489.953 417.736 498.193 417.937C510.309 418.238 534.66 486.318 504.974 514.777C485.963 533.005 451.583 528.46 444.565 527.343C427.952 524.703 423.445 518.828 406.607 516.635C386.131 513.955 368.588 519.479 357.252 524.367Z" fill="url(#paint6_linear)"/>
<g style="mix-blend-mode:soft-light">
<g style="mix-blend-mode:soft-light" opacity="0.5">
<path d="M348.052 530.227L347.65 529.705C369.815 512.56 391.964 504.06 413.466 504.393C425.062 504.582 434.073 507.24 442.024 509.587C452.487 512.674 461.527 515.342 472.449 510.844C486.401 505.104 497.052 490.258 502.453 469.039C511.107 435.04 491.952 406.662 485.876 398.774L486.401 398.369C492.525 406.317 511.821 434.914 503.095 469.201C497.64 490.627 486.845 505.635 472.695 511.456C461.554 516.041 452.412 513.346 441.829 510.223C433.92 507.889 424.954 505.242 413.451 505.056C392.117 504.714 370.091 513.178 348.052 530.227Z" fill="white"/>
</g>
<g style="mix-blend-mode:soft-light" opacity="0.5">
<path d="M495.224 488.77L495.347 488.115C497.193 478.433 497.193 468.489 495.347 458.807C493.271 448.012 488.974 437.766 482.73 428.718L483.274 428.343C489.571 437.466 493.904 447.798 495.996 458.684C497.815 468.227 497.857 478.023 496.119 487.581C501.348 484.881 508.42 480.005 513.575 471.679C524.575 453.934 518.199 434.404 516.81 430.669L517.431 430.441C518.838 434.224 525.298 454.021 514.13 472.027C508.69 480.803 501.165 485.829 495.809 488.473L495.224 488.77Z" fill="white"/>
</g>
<g style="mix-blend-mode:soft-light" opacity="0.5">
<path d="M481.244 525.843C473.838 525.861 466.476 524.713 459.428 522.441C450.096 519.398 441.481 514.486 434.11 508.005L433.354 507.348L434.353 507.426C448.869 508.594 462.467 502.125 469.83 490.546C477.697 478.178 475.096 464.895 474.112 461.117L474.754 460.949C475.753 464.793 478.396 478.307 470.388 490.903C463.487 501.776 451.161 508.221 437.701 508.224C436.901 508.224 436.101 508.201 435.301 508.155C442.437 514.261 450.706 518.901 459.635 521.811C484.838 529.972 507.6 521.267 516.22 517.148L516.505 517.748C510.408 520.658 497.296 525.843 481.244 525.843Z" fill="white"/>
</g>
<g style="mix-blend-mode:soft-light" opacity="0.5">
<path d="M444.438 542.043C440.891 534.455 432.436 520.55 415.781 512.704C408.707 509.387 401.034 507.542 393.226 507.279L393.205 506.622C406.518 505.323 416.207 501.557 422.01 495.427C422.532 494.875 423.21 494.113 424.227 492.958C425.598 491.404 427.674 489.058 430.864 485.547C434.053 482.036 437.231 478.604 440.432 475.213L440.912 475.666C437.717 479.057 434.5 482.529 431.353 485.991C428.205 489.454 426.093 491.842 424.722 493.396C423.696 494.557 423.018 495.322 422.49 495.884C417.116 501.563 408.501 505.248 396.854 506.859C403.51 507.487 410.007 509.262 416.057 512.107C432.916 520.04 441.447 534.094 445.029 541.764L444.438 542.043Z" fill="white"/>
</g>
</g>
<path d="M308.261 464.058C330.164 450.58 281.986 321.995 237.633 236.587C201.208 166.445 157.659 106.754 144.373 113.097C134.201 117.951 145.501 159.724 136.32 162.724C124.018 166.781 100.614 92.8346 75.6682 94.5418C60.2909 95.592 46.1347 125.24 44.8055 152.838C42.4051 202.63 82.1822 236.851 168.262 326.076C278.574 440.417 296.994 470.998 308.261 464.058Z" fill="url(#paint7_linear)"/>
<g style="mix-blend-mode:overlay" opacity="0.16">
<path d="M274.148 380.858C263.274 344.666 264.996 321.839 243.948 298.015C225.561 277.207 213.643 282.632 191.956 258.565C167.385 231.303 176.675 217.705 156.04 196.546C127.389 167.165 98.5216 182.143 74.2688 155.781C66.6117 147.464 58.8345 134.382 55.5099 112.743C49.599 123.859 45.4974 138.622 44.8133 152.85C42.4129 202.643 82.1901 236.863 168.27 326.088C278.582 440.405 296.99 471.01 308.269 464.058C309.982 463.005 311.269 461.246 312.154 458.861C291.493 428.913 280.476 401.939 274.148 380.858Z" fill="white"/>
</g>
<path d="M347.37 530.299C304.607 426.438 254.85 351.6 217.293 302.693C132.794 192.651 90.1849 187.973 71.411 188.828C46.3811 189.981 13.8861 203.27 8.23326 227.039C-2.34337 271.515 85.7202 333.016 75.4016 349.617C70.0608 358.21 45.676 343.034 35.3094 354.181C21.1352 369.423 46.2131 419.891 53.0122 432.067C105.451 526.266 288.344 530.626 347.37 530.299Z" fill="url(#paint8_linear)"/>
<g style="mix-blend-mode:overlay" opacity="0.16">
<path d="M261.314 449.295C220.976 421.691 208.605 423.951 187.257 398.888C147.891 352.654 163.97 314.425 127.101 284.45C100.811 263.078 84.7552 276.106 47.6485 253.227C32.5442 243.926 20.2753 232.557 10.3528 220.966C9.4428 222.918 8.73015 224.955 8.22545 227.048C-2.35118 271.524 85.7124 333.025 75.3938 349.626C70.053 358.219 45.6682 343.043 35.3016 354.19C21.1274 369.432 46.2053 419.9 53.0043 432.076C105.461 526.266 288.364 530.626 347.38 530.299C346.6 528.403 345.813 526.539 345.027 524.664C313.219 488.109 283.557 464.523 261.314 449.295Z" fill="white"/>
</g>
<path d="M273.441 522.558C273.441 522.558 272.738 528.147 273.21 530.02C273.681 531.892 289.934 533.245 295.452 532.594C300.97 531.943 292.151 526.308 288.65 525.252C285.148 524.196 273.441 522.558 273.441 522.558Z" fill="url(#paint9_linear)"/>
<path d="M281.624 513.233L279.911 524.448C279.911 524.448 275.542 526.411 273.442 524.469L273.211 512.731L281.624 513.233Z" fill="url(#paint10_linear)"/>
<path d="M189.997 512.731C189.997 512.731 193.445 515.291 192.524 518.354C191.602 521.418 183.558 533.701 177.821 537.185C172.084 540.668 173.882 533.41 175.553 528.886C177.224 524.361 181.485 514.399 183.15 512.731C184.815 511.063 189.997 512.731 189.997 512.731Z" fill="url(#paint11_linear)"/>
<path d="M196.2 500.408C194.532 505.056 192.93 508.876 191.675 511.693C188.9 517.928 187.385 520.268 185.674 522.297C184.174 524.061 180.631 527.832 179.674 527.205C178.716 526.578 181.3 521.985 186.299 508.563C187.025 506.616 189.317 500.408 189.317 500.408H196.2Z" fill="url(#paint12_linear)"/>
<path d="M315.649 306.24C317.401 323.457 317.61 340.795 316.273 358.049C314.05 386.715 308.316 404.856 301.127 435.419C296.734 454.097 290.817 481.59 285.459 515.972C282.556 517.648 279.178 518.311 275.857 517.857C273.8 517.545 271.832 516.797 270.087 515.663C256.033 472.718 260.186 446.104 266.967 429.52C269.856 422.454 273.361 416.876 275.236 406.011C277.714 391.639 274.636 383.604 270.279 350.305C267.162 326.574 267.702 322.905 269.775 319.346C278.068 305.118 303.413 305.397 315.649 306.24Z" fill="url(#paint13_linear)"/>
<path d="M267.284 311.248C258.673 355.711 250.223 379.058 243.826 392.26C239.219 401.583 235.272 411.219 232.013 421.094C227.612 434.432 225.776 444.243 224.836 448.561C221.866 462.189 214.53 482.091 194.79 508.192C194.544 508.336 191.189 510.241 187.961 508.543C186.767 507.895 185.802 506.894 185.197 505.678C187.778 480.72 190.742 459.749 193.299 443.568C193.836 440.174 196.212 425.322 199.939 405.702C201.397 398.024 203.539 386.772 206.095 375.217C209.282 360.815 214.167 341.249 221.698 317.792L267.284 311.248Z" fill="url(#paint14_linear)"/>
<path d="M274.617 135.357C279.498 130.856 288.842 125.642 293.52 113.547C294.93 109.904 299.929 97.0051 292.556 87.1426C288.182 81.2857 280.057 77.3071 272.894 78.7173C266.773 79.9175 265.816 84.1812 255.417 92.7625C251.369 96.099 244.861 101.464 237.618 104.464C225.211 109.565 217.758 104.764 205.3 105.313C189.998 105.989 172.22 114.531 163.657 126.95C148.453 148.991 170.477 171.357 153.824 197.161C148.369 205.622 145.681 203.726 132.758 220.102C119.835 236.479 113.348 244.706 114.5 254.745C116.096 268.689 131.117 282.011 145.261 282.917C159.063 283.817 167.857 272.931 174.893 277.687C179.898 281.069 177.036 287.652 182.352 295.561C189.206 305.762 202.678 307.791 204.856 308.118C225.049 311.163 252.263 287.484 263.842 259.426C284.704 208.829 248.072 159.895 274.617 135.357Z" fill="url(#paint15_linear)"/>
<path d="M343.207 150.933C338.004 142.387 328.882 127.85 310.862 120.361C292.898 112.893 276.356 116.853 265.306 119.194C236.831 125.228 219.099 142.315 212.423 149.499C217.889 153.057 232.97 163.919 240.441 184.52C242.766 190.929 249.631 212.841 239.811 233.364C234.155 245.192 224.145 254.068 216.542 260.816C205.14 270.93 199.238 272.484 195.416 281.546C191.251 291.414 195.446 296.224 190.276 302.981C184.725 310.236 178.22 306.864 168.811 314.2C159.173 321.701 162.603 327.9 153.829 336.202C141.084 348.27 124.185 344.352 123.399 349.782C122.718 354.454 134.72 360.785 144.936 363.353C165.141 368.454 182.766 359.9 188.005 357.269C202.515 349.98 200.007 345.267 211.072 339.704C229.597 330.402 242.256 340.751 284.449 341.819C307.297 342.398 318.849 342.527 325.177 334.795C330.959 327.735 327.919 319.991 324.451 286.611C322.801 270.726 322.203 254.746 320.988 238.822C318.09 200.875 317.556 192.078 319.287 186.527C319.554 185.669 319.734 183.686 320.487 183.581C321.138 183.485 322.726 184.652 327.763 202.88C333.704 224.381 333.899 231.468 340.965 238.213C344.074 241.181 347.227 244.193 350.222 243.434C361.107 240.677 366.379 189 343.207 150.933Z" fill="url(#paint16_linear)"/>
<g style="mix-blend-mode:multiply" opacity="0.3">
<path style="mix-blend-mode:multiply" opacity="0.3" d="M153.832 336.203C162.606 327.897 159.176 321.71 168.814 314.197C178.223 306.861 184.716 310.234 190.279 302.978C195.449 296.221 191.254 291.412 195.419 281.543C199.241 272.482 205.143 270.928 216.545 260.813C224.148 254.068 234.158 245.19 239.814 233.362C249.634 212.839 242.769 190.926 240.444 184.514C232.973 163.916 217.892 153.054 212.425 149.496C212.951 148.929 213.572 148.296 214.226 147.603C250.231 152.553 271.235 173.362 273.83 179.521C279.831 193.765 270.328 198.997 270.085 240.071C269.968 259.706 272.087 267.459 265.714 275.653C258.429 285.024 250.033 282.125 239.499 294.379C231.397 303.795 232.7 309.763 225.141 313.729C217.013 317.993 211.837 313.024 202.668 314.977C187.366 318.245 184.065 335.903 173.954 345.564C166.299 352.87 152.143 357.977 124.227 352.495C123.579 351.556 123.267 350.638 123.393 349.777C124.188 344.349 141.086 348.267 153.832 336.203Z" fill="url(#paint17_linear)"/>
</g>
<path d="M255.16 191.127C254.695 190.743 254.382 190.205 254.277 189.611C254.172 189.017 254.282 188.404 254.587 187.884C256.507 184.607 260.324 178.096 260.654 177.541C261.098 176.794 265.431 165.839 265.431 165.839C265.431 165.839 268.242 164.969 267.018 169.692L265.794 174.427C265.794 174.427 264.384 179.122 267.327 179.636C270.27 180.149 272.62 184.373 271.072 187.854L270.943 188.154C270.033 190.199 268.352 191.802 266.265 192.613L259.901 195.079L255.16 191.127Z" fill="url(#paint18_linear)"/>
<path d="M262.913 190.602C266.741 198.73 249.153 217.663 229.608 226.653C225.623 228.486 197.017 241.655 184.268 228.99C173.727 218.533 180.526 196.93 182.954 189.213C194.874 151.323 231.477 132.057 246.818 125.105C258.265 153.732 251.523 166.487 248.868 170.472C246.095 174.631 238.366 183.374 230.142 191.07C224.363 196.471 220.762 199.12 221.248 199.967C221.849 201.017 228.624 199.03 254.941 186.221C257.992 186.728 261.605 187.827 262.913 190.602Z" fill="url(#paint19_linear)"/>
<path d="M276.993 96.9365C276.993 96.9365 275.178 111.453 269.819 114.78C264.46 118.108 255.798 122.449 254.844 123.632C253.89 124.814 288.038 128.48 304.952 119.941C299.374 118.777 297.858 118.348 297.858 118.348C295.361 117.703 292.953 116.751 290.69 115.512C287.555 113.698 284.862 111.208 282.808 108.224L282.871 100.186L276.993 96.9365Z" fill="url(#paint20_linear)"/>
<path d="M276.179 102.076C276.179 102.076 279.672 106.877 285.15 104.876C290.056 103.075 287.128 90.4133 283.239 88.9731C281.94 88.49 279.558 88.7031 277.964 89.6962C276.842 90.3953 273.851 94.1129 275.564 98.2805C274.325 97.9205 273.236 98.2476 272.963 98.8597C272.615 99.6398 273.665 100.699 273.902 100.939C274.523 101.548 275.319 101.946 276.179 102.076Z" fill="url(#paint21_linear)"/>
</g>
<defs>
<linearGradient id="paint0_linear" x1="451.772" y1="304.283" x2="365.392" y2="443.376" gradientUnits="userSpaceOnUse">
<stop stop-color="#46736E"/>
<stop offset="1" stop-color="#2F4F4F"/>
</linearGradient>
<linearGradient id="paint1_linear" x1="501.931" y1="336.187" x2="394.457" y2="537.134" gradientUnits="userSpaceOnUse">
<stop stop-color="#FF9085"/>
<stop offset="1" stop-color="#FB6FBB"/>
</linearGradient>
<linearGradient id="paint2_linear" x1="354.936" y1="424.883" x2="540.875" y2="424.883" gradientUnits="userSpaceOnUse">
<stop stop-color="#799B91"/>
<stop offset="1" stop-color="#3E6764"/>
</linearGradient>
<linearGradient id="paint3_linear" x1="322.968" y1="318.531" x2="308.896" y2="481.722" gradientUnits="userSpaceOnUse">
<stop stop-color="#46736E"/>
<stop offset="1" stop-color="#2F4F4F"/>
</linearGradient>
<linearGradient id="paint4_linear" x1="383.784" y1="324.418" x2="378.508" y2="552.286" gradientUnits="userSpaceOnUse">
<stop stop-color="#FF9085"/>
<stop offset="1" stop-color="#FB6FBB"/>
</linearGradient>
<linearGradient id="paint5_linear" x1="289.941" y1="469.853" x2="458.672" y2="382.331" gradientUnits="userSpaceOnUse">
<stop stop-color="#799B91"/>
<stop offset="1" stop-color="#3E6764"/>
</linearGradient>
<linearGradient id="paint6_linear" x1="336844" y1="199879" x2="261722" y2="290090" gradientUnits="userSpaceOnUse">
<stop stop-color="#46736E"/>
<stop offset="1" stop-color="#2F4F4F"/>
</linearGradient>
<linearGradient id="paint7_linear" x1="-34469.9" y1="126322" x2="100366" y2="781131" gradientUnits="userSpaceOnUse">
<stop stop-color="#46736E"/>
<stop offset="1" stop-color="#2F4F4F"/>
</linearGradient>
<linearGradient id="paint8_linear" x1="-1239.3" y1="504047" x2="-351324" y2="157811" gradientUnits="userSpaceOnUse">
<stop stop-color="#799B91"/>
<stop offset="1" stop-color="#3E6764"/>
</linearGradient>
<linearGradient id="paint9_linear" x1="287.513" y1="486.6" x2="281.896" y2="587.722" gradientUnits="userSpaceOnUse">
<stop stop-color="#241F21"/>
<stop offset="1" stop-color="#3B3138"/>
</linearGradient>
<linearGradient id="paint10_linear" x1="281.624" y1="519.029" x2="273.211" y2="519.029" gradientUnits="userSpaceOnUse">
<stop stop-color="#71482F"/>
<stop offset="1" stop-color="#956F53"/>
</linearGradient>
<linearGradient id="paint11_linear" x1="-12420.3" y1="50765.1" x2="-11742.4" y2="59540.1" gradientUnits="userSpaceOnUse">
<stop stop-color="#241F21"/>
<stop offset="1" stop-color="#3B3138"/>
</linearGradient>
<linearGradient id="paint12_linear" x1="-11617.4" y1="55153" x2="-10684.9" y2="55153" gradientUnits="userSpaceOnUse">
<stop stop-color="#71482F"/>
<stop offset="1" stop-color="#956F53"/>
</linearGradient>
<linearGradient id="paint13_linear" x1="-56461.1" y1="428233" x2="-63864.6" y2="352130" gradientUnits="userSpaceOnUse">
<stop stop-color="#241F21"/>
<stop offset="1" stop-color="#3B3138"/>
</linearGradient>
<linearGradient id="paint14_linear" x1="-65238.7" y1="398746" x2="-69694.4" y2="327304" gradientUnits="userSpaceOnUse">
<stop stop-color="#241F21"/>
<stop offset="1" stop-color="#3B3138"/>
</linearGradient>
<linearGradient id="paint15_linear" x1="-111935" y1="272038" x2="-196533" y2="177119" gradientUnits="userSpaceOnUse">
<stop stop-color="#241F21"/>
<stop offset="1" stop-color="#3B3138"/>
</linearGradient>
<linearGradient id="paint16_linear" x1="123.96" y1="279.596" x2="660.71" y2="118.774" gradientUnits="userSpaceOnUse">
<stop stop-color="#F6AF9A"/>
<stop offset="1" stop-color="#F89F8A"/>
</linearGradient>
<linearGradient id="paint17_linear" x1="123348" y1="147859" x2="93541.7" y2="281974" gradientUnits="userSpaceOnUse">
<stop stop-color="#F6AF9A"/>
<stop offset="1" stop-color="#F89F8A"/>
</linearGradient>
<linearGradient id="paint18_linear" x1="20561.8" y1="29718.3" x2="22093.8" y2="28170.3" gradientUnits="userSpaceOnUse">
<stop stop-color="#71482F"/>
<stop offset="1" stop-color="#956F53"/>
</linearGradient>
<linearGradient id="paint19_linear" x1="58325" y1="114111" x2="215319" y2="77586.4" gradientUnits="userSpaceOnUse">
<stop stop-color="#F6AF9A"/>
<stop offset="1" stop-color="#F89F8A"/>
</linearGradient>
<linearGradient id="paint20_linear" x1="91056.9" y1="3765.52" x2="93240.8" y2="6173.45" gradientUnits="userSpaceOnUse">
<stop stop-color="#71482F"/>
<stop offset="1" stop-color="#956F53"/>
</linearGradient>
<linearGradient id="paint21_linear" x1="33087.9" y1="12402.5" x2="34855" y2="12965.9" gradientUnits="userSpaceOnUse">
<stop stop-color="#71482F"/>
<stop offset="1" stop-color="#956F53"/>
</linearGradient>
<clipPath id="clip0">
<rect width="589" height="589" fill="white"/>
</clipPath>
</defs>
</svg>
