<svg width="188" height="29" viewBox="0 0 188 29" fill="none" xmlns="http://www.w3.org/2000/svg">
<path d="M17.9837 7.0315V0.34082H0V0.692962H1.99818V27.4557H0V28.16H8.6588V27.4557H6.32758V14.4265H10.9467C11.6171 14.7786 12.0177 15.4438 12.2522 16.0805C12.5876 16.9999 12.6885 17.9479 12.6885 17.9479H12.9882V10.5529H12.6885C12.6885 10.5529 12.5876 11.5178 12.2522 12.4376C12.0177 13.1088 11.6171 13.7222 10.9467 14.0743H6.32758V0.692962H14.3276C17.207 2.10153 17.7086 7.0315 17.7086 7.0315H17.9837Z" fill="white"/>
<path d="M34.8737 27.1395C33.6688 27.1395 34.0041 23.3977 34.0041 22.2993C34.0041 18.9737 34.1037 16.7823 34.1037 14.6956C34.1037 11.0843 32.1958 7.61963 25.3683 7.61963C23.6269 7.61963 18.673 7.7964 18.673 12.1858C18.673 13.7423 19.6105 15.1583 20.916 15.1583C21.9531 15.1583 22.9914 14.0631 22.9914 12.9648C22.9914 12.2932 22.6221 11.6566 22.0866 11.2301C21.2497 10.6276 20.8817 10.135 20.8817 9.74269C20.8817 8.71655 23.2925 7.97318 24.8654 7.97318C28.8488 7.97318 29.4782 9.70853 29.5465 12.8236C29.5465 13.9564 29.6401 15.265 29.6401 16.7517V16.9648C29.6401 16.9648 21.311 16.7517 18.6008 19.7949C17.5294 20.752 17.2307 25.2823 19.038 26.8039C22.3524 29.5996 28.7136 28.1498 29.4166 23.0515C29.4166 26.4497 29.5345 28.1991 33.5176 28.1991C35.7935 28.1991 37.1513 27.1036 37.1513 24.2865H36.7813C36.749 24.2872 37.1509 27.1395 34.8737 27.1395ZM29.049 22.7698C27.476 28.2921 24.196 27.4417 24.1294 27.335C22.0866 26.5222 23.0244 20.6805 23.0244 20.4703C23.0244 17.7782 29.3177 17.3546 29.3177 17.3546C29.3174 20.0435 29.1172 22.7698 29.049 22.7698Z" fill="white"/>
<path d="M39.2976 8.44101H41.6288V27.4566H39.2976V28.1609H47.9564V27.4566H45.9582V8.44101H47.9564V8.08887H39.2976V8.44101Z" fill="white"/>
<path d="M43.6214 4.86112C44.7251 4.86112 45.7965 3.72863 45.7965 2.5236C45.7965 1.35661 44.7251 0.224121 43.6214 0.224121C42.4835 0.224121 41.4121 1.35661 41.4121 2.5236C41.4124 3.72863 42.4835 4.86112 43.6214 4.86112Z" fill="white"/>
<path d="M64.2636 8.01141C60.7148 7.08915 58.6131 9.49568 57.614 12.7174V8.08888H50.9534V8.44102H53.2846V27.4566H50.9534V28.1609H59.6122V27.4566H57.614V14.026L57.8365 12.859C58.4732 10.4179 59.9222 9.21291 59.9888 9.10657C61.7632 7.69131 63.3748 8.18748 63.3748 8.18748C63.9786 8.36319 64.0635 9.00268 64.0635 9.00268C64.0635 10.4524 62.1156 9.95663 62.1156 11.905C62.1156 12.9998 63.1836 14.1327 64.2203 14.1327C65.2591 14.1327 66.3847 12.9998 66.3847 11.905C66.385 8.43503 64.2636 8.01141 64.2636 8.01141Z" fill="white"/>
<path d="M79.1334 11.0546C75.5863 9.56719 67.4844 5.21261 74.7151 1.35631C77.5935 -0.413195 83.3173 0.399899 85.9612 6.98529C86.2636 8.11813 86.3645 9.14497 86.3645 9.14497H86.588V0.292848C85.5889 3.51494 85.7444 2.73917 83.279 1.49752C83.279 1.49752 73.8756 -3.17433 69.3893 5.56722C69.1888 5.92182 68.8225 6.91275 68.8565 8.22131C68.7882 13.1784 72.706 15.7265 77.3924 17.072C81.0407 18.6633 89.2736 22.9834 81.7784 26.8049C78.899 28.5744 72.8395 27.9282 70.1959 21.3463C69.8948 20.2135 69.7943 19.3574 69.7943 19.3574H69.6034V27.8655C70.9356 24.6462 70.6202 25.1765 73.2318 26.664C73.2318 26.664 82.6266 31.3359 87.1102 22.5943C87.3117 22.2397 87.6774 21.2484 87.6444 19.937C87.5082 14.8416 84.0207 12.6829 79.1334 11.0546Z" fill="white"/>
<path d="M109.567 14.1694C109.567 10.6272 106.403 7.97278 103.122 7.97278C100.341 7.97278 97.5777 9.84898 96.5786 12.5753V0.692962H98.2438V0.34082H89.918V0.692962H92.2492V27.4557H89.585V28.16H98.5768V27.4557H96.5786V13.743C97.2447 10.6649 100.068 8.36225 102.98 8.29287C104.691 8.29287 105.237 11.3709 105.237 11.3709V27.4557H102.906V28.16H111.565V27.4557H109.567V14.1694Z" fill="white"/>
<path d="M130.741 27.1395C129.537 27.1395 129.87 23.3977 129.87 22.2993C129.87 18.9737 129.973 16.7823 129.973 14.6956C129.973 11.0843 128.065 7.61963 121.235 7.61963C119.496 7.61963 114.54 7.7964 114.54 12.1858C114.54 13.7423 115.478 15.1583 116.781 15.1583C117.822 15.1583 118.858 14.0631 118.858 12.9648C118.858 12.2932 118.488 11.6566 117.953 11.2301C117.119 10.6276 116.748 10.135 116.748 9.74269C116.748 8.71655 119.158 7.97318 120.733 7.97318C124.718 7.97318 125.37 9.70853 125.435 12.8236C125.435 13.9564 125.552 15.265 125.552 16.7517V16.9648C125.552 16.9648 117.199 16.7517 114.489 19.7949C113.415 20.752 113.105 25.2823 114.915 26.8039C118.229 29.5996 124.586 28.1498 125.29 23.0515C125.29 26.4497 125.402 28.1991 129.387 28.1991C131.665 28.1991 133.015 27.1036 133.015 24.2865H132.65C132.617 24.2872 133.015 27.1395 130.741 27.1395ZM124.914 22.7698C123.344 28.2921 120.063 27.4417 119.997 27.335C117.953 26.5222 118.89 20.6805 118.89 20.4703C118.89 17.7782 125.181 17.3546 125.181 17.3546C125.181 20.0435 124.985 22.7698 124.914 22.7698Z" fill="white"/>
<path d="M148.528 8.01141C144.98 7.08915 142.87 9.49568 141.871 12.7174V8.08888H135.21V8.44102H137.542V27.4566H135.21V28.1609H143.869V27.4566H141.871V14.026L142.101 12.859C142.739 10.4179 144.192 9.21291 144.263 9.10657C146.035 7.69131 147.65 8.18748 147.65 8.18748C148.25 8.36319 148.34 9.00268 148.34 9.00268C148.34 10.4524 146.393 9.95663 146.393 11.905C146.393 12.9998 147.458 14.1327 148.499 14.1327C149.535 14.1327 150.653 12.9998 150.653 11.905C150.654 8.43503 148.528 8.01141 148.528 8.01141Z" fill="white"/>
<path d="M188 13.2595L186.681 0L176.787 8.28729C176.787 8.28729 179.562 7.2358 183.033 8.69895L178.288 19.7101L174.094 17.0831L174.006 17.4426C172.099 24.5844 167.3 27.8089 163.383 27.8089C163.378 27.8089 163.373 27.8089 163.368 27.8089C162.497 27.8089 161.679 27.5889 160.918 27.3177C159.22 25.95 158.149 22.5268 158.211 16.5404H171.436C170.869 11.6104 166.949 7.86965 162.229 7.86965C157.039 7.86965 152.858 12.383 152.858 17.9398C152.858 23.4537 156.976 27.9568 162.11 28.0255C162.517 28.0882 162.935 28.1614 163.366 28.1614C163.372 28.1614 163.377 28.1614 163.383 28.1614C167.428 28.1614 172.36 25.0038 174.396 17.8282L178.512 20.4774L183.492 8.91446C186.752 10.4861 188 13.2595 188 13.2595ZM161.226 8.3461C161.525 8.31159 161.863 8.28518 162.229 8.28518C162.567 8.28518 162.899 8.30736 163.27 8.34152C164.807 9.29829 165.979 12.3144 166.213 16.1879H158.249C158.516 12.3144 159.688 9.30252 161.226 8.3461Z" fill="white"/>
</svg>
