<svg width="2949" height="455" viewBox="0 0 2949 455" fill="none" xmlns="http://www.w3.org/2000/svg">
<path d="M282.095 110.321V5.34668H0V10.8717H31.3438V430.77H0V441.82H135.823V430.77H99.2555V226.346H171.712C182.228 231.87 188.512 242.307 192.19 252.297C197.451 266.722 199.034 281.596 199.034 281.596H203.735V165.571H199.034C199.034 165.571 197.451 180.71 192.19 195.141C188.512 205.672 182.228 215.296 171.712 220.82H99.2555V10.8717H224.745C269.912 32.9716 277.78 110.321 277.78 110.321H282.095Z" fill="#18191A"/>
<path d="M547.035 425.815C528.134 425.815 533.394 367.108 533.394 349.874C533.394 297.697 534.956 263.314 534.956 230.575C534.956 173.915 505.029 119.555 397.931 119.555C370.615 119.555 292.908 122.329 292.908 191.197C292.908 215.618 307.613 237.834 328.092 237.834C344.36 237.834 360.647 220.651 360.647 203.419C360.647 192.882 354.854 182.894 346.454 176.202C333.326 166.749 327.554 159.02 327.554 152.865C327.554 136.765 365.37 125.102 390.043 125.102C452.527 125.102 462.4 152.329 463.471 201.204C463.471 218.977 464.939 239.508 464.939 262.834V266.178C464.939 266.178 334.288 262.834 291.775 310.581C274.969 325.598 270.283 396.676 298.633 420.55C350.623 464.413 450.406 441.666 461.433 361.676C461.433 414.992 463.283 442.44 525.763 442.44C561.463 442.44 582.761 425.252 582.761 381.053H576.957C576.451 381.064 582.755 425.815 547.035 425.815ZM455.667 357.256C430.993 443.899 379.542 430.557 378.498 428.883C346.454 416.13 361.164 324.476 361.164 321.178C361.164 278.94 459.882 272.294 459.882 272.294C459.877 314.481 456.737 357.256 455.667 357.256Z" fill="#18191A"/>
<path d="M616.426 132.437H652.994V430.785H616.426V441.835H752.25V430.785H720.906V132.437H752.25V126.912H616.426V132.437Z" fill="#18191A"/>
<path d="M684.252 76.2641C701.565 76.2641 718.371 58.4958 718.371 39.5893C718.371 21.2796 701.565 3.51123 684.252 3.51123C666.403 3.51123 649.597 21.2796 649.597 39.5893C649.601 58.4958 666.403 76.2641 684.252 76.2641Z" fill="#18191A"/>
<path d="M1008.05 125.696C952.385 111.226 919.417 148.984 903.745 199.531V126.911H799.266V132.436H835.834V430.784H799.266V441.834H935.09V430.784H903.745V220.063L907.236 201.753C917.223 163.453 939.952 144.547 940.997 142.879C968.831 120.674 994.11 128.458 994.11 128.458C1003.58 131.215 1004.91 141.249 1004.91 141.249C1004.91 163.994 974.358 156.216 974.358 186.785C974.358 203.962 991.111 221.737 1007.37 221.737C1023.67 221.737 1041.32 203.962 1041.32 186.785C1041.33 132.342 1008.05 125.696 1008.05 125.696Z" fill="#18191A"/>
<path d="M1241.3 173.438C1185.66 150.101 1058.57 81.7788 1172 21.2748C1217.15 -6.48815 1306.93 6.26902 1348.4 109.592C1353.15 127.365 1354.73 143.476 1354.73 143.476H1358.24V4.58942C1342.56 55.1429 1345 42.9714 1306.33 23.4903C1306.33 23.4903 1158.83 -49.8094 1088.46 87.3425C1085.31 92.9061 1079.56 108.453 1080.1 128.984C1079.03 206.759 1140.48 246.738 1213.99 267.849C1271.22 292.815 1400.36 360.596 1282.79 420.554C1237.63 448.317 1142.58 438.179 1101.11 334.911C1096.38 317.138 1094.81 303.706 1094.81 303.706H1091.81V437.195C1112.71 386.685 1107.76 395.005 1148.73 418.344C1148.73 418.344 1296.1 491.644 1366.43 354.492C1369.59 348.928 1375.33 333.375 1374.81 312.799C1372.67 232.854 1317.97 198.985 1241.3 173.438Z" fill="#18191A"/>
<path d="M1718.69 222.312C1718.69 166.736 1669.06 125.089 1617.59 125.089C1573.97 125.089 1530.62 154.526 1514.95 197.301V10.8717H1541.07V5.34668H1410.47V10.8717H1447.04V430.77H1405.25V441.82H1546.29V430.77H1514.95V215.622C1525.4 167.328 1569.68 131.2 1615.36 130.112C1642.2 130.112 1650.77 178.405 1650.77 178.405V430.77H1614.2V441.82H1750.03V430.77H1718.69V222.312Z" fill="#18191A"/>
<path d="M2050.83 425.815C2031.94 425.815 2037.16 367.108 2037.16 349.874C2037.16 297.697 2038.78 263.314 2038.78 230.575C2038.78 173.915 2008.85 119.555 1901.71 119.555C1874.44 119.555 1796.69 122.329 1796.69 191.197C1796.69 215.618 1811.41 237.834 1831.85 237.834C1848.18 237.834 1864.43 220.651 1864.43 203.419C1864.43 192.882 1858.62 182.894 1850.23 176.202C1837.15 166.749 1831.33 159.02 1831.33 152.865C1831.33 136.765 1869.13 125.102 1893.84 125.102C1956.35 125.102 1966.58 152.329 1967.6 201.204C1967.6 218.977 1969.43 239.508 1969.43 262.834V266.178C1969.43 266.178 1838.4 262.834 1795.89 310.581C1779.05 325.598 1774.19 396.676 1802.58 420.55C1854.56 464.413 1954.28 441.666 1965.32 361.676C1965.32 414.992 1967.08 442.44 2029.59 442.44C2065.32 442.44 2086.5 425.252 2086.5 381.053H2080.77C2080.25 381.064 2086.5 425.815 2050.83 425.815ZM1959.42 357.256C1934.8 443.899 1883.33 430.557 1882.29 428.883C1850.23 416.13 1864.93 324.476 1864.93 321.178C1864.93 278.94 1963.61 272.294 1963.61 272.294C1963.61 314.481 1960.54 357.256 1959.42 357.256Z" fill="#18191A"/>
<path d="M2329.84 125.696C2274.18 111.226 2241.08 148.984 2225.41 199.531V126.911H2120.93V132.436H2157.51V430.784H2120.93V441.834H2256.75V430.784H2225.41V220.063L2229.02 201.753C2239.03 163.453 2261.82 144.547 2262.93 142.879C2290.73 120.674 2316.06 128.458 2316.06 128.458C2325.47 131.215 2326.89 141.249 2326.89 141.249C2326.89 163.994 2296.35 156.216 2296.35 186.785C2296.35 203.962 2313.05 221.737 2329.38 221.737C2345.63 221.737 2363.17 203.962 2363.17 186.785C2363.18 132.342 2329.84 125.696 2329.84 125.696Z" fill="#18191A"/>
<path d="M2949 208.037L2928.31 0L2773.11 130.025C2773.11 130.025 2816.64 113.527 2871.09 136.484L2796.65 309.245L2730.87 268.028L2729.49 273.668C2699.57 385.721 2624.3 436.312 2562.85 436.312C2562.77 436.312 2562.7 436.312 2562.62 436.312C2548.95 436.312 2536.12 432.86 2524.19 428.605C2497.55 407.147 2480.75 353.438 2481.72 259.513H2689.17C2680.28 182.163 2618.79 123.472 2544.75 123.472C2463.34 123.472 2397.76 194.285 2397.76 281.469C2397.76 367.98 2462.35 438.633 2542.88 439.71C2549.27 440.694 2555.82 441.843 2562.59 441.843C2562.68 441.843 2562.76 441.843 2562.85 441.843C2626.3 441.843 2703.67 392.301 2735.6 279.718L2800.17 321.283L2878.29 139.865C2929.42 164.523 2949 208.037 2949 208.037ZM2529.02 130.947C2533.71 130.406 2539.01 129.992 2544.75 129.992C2550.05 129.992 2555.26 130.34 2561.08 130.876C2585.19 145.887 2603.57 193.209 2607.24 253.983H2482.32C2486.51 193.209 2504.89 145.953 2529.02 130.947Z" fill="#18191A"/>
</svg>
