<svg width="2500" height="2500" viewBox="0 0 2500 2500" fill="none" xmlns="http://www.w3.org/2000/svg">
<path d="M1947 1909.61C1899.84 1958.21 1857.65 1986.79 1825.34 2008.36C1510.29 2218.72 1150.15 2158.09 1038.8 2137.36C859.16 2103.93 707.51 2080.36 577.23 1962.63C281.17 1695.15 295.57 1137.18 521.79 791.54C548.61 750.54 774.5 415.73 1135.42 368.54C1144.24 367.38 1150.83 366.73 1156.6 366.12C1212.43 360.2 1558.42 329 1840.54 565.36C1904.82 619.393 1960.65 682.741 2006.18 753.3C2226.58 1093.64 2227.28 1620.74 1947 1909.61Z" fill="#F9EFE4"/>
<path d="M691.85 1098.63C669.35 1132.74 680.02 1171.84 691.85 1198.86C695.55 1199.44 697.55 1200.79 701.15 1202.26C733.68 1215.56 750.15 1213.76 784.15 1221.41C791.46 1223.06 814.24 1220.85 823.49 1219.31L840.69 1216.13C840.69 1216.13 883.13 1131.32 841.23 1099.82C799.33 1068.32 830.15 982.21 841.23 934.38C871.36 804.61 727.64 795.2 753.03 625.38C759.78 580.21 787.77 496.31 755.1 454.61C717.88 407.1 680.15 442.54 657.41 404.07C621.87 343.94 554.01 314.07 503.54 362.86C453.68 411 488 526.91 600.6 632.88C672.8 718.05 670.82 740 656.31 792C646.15 828.42 596.2 919.77 640.77 966C685.34 1012.23 717.56 1059.64 691.85 1098.63Z" fill="url(#paint0_linear)"/>
<g style="mix-blend-mode:soft-light" opacity="0.5">
<g style="mix-blend-mode:soft-light" opacity="0.5">
<path d="M766 1220.1L768.55 1220.17C768.94 1204.95 769.14 1189.61 769.15 1174.55C769.22 1063.08 758.88 955.64 738.41 855.21C721.08 770.12 696.24 688.85 664.61 613.67C639.17 553.21 609.21 496.35 575.61 444.67C553.045 409.784 527.979 376.58 500.61 345.32C496.07 340.16 491.13 335.14 486.36 330.32C480 323.8 473.43 317.11 467.73 310L465.73 311.61C471.5 318.77 478.12 325.5 484.53 332.02C489.28 336.85 494.19 341.84 498.68 346.95C525.95 378.122 550.925 411.229 573.41 446.01C606.97 497.57 636.85 554.31 662.24 614.62C693.8 689.62 718.59 770.75 735.89 855.68C756.32 955.94 766.64 1063.21 766.58 1174.51C766.59 1189.58 766.39 1204.91 766 1220.1Z" fill="#FCFDFE"/>
</g>
<g style="mix-blend-mode:soft-light" opacity="0.5">
<path d="M697 707.71L699.45 706.98C668.16 601.91 735.87 426.68 736.56 424.92L734.18 423.99C733.45 425.76 665.42 601.8 697 707.71Z" fill="#FCFDFE"/>
</g>
<g style="mix-blend-mode:soft-light" opacity="0.5">
<path d="M758.7 1009.29L761.22 1008.85C748.31 934.96 624.77 860.85 623.52 860.1L622.22 862.29C623.45 863 746 936.55 758.7 1009.29Z" fill="#FCFDFE"/>
</g>
<g style="mix-blend-mode:soft-light" opacity="0.5">
<path d="M762.4 1051.85H765C765.23 1002.85 791.72 936.24 839.57 864.19C841.98 860.57 841.98 860.57 841.99 860.08H839.44H840.71L839.54 859.58C839.41 859.84 838.54 861.21 837.45 862.8C789.28 935.25 762.64 1002.39 762.4 1051.85Z" fill="#FCFDFE"/>
</g>
<g style="mix-blend-mode:soft-light" opacity="0.5">
<path d="M766.311 1192.33L768.761 1191.61C753.581 1139.86 679.691 1109.22 678.951 1108.92L677.951 1111.29C678.721 1111.59 751.481 1141.77 766.311 1192.33Z" fill="#FCFDFE"/>
</g>
<g style="mix-blend-mode:soft-light" opacity="0.5">
<path d="M769.791 1220.87C785.621 1180.37 813.591 1143.08 855.311 1106.87L853.641 1104.94C811.641 1141.42 783.391 1179.03 767.411 1219.94L769.791 1220.87Z" fill="#FCFDFE"/>
</g>
<g style="mix-blend-mode:soft-light" opacity="0.5">
<path d="M592.741 476.82L595.151 475.95C574.501 418.51 566.151 353.37 563.371 331.95C562.701 326.77 562.461 324.95 562.271 324.32L559.831 325.09C559.971 325.56 560.351 328.52 560.831 332.27C563.601 353.77 572.001 419.11 592.741 476.82Z" fill="#FCFDFE"/>
</g>
<g style="mix-blend-mode:soft-light" opacity="0.5">
<path d="M640.131 565.25L642.131 563.72C607.761 517.94 494.371 502.18 489.561 501.53L489.221 504.07C490.431 504.22 606.401 520.33 640.131 565.25Z" fill="#FCFDFE"/>
</g>
</g>
<path d="M844.38 1446.37L690.27 1470.37C690.27 1470.37 649 1395.82 678 1334.15C737.34 1208.31 623 1165.15 577.8 1139.87C509.65 1101.79 473.32 1044.53 540.17 993.31C615.81 935.36 524.27 826.7 405.35 781.06C289 736.39 301.25 503.75 562 577.3C717.73 621.22 719 778.88 738.5 858.35C758 937.82 878.9 925.84 853.21 1030.63C831.27 1120.15 774.21 1191.81 834.05 1241.7C893.89 1291.59 909.18 1355.57 844.38 1446.37Z" fill="url(#paint1_linear)"/>
<g style="mix-blend-mode:soft-light" opacity="0.5">
<g style="mix-blend-mode:soft-light" opacity="0.5">
<path d="M779.91 1471.06L776.62 1470.97C776.62 1468.97 781.42 1264.8 725.11 1061.02C673.23 873.28 557.4 647.43 300.22 637.62L300.34 634.33C414.83 638.69 511.34 685.49 587.08 773.41C647.62 843.65 695.08 940.14 728.3 1060.2C784.73 1264.45 780 1469 779.91 1471.06Z" fill="#FCFDFE"/>
</g>
<g style="mix-blend-mode:soft-light" opacity="0.5">
<path d="M617.16 811.52L613.87 811.62C610.52 702.08 545.87 555.81 545.16 554.34L548.16 553C548.83 554.47 613.79 701.34 617.16 811.52Z" fill="#FCFDFE"/>
</g>
<g style="mix-blend-mode:soft-light" opacity="0.5">
<path d="M565.06 754.32C444.92 703.14 347.68 751.81 346.72 752.32L345.21 749.4C346.21 748.89 444.73 699.5 566.35 751.31L565.06 754.32Z" fill="#FCFDFE"/>
</g>
<g style="mix-blend-mode:soft-light" opacity="0.5">
<path d="M754.66 1196.25C694.41 1048.51 479.92 1043.37 477.82 1043.5L477.41 1040.23C479.41 1039.92 696.92 1045.96 757.71 1195L754.66 1196.25Z" fill="#BEB8F2"/>
</g>
<g style="mix-blend-mode:soft-light" opacity="0.5">
<path d="M745.55 1131.09L742.26 1130.92C747.41 1029.24 843.7 944.84 844.67 944L846.83 946.49C845.86 947.32 750.63 1030.83 745.55 1131.09Z" fill="#BEB8F2"/>
</g>
<g style="mix-blend-mode:soft-light" opacity="0.5">
<path d="M776.66 1438.83C762.66 1379.83 670.07 1345.83 669.14 1345.51L670.25 1342.42C674.13 1343.81 765.46 1377.36 779.86 1438.07L776.66 1438.83Z" fill="#BEB8F2"/>
</g>
<g style="mix-blend-mode:soft-light" opacity="0.5">
<path d="M778.43 1390.51H775.14C775.84 1342.59 838.3 1279.61 858.83 1258.91C861.73 1255.99 864.23 1253.46 864.59 1252.91L867.36 1254.7C866.86 1255.46 865.2 1257.15 861.17 1261.22C840.87 1281.64 779.11 1343.92 778.43 1390.51Z" fill="#BEB8F2"/>
</g>
</g>
<path d="M699.47 1462.69C699.98 1463.04 700.47 1463.37 701.01 1463.69C731.47 1483.69 768.3 1500.16 813.01 1509.84L839.58 1513.65C850.68 1494.06 857.72 1473.44 832.37 1460.55C793 1440.55 805.3 1367.11 821.43 1343.27C841.38 1313.78 886.43 1244.14 826.06 1212.27C775.79 1185.7 737.92 1178.83 746.67 1109.48C755.42 1040.13 725.73 990.48 662.67 983.23C596.44 975.58 558.55 878.56 499.55 898C396.75 931.84 454 1098.59 559.81 1163.12C665.62 1227.65 592.9 1256.78 579.61 1312.42C561.47 1388.42 668.18 1390.85 690.09 1425.98C697.52 1437.85 699.87 1450.56 699.47 1462.69Z" fill="url(#paint2_linear)"/>
<g style="mix-blend-mode:soft-light" opacity="0.5">
<g style="mix-blend-mode:soft-light" opacity="0.5">
<path d="M760 1493.63L763.15 1493.56C758 1263.66 641.3 1037.38 458.59 903L456.73 905.53C638.67 1039.35 754.88 1264.68 760 1493.63Z" fill="#FCFDFE"/>
</g>
<g style="mix-blend-mode:soft-light" opacity="0.5">
<path d="M746.46 1368.53L749.56 1369.08C765.41 1280.08 853.94 1224.34 854.84 1223.78L853.18 1221.11C852.27 1221.67 762.57 1278.15 746.46 1368.53Z" fill="#FCFDFE"/>
</g>
<g style="mix-blend-mode:soft-light" opacity="0.5">
<path d="M757.9 1451.36L760.9 1450.36C732.22 1363.36 570.33 1322.89 568.7 1322.49L567.95 1325.55C569.56 1326 729.77 1366 757.9 1451.36Z" fill="#FCFDFE"/>
</g>
<g style="mix-blend-mode:soft-light" opacity="0.5">
<path d="M670.84 1156.2L673.9 1155.47C657.12 1084.75 717.97 991.38 718.59 990.47L716 988.71C715.34 989.66 653.75 1084.17 670.84 1156.2Z" fill="#FCFDFE"/>
</g>
<g style="mix-blend-mode:soft-light" opacity="0.5">
<path d="M590.68 1034.11L592.78 1031.77C530.92 976.69 419.13 981.1 418 981.15L418.14 984.29C419.26 984.24 529.8 979.9 590.68 1034.11Z" fill="#FCFDFE"/>
</g>
</g>
<path d="M1590 546.75L696.24 510.54L687.52 493.88L676.69 493.45C655.53 492.59 638.33 507.45 638.33 526.58V2064.79C638.33 2083.95 655.53 2098.35 676.69 2096.96L1589.89 2036.96C1608.52 2035.73 1623.59 2020.22 1623.59 2002.31V564.24C1623.59 546.33 1608.62 547.5 1590 546.75Z" fill="url(#paint3_linear)"/>
<path d="M1608.45 530.44L695.26 493.44C674.09 492.58 656.89 507.44 656.89 526.57V2064.79C656.89 2083.95 674.09 2098.35 695.26 2096.96L1608.45 2036.96C1627.09 2035.73 1642.15 2020.22 1642.15 2002.31V564.24C1642.15 546.33 1627.09 531.19 1608.45 530.44Z" fill="url(#paint4_linear)"/>
<g style="mix-blend-mode:multiply" opacity="0.3">
<g style="mix-blend-mode:multiply" opacity="0.3">
<path d="M1236.71 1653.35C1221.21 1479.02 1337.3 1406.59 1293.08 1248.87C1238.33 1053.63 1027 1044.93 954.7 852.5C927 778.66 916 667.13 995.36 505.6L695.26 493.45C674.09 492.59 656.89 507.45 656.89 526.58V2064.79C656.89 2083.95 674.09 2098.35 695.26 2096.96L1510.69 2043.41C1305.06 1898.74 1246.23 1760.47 1236.71 1653.35Z" fill="#D8DEE8"/>
</g>
</g>
<path d="M1608.45 549.59L695.26 513.83C686.58 513.49 679.52 519.6 679.52 527.45V2063.35C679.52 2071.2 686.58 2077.13 695.26 2076.57L1608.45 2017.83C1616.1 2017.34 1622.32 2010.95 1622.32 2003.6V563.48C1622.32 556.12 1616.1 549.89 1608.45 549.59Z" fill="url(#paint5_linear)"/>
<path d="M1166.09 1223.16C994.9 1224.54 852.65 1094.46 852.65 933.16C852.65 771.86 994.9 645 1166.09 650.36C1333.36 655.56 1466.66 785.54 1466.66 940.22C1466.66 1094.9 1333.36 1221.81 1166.09 1223.16Z" fill="#D8DEE8"/>
<path d="M1446.32 940C1446.32 1084.44 1322.2 1202.37 1166.09 1203.42C1006.58 1204.49 874.7 1083.61 874.7 933.42C874.7 783.23 1006.58 665.42 1166.09 670.13C1322.2 674.75 1446.32 795.54 1446.32 940Z" fill="white"/>
<path opacity="0.74" d="M1507.15 1324.79L808.36 1335.53C788.71 1335.83 772.74 1350.6 772.74 1368.53C772.74 1386.45 788.74 1400.67 808.36 1400.28L1507.15 1386.52C1524.96 1386.17 1539.37 1372.1 1539.37 1355.09C1539.37 1338.08 1525 1324.52 1507.15 1324.79Z" fill="url(#paint6_linear)"/>
<path d="M1507.15 1446.33L935.34 1460C916.02 1460.46 900.34 1475.24 900.34 1493C900.34 1510.77 916.04 1524.73 935.34 1524.19L1507.15 1508.07C1524.96 1507.57 1539.37 1493.37 1539.37 1476.36C1539.37 1459.34 1525 1445.9 1507.15 1446.33Z" fill="#D8DEE8"/>
<path d="M808.68 1527.75H808.03C788.56 1528.3 772.74 1514.85 772.74 1497.75V1494.91C772.74 1477.77 788.56 1463.5 808.03 1463.03H808.68C828.11 1462.57 843.81 1476.03 843.81 1493.03V1495.87C843.81 1512.93 828.11 1527.2 808.68 1527.75Z" fill="#B19AF3"/>
<path d="M808.36 1533.83C785.05 1534.5 766.04 1517.74 766.04 1496.48C766.04 1475.22 785.04 1457.48 808.36 1456.94C831.68 1456.4 850.44 1473.15 850.44 1494.29C850.44 1515.43 831.59 1533.16 808.36 1533.83ZM808.36 1469.08C792.42 1469.46 779.43 1481.6 779.43 1496.14C779.43 1510.68 792.43 1522.14 808.36 1521.69C824.29 1521.24 837.18 1509.11 837.18 1494.63C837.18 1480.15 824.26 1468.69 808.36 1469.08Z" fill="#D8DEE8"/>
<path d="M1507.15 1556.29L935.34 1574.29C916.02 1574.9 900.34 1589.8 900.34 1607.57C900.34 1625.34 916.04 1639.18 935.34 1638.49L1507.15 1618C1524.96 1617.36 1539.37 1603.06 1539.37 1586C1539.37 1569.06 1525 1555.73 1507.15 1556.29Z" fill="#D8DEE8"/>
<path d="M808.68 1643.09H808.03C788.56 1643.79 772.74 1630.46 772.74 1613.33V1610.48C772.74 1593.34 788.56 1578.95 808.03 1578.34H808.68C828.11 1577.72 843.81 1591.05 843.81 1608.11V1610.94C843.81 1628 828.11 1642.39 808.68 1643.09Z" fill="#B19AF3"/>
<path d="M808.36 1649.17C785.05 1650.01 766.04 1633.41 766.04 1612.17C766.04 1590.93 785.04 1573.02 808.36 1572.3C831.68 1571.58 850.44 1588.18 850.44 1609.3C850.44 1630.42 831.59 1648.33 808.36 1649.17ZM808.36 1584.42C792.42 1584.93 779.43 1597.17 779.43 1611.7C779.43 1626.23 792.43 1637.59 808.36 1637.03C824.29 1636.47 837.18 1624.23 837.18 1609.75C837.18 1595.27 824.26 1583.91 808.36 1584.42Z" fill="#D8DEE8"/>
<path d="M1507.15 1666.25L935.34 1688.7C916.02 1689.46 900.34 1704.48 900.34 1722.25C900.34 1740.02 916.04 1753.75 935.34 1752.9L1507.15 1728C1524.96 1727.23 1539.37 1712.81 1539.37 1695.8C1539.37 1678.77 1525 1665.55 1507.15 1666.25Z" fill="#D8DEE8"/>
<path d="M808.36 1764.51C785.05 1765.51 766.04 1749.07 766.04 1727.81C766.04 1706.55 785.04 1688.52 808.36 1687.61C831.68 1686.7 850.44 1703.18 850.44 1724.32C850.44 1745.46 831.59 1763.49 808.36 1764.51ZM808.36 1699.76C792.42 1700.39 779.43 1712.76 779.43 1727.26C779.43 1741.76 792.43 1753.05 808.36 1752.37C824.29 1751.69 837.18 1739.37 837.18 1724.87C837.18 1710.37 824.26 1699.13 808.36 1699.76Z" fill="#D8DEE8"/>
<path d="M1507.15 1776.21L935.34 1803.06C916.02 1803.97 900.34 1819.06 900.34 1836.88C900.34 1854.65 916.04 1868.26 935.34 1867.27L1507.15 1837.94C1524.96 1837.03 1539.37 1822.5 1539.37 1805.49C1539.37 1788.49 1525 1775.37 1507.15 1776.21Z" fill="#D8DEE8"/>
<path d="M808.68 1873.76H808.03C788.56 1874.76 772.74 1861.68 772.74 1844.54V1841.7C772.74 1824.56 788.56 1809.92 808.03 1809.01H808.68C828.11 1808.1 843.81 1821.19 843.81 1838.24V1841.08C843.81 1858.13 828.11 1872.76 808.68 1873.76Z" fill="#B19AF3"/>
<path d="M808.36 1879.85C785.05 1881.05 766.04 1864.74 766.04 1843.48C766.04 1822.22 785.04 1804.04 808.36 1802.95C831.68 1801.86 850.44 1818.19 850.44 1839.33C850.44 1860.47 831.59 1878.65 808.36 1879.85ZM808.36 1815.09C792.42 1815.85 779.43 1828.29 779.43 1842.82C779.43 1857.35 792.43 1868.52 808.36 1867.71C824.29 1866.9 837.18 1854.46 837.18 1839.98C837.18 1825.5 824.26 1814.34 808.36 1815.09Z" fill="#D8DEE8"/>
<path d="M1131.73 751.46C1081.1 750 1033.03 776.12 1011.73 812.46C986 856.23 1020.35 878.09 1003.58 949.21C988.13 1014.71 952.04 1025.91 958 1068.92C964.54 1116.02 1013.83 1145.92 1033.31 1157.7C1120.87 1210.76 1257.54 1208.54 1326.89 1140.05C1332.68 1134.33 1380.51 1087.05 1367.6 1043.62C1356.04 1004.73 1306.5 1004.46 1296.23 964.04C1287.39 929.21 1321.23 917.97 1318.03 867.5C1317.4 857.62 1314.42 810.88 1276.73 789.28C1251.63 774.89 1224.04 779.01 1213.93 781.02C1201.74 772 1172.17 752.62 1131.73 751.46Z" fill="url(#paint7_linear)"/>
<path d="M874.7 1116.94C874.7 1116.94 1130.7 978.14 1446.32 1116.49C1446.32 1116.49 1406.19 1235.03 1166.09 1243.12C917.85 1251.49 874.7 1116.94 874.7 1116.94Z" fill="url(#paint8_linear)"/>
<path d="M1120.78 936.239L1111.2 1002.5C1107.93 1025.12 1091.2 1044.02 1067.83 1051.34L989.83 1075.82C989.83 1075.82 1139.11 1142.6 1327.31 1075.82L1241.53 1048C1217.17 1039.47 1200.53 1018 1199.53 993.639L1197.07 937.089L1120.78 936.239Z" fill="url(#paint9_linear)"/>
<path d="M1237 879.12C1237 935.03 1200.78 994.82 1155.86 994.48C1110.65 994.14 1073.86 933.12 1073.86 876.58C1073.86 820.04 1110.7 789.92 1155.86 790.89C1200.76 791.85 1237 823.21 1237 879.12Z" fill="url(#paint10_linear)"/>
<path d="M1191.78 827.83C1167.38 828.54 1130.42 833.33 1104.78 857.91C1061.78 899.2 1082.19 965.84 1063.04 969.6C1046.04 972.94 1019.57 925.36 1020.04 873.44C1020.4 829.96 1036.42 779.02 1078.1 767.05C1102.57 760.05 1109.78 772.48 1188.64 781.42C1234.56 786.63 1216.55 805.42 1226.88 812.76C1272.72 845.35 1266.88 949.54 1242.25 950.61C1230.52 951.12 1214.34 923.68 1191.78 827.83Z" fill="url(#paint11_linear)"/>
<g style="mix-blend-mode:soft-light" opacity="0.35">
<path d="M1236.71 1653.35C1221.21 1479.02 1337.3 1406.59 1293.08 1248.87C1238.33 1053.63 1027 1044.93 954.7 852.5C928.11 781.7 916.93 676.26 986 525.22L695.26 513.83C686.58 513.49 679.52 519.6 679.52 527.45V2063.35C679.52 2071.2 686.58 2077.13 695.26 2076.57L1486.2 2025.69C1300.29 1887.38 1245.83 1756 1236.71 1653.35Z" fill="white"/>
</g>
<g style="mix-blend-mode:multiply" opacity="0.3">
<path style="mix-blend-mode:multiply" opacity="0.3" d="M1236.71 1653.35C1221.21 1479.02 1337.3 1406.59 1293.08 1248.87C1238.33 1053.63 1027 1044.93 954.7 852.5C927 778.66 916 667.13 995.36 505.6L695.26 493.45C674.09 492.59 656.89 507.45 656.89 526.58V2064.79C656.89 2083.95 674.09 2098.35 695.26 2096.96L1510.69 2043.41C1305.06 1898.74 1246.23 1760.47 1236.71 1653.35Z" fill="url(#paint12_linear)"/>
</g>
<path d="M1608.45 549.59L695.26 513.83C686.58 513.49 679.52 519.6 679.52 527.45V2063.35C679.52 2071.2 686.58 2077.13 695.26 2076.57L1608.45 2017.83C1616.1 2017.34 1622.32 2010.95 1622.32 2003.6V563.48C1622.32 556.12 1616.1 549.89 1608.45 549.59Z" fill="white"/>
<path d="M1507.15 1324.79L808.36 1335.53C788.71 1335.83 772.74 1350.6 772.74 1368.53C772.74 1386.45 788.74 1400.67 808.36 1400.28L1507.15 1386.52C1524.96 1386.17 1539.37 1372.1 1539.37 1355.09C1539.37 1338.08 1525 1324.52 1507.15 1324.79Z" fill="url(#paint13_linear)"/>
<path d="M1507.15 1446.33L935.34 1460C916.02 1460.46 900.34 1475.24 900.34 1493C900.34 1510.77 916.04 1524.73 935.34 1524.19L1507.15 1508.07C1524.96 1507.57 1539.37 1493.37 1539.37 1476.36C1539.37 1459.34 1525 1445.9 1507.15 1446.33Z" fill="url(#paint14_linear)"/>
<path d="M808.68 1527.75H808.03C788.56 1528.3 772.74 1514.85 772.74 1497.75V1494.91C772.74 1477.77 788.56 1463.5 808.03 1463.03H808.68C828.11 1462.57 843.81 1476.03 843.81 1493.03V1495.87C843.81 1512.93 828.11 1527.2 808.68 1527.75Z" fill="url(#paint15_linear)"/>
<path d="M808.36 1533.83C785.05 1534.5 766.04 1517.74 766.04 1496.48C766.04 1475.22 785.04 1457.48 808.36 1456.94C831.68 1456.4 850.44 1473.15 850.44 1494.29C850.44 1515.43 831.59 1533.16 808.36 1533.83ZM808.36 1469.08C792.42 1469.46 779.43 1481.6 779.43 1496.14C779.43 1510.68 792.43 1522.14 808.36 1521.69C824.29 1521.24 837.18 1509.11 837.18 1494.63C837.18 1480.15 824.26 1468.69 808.36 1469.08Z" fill="url(#paint16_linear)"/>
<path d="M1507.15 1556.29L935.34 1574.29C916.02 1574.9 900.34 1589.8 900.34 1607.57C900.34 1625.34 916.04 1639.18 935.34 1638.49L1507.15 1618C1524.96 1617.36 1539.37 1603.06 1539.37 1586C1539.37 1569.06 1525 1555.73 1507.15 1556.29Z" fill="url(#paint17_linear)"/>
<path d="M808.68 1643.09H808.03C788.56 1643.79 772.74 1630.46 772.74 1613.33V1610.48C772.74 1593.34 788.56 1578.95 808.03 1578.34H808.68C828.11 1577.72 843.81 1591.05 843.81 1608.11V1610.94C843.81 1628 828.11 1642.39 808.68 1643.09Z" fill="url(#paint18_linear)"/>
<path d="M808.68 1758.77H808.03C788.56 1759.47 772.74 1746.14 772.74 1729.01V1726.16C772.74 1709.02 788.56 1694.63 808.03 1694.02H808.68C828.11 1693.4 843.81 1706.73 843.81 1723.79V1726.62C843.81 1743.68 828.11 1758.07 808.68 1758.77Z" fill="url(#paint19_linear)"/>
<path d="M808.36 1649.17C785.05 1650.01 766.04 1633.41 766.04 1612.17C766.04 1590.93 785.04 1573.02 808.36 1572.3C831.68 1571.58 850.44 1588.18 850.44 1609.3C850.44 1630.42 831.59 1648.33 808.36 1649.17ZM808.36 1584.42C792.42 1584.93 779.43 1597.17 779.43 1611.7C779.43 1626.23 792.43 1637.59 808.36 1637.03C824.29 1636.47 837.18 1624.23 837.18 1609.75C837.18 1595.27 824.26 1583.91 808.36 1584.42Z" fill="url(#paint20_linear)"/>
<path d="M1507.15 1666.25L935.34 1688.7C916.02 1689.46 900.34 1704.48 900.34 1722.25C900.34 1740.02 916.04 1753.75 935.34 1752.9L1507.15 1728C1524.96 1727.23 1539.37 1712.81 1539.37 1695.8C1539.37 1678.77 1525 1665.55 1507.15 1666.25Z" fill="url(#paint21_linear)"/>
<path d="M808.36 1764.51C785.05 1765.51 766.04 1749.07 766.04 1727.81C766.04 1706.55 785.04 1688.52 808.36 1687.61C831.68 1686.7 850.44 1703.18 850.44 1724.32C850.44 1745.46 831.59 1763.49 808.36 1764.51ZM808.36 1699.76C792.42 1700.39 779.43 1712.76 779.43 1727.26C779.43 1741.76 792.43 1753.05 808.36 1752.37C824.29 1751.69 837.18 1739.37 837.18 1724.87C837.18 1710.37 824.26 1699.13 808.36 1699.76Z" fill="url(#paint22_linear)"/>
<path d="M1507.15 1778.21L935.34 1805.06C916.02 1805.97 900.34 1821.06 900.34 1838.88C900.34 1856.65 916.04 1870.26 935.34 1869.27L1507.15 1839.94C1524.96 1839.03 1539.37 1824.5 1539.37 1807.49C1539.37 1790.49 1525 1777.37 1507.15 1778.21Z" fill="url(#paint23_linear)"/>
<path d="M808.68 1876.76H808.03C788.56 1877.76 772.74 1864.68 772.74 1847.54V1844.7C772.74 1827.56 788.56 1812.92 808.03 1812.01H808.68C828.11 1811.1 843.81 1824.19 843.81 1841.24V1844.08C843.81 1861.13 828.11 1875.76 808.68 1876.76Z" fill="url(#paint24_linear)"/>
<path d="M808.36 1879.85C785.05 1881.05 766.04 1864.74 766.04 1843.48C766.04 1822.22 785.04 1804.04 808.36 1802.95C831.68 1801.86 850.44 1818.19 850.44 1839.33C850.44 1860.47 831.59 1878.65 808.36 1879.85ZM808.36 1815.09C792.42 1815.85 779.43 1828.29 779.43 1842.82C779.43 1857.35 792.43 1868.52 808.36 1867.71C824.29 1866.9 837.18 1854.46 837.18 1839.98C837.18 1825.5 824.26 1814.34 808.36 1815.09Z" fill="url(#paint25_linear)"/>
<g style="mix-blend-mode:soft-light" opacity="0.35">
<path d="M1236.71 1653.35C1221.21 1479.02 1337.3 1406.59 1293.08 1248.87C1238.33 1053.63 1027 1044.93 954.7 852.5C928.11 781.7 916.93 676.26 986 525.22L695.26 513.83C686.58 513.49 679.52 519.6 679.52 527.45V2063.35C679.52 2071.2 686.58 2077.13 695.26 2076.57L1486.2 2025.69C1300.29 1887.38 1245.83 1756 1236.71 1653.35Z" fill="white"/>
</g>
<path d="M1620.7 905.19C1569.05 903.63 1520.01 931.72 1498.23 970.79C1471.99 1017.87 1507.03 1041.39 1489.92 1117.89C1478.2 1170.3 1464.66 1207.69 1443.43 1246.66C1378.13 1366.52 1324.43 1626.31 1409.9 1697.84C1464.05 1743.17 1523.9 1670.84 1684.29 1692.66C1844.2 1714.37 1874.14 1798.32 1950.91 1775.5C2073.33 1739.1 2140.91 1482.87 2080.34 1294.03C2061.34 1234.91 2024.34 1119.37 1932.79 1084.35C1889.16 1067.66 1839.21 1071.58 1810.72 1029.99C1789.18 998.55 1797.9 963.57 1768.59 945.85C1742.98 930.37 1714.83 934.85 1704.51 936.97C1692.13 927.27 1662 906.45 1620.7 905.19Z" fill="url(#paint26_linear)"/>
<path d="M1374.22 1327.09C1371.22 1331.82 1365.04 1346.26 1352.74 1374.86C1291.24 1517.86 1282.16 1551.34 1245.6 1574.68C1222.6 1589.38 1201.09 1592.15 1177.8 1595.16C1073.22 1608.66 988.25 1545.46 960.36 1522.68L917.22 1527.86C938.9 1643.86 1017.31 1739.23 1122.57 1772.91C1314.24 1834.23 1474.29 1652.24 1488.91 1613.32C1495.91 1594.62 1502.17 1573.32 1502.17 1573.32C1507.85 1553.59 1510.86 1536.23 1531.42 1457.09C1584.53 1252.69 1577.24 1236.31 1568.27 1228.85C1536 1202 1426.76 1245 1374.22 1327.09Z" fill="url(#paint27_linear)"/>
<path d="M1892.21 1871.72C1846.93 1595.08 1877.62 1403.06 1921.96 1275.33C1818.27 1224.54 1728.53 1171.19 1566.24 1203.73C1532.42 1210.51 1504.02 1227.96 1487.32 1240.8C1471.32 1253.07 1435.47 1285.66 1411.03 1382.89C1385.55 1484.27 1394.6 1568.03 1395.11 1572.89C1404.5 1660.73 1391.27 1822.72 1297.31 2147.32H1970.66C1934.06 2058.75 1907.74 1966.28 1892.21 1871.72Z" fill="url(#paint28_linear)"/>
<path style="mix-blend-mode:multiply" opacity="0.3" d="M1395.11 1572.87C1395.11 1572.92 1395.33 1574.87 1395.56 1577.27C1395.56 1577.46 1395.56 1577.66 1395.56 1577.85C1395.68 1579.12 1395.8 1580.4 1395.91 1581.7C1395.91 1582.12 1395.97 1582.55 1396.01 1582.97C1396.1 1584.06 1396.19 1585.16 1396.27 1586.27C1396.27 1586.78 1396.34 1587.27 1396.38 1587.83C1396.45 1588.83 1396.52 1589.89 1396.59 1590.94C1396.59 1591.53 1396.66 1592.13 1396.7 1592.73C1396.7 1593.73 1396.81 1594.73 1396.87 1595.73L1396.96 1597.73C1396.96 1598.73 1397.06 1599.73 1397.1 1600.73L1397.19 1602.82C1397.19 1603.82 1397.26 1604.82 1397.3 1605.82L1397.36 1607.98C1397.36 1608.98 1397.42 1609.98 1397.44 1610.98C1397.44 1611.74 1397.44 1612.5 1397.44 1613.27C1397.44 1614.27 1397.44 1615.27 1397.44 1616.33V1618.67C1397.44 1619.67 1397.44 1620.75 1397.44 1621.8C1397.44 1622.61 1397.44 1623.42 1397.44 1624.24C1397.44 1625.24 1397.44 1626.34 1397.44 1627.4C1397.44 1628.24 1397.44 1629.08 1397.44 1629.93C1397.44 1631 1397.44 1632.1 1397.44 1633.19V1635.73C1397.44 1636.87 1397.44 1638.02 1397.37 1639.17L1397.31 1641.7C1397.31 1642.87 1397.24 1644.07 1397.2 1645.26C1397.2 1646.11 1397.2 1646.96 1397.13 1647.82C1397.13 1649.19 1397.02 1650.58 1396.97 1651.96C1396.97 1652.66 1396.97 1653.35 1396.89 1654.06C1396.8 1656.13 1396.71 1658.22 1396.6 1660.34C1396.6 1661.28 1396.49 1662.25 1396.44 1663.2C1396.37 1664.43 1396.31 1665.64 1396.24 1666.88C1396.17 1667.95 1396.11 1669.03 1396.04 1670.11C1395.97 1671.19 1395.9 1672.39 1395.82 1673.55C1395.74 1674.71 1395.66 1675.87 1395.58 1677.03C1395.5 1678.19 1395.43 1679.26 1395.34 1680.38C1395.25 1681.5 1395.16 1682.8 1395.06 1684.01C1394.96 1685.22 1394.89 1686.25 1394.8 1687.38C1394.71 1688.51 1394.59 1689.88 1394.49 1691.13L1394.19 1694.53C1394.08 1695.81 1393.96 1697.1 1393.84 1698.4C1393.74 1699.54 1393.63 1700.69 1393.52 1701.85C1393.39 1703.17 1393.26 1704.51 1393.13 1705.85C1393.01 1706.99 1392.9 1708.14 1392.78 1709.3C1392.64 1710.68 1392.5 1712.06 1392.35 1713.45C1392.23 1714.6 1392.1 1715.76 1391.97 1716.92C1391.82 1718.35 1391.66 1719.79 1391.49 1721.24C1391.37 1722.37 1391.23 1723.52 1391.1 1724.66C1390.93 1726.16 1390.75 1727.66 1390.57 1729.18C1390.44 1730.31 1390.3 1731.44 1390.16 1732.57C1389.97 1734.14 1389.77 1735.71 1389.57 1737.3C1389.43 1738.39 1389.29 1739.5 1389.15 1740.61C1388.94 1742.26 1388.72 1743.9 1388.5 1745.61C1388.36 1746.67 1388.22 1747.75 1388.07 1748.81C1387.84 1750.56 1387.6 1752.3 1387.36 1754.07C1387.22 1755.07 1387.09 1755.98 1386.95 1756.94C1386.68 1758.85 1386.41 1760.76 1386.13 1762.7C1386.04 1763.33 1385.95 1763.97 1385.85 1764.6C1384.38 1774.69 1382.74 1785.15 1380.94 1795.99C1380.81 1796.78 1380.68 1797.56 1380.55 1798.36C1380.19 1800.5 1379.82 1802.68 1379.44 1804.86L1378.93 1807.86C1378.56 1809.98 1378.19 1812.12 1377.8 1814.27C1377.61 1815.37 1377.42 1816.46 1377.22 1817.56C1376.84 1819.67 1376.46 1821.79 1376.07 1823.93C1375.85 1825.11 1375.64 1826.29 1375.42 1827.48C1375.03 1829.59 1374.64 1831.71 1374.24 1833.85C1374.01 1835.08 1373.78 1836.32 1373.54 1837.56C1373.13 1839.72 1372.71 1841.89 1372.3 1844.07L1371.58 1847.8C1371.15 1850.01 1370.71 1852.23 1370.28 1854.46C1370.02 1855.72 1369.77 1857 1369.52 1858.27C1369.07 1860.52 1368.62 1862.79 1368.16 1865.06C1367.9 1866.34 1367.64 1867.62 1367.37 1868.91C1366.9 1871.22 1366.43 1873.53 1365.95 1875.91C1365.68 1877.18 1365.41 1878.47 1365.14 1879.76C1364.64 1882.15 1364.14 1884.55 1363.63 1886.97C1363.37 1888.18 1363.11 1889.42 1362.84 1890.64C1362.31 1893.16 1361.77 1895.64 1361.21 1898.24C1360.97 1899.35 1360.73 1900.48 1360.48 1901.59C1359.9 1904.29 1359.31 1906.98 1358.7 1909.71C1358.5 1910.62 1358.29 1911.55 1358.09 1912.48L1356.09 1921.39C1355.99 1921.81 1355.89 1922.23 1355.8 1922.65C1352.47 1937.26 1348.92 1952.38 1345.17 1967.99C1345.08 1968.37 1345 1968.74 1344.91 1969.11C1344.12 1972.35 1343.32 1975.64 1342.51 1978.92C1342.26 1979.92 1342.03 1980.92 1341.78 1981.92C1341.03 1984.92 1340.26 1988.05 1339.49 1991.13C1339.18 1992.39 1338.87 1993.65 1338.55 1994.91C1337.81 1997.91 1337.06 2000.84 1336.3 2003.83C1335.94 2005.27 1335.58 2006.7 1335.21 2008.15L1332.95 2016.97C1332.55 2018.5 1332.16 2020.03 1331.76 2021.58C1331 2024.51 1330.24 2027.46 1329.46 2030.42C1329.05 2032.01 1328.63 2033.6 1328.21 2035.21C1327.43 2038.21 1326.64 2041.21 1325.84 2044.21C1325.42 2045.83 1324.98 2047.46 1324.55 2049.09C1323.75 2052.09 1322.94 2055.09 1322.12 2058.17L1320.77 2063.17C1319.95 2066.23 1319.12 2069.29 1318.27 2072.38C1317.81 2074.08 1317.35 2075.79 1316.88 2077.5C1316.03 2080.61 1315.17 2083.73 1314.31 2086.88C1313.84 2088.57 1313.31 2090.28 1312.89 2091.99L1310.21 2101.64L1308.83 2106.57C1307.89 2109.9 1306.94 2113.27 1305.99 2116.67L1304.7 2121.22C1303.7 2124.77 1302.7 2128.33 1301.7 2131.93L1300.7 2135.58C1299.57 2139.52 1298.43 2143.47 1297.28 2147.46H1372.37C1415.01 2013.46 1467.47 1939.18 1512.53 1895.02C1530.53 1877.33 1573.39 1839.02 1584.67 1777.78C1594.81 1722.78 1572.25 1688.53 1546.09 1611.26C1514.4 1517.64 1484.09 1428.15 1503.51 1356.93C1511.77 1326.6 1544.19 1254.93 1715.75 1195.5H1715.46C1687.83 1193.71 1663.53 1193.44 1643.39 1193.81C1640.53 1193.86 1592.11 1194.94 1570.5 1205.09C1569.82 1205.41 1565.79 1207.32 1560.2 1209.66C1552.47 1212.94 1544.54 1215.71 1536.45 1217.96C1530.33 1219.65 1528.26 1219.87 1527.01 1219.96C1522.01 1220.32 1520.16 1219.36 1516.68 1220.23C1513.74 1220.96 1512.68 1222.63 1508.11 1225.74C1500.05 1231.18 1493.05 1236.57 1487.29 1241C1476.94 1249 1467.78 1258.43 1460.07 1269C1459.23 1270.13 1458.38 1271.29 1457.52 1272.5C1428.63 1313.16 1411 1383.1 1411 1383.1C1411 1383.1 1385.38 1484.16 1395.11 1572.87Z" fill="url(#paint29_linear)"/>
<path d="M1681.9 1067.09C1677.51 1072.44 1640.45 1118.86 1657.57 1155.09C1663.06 1166.69 1672.12 1173.03 1681.27 1179.45C1713.17 1201.8 1737.7 1191.65 1775.7 1216.36C1787.15 1223.81 1792.95 1227.59 1792.7 1232.69C1791.61 1252.39 1705.2 1268.52 1629.07 1265.54C1559.99 1262.85 1499.61 1244.44 1500.17 1231.81C1500.89 1215.81 1599.88 1201.98 1619.08 1167.25C1621.72 1162.31 1623.55 1156.99 1624.51 1151.47C1625.98 1137.59 1618.68 1125.47 1612.86 1110.94C1609.52 1111.2 1606.8 1111.21 1603.7 1111.36C1629.75 1096.71 1656.6 1082.9 1681.9 1067.09Z" fill="url(#paint30_linear)"/>
<path d="M1853.42 1935.8C1845.16 1936.72 1844.97 1936.65 1834.9 1938.26C1824.83 1939.87 1807.76 1940.03 1796.22 1947.02C1784.68 1954.01 1773.22 1964.33 1781.22 1979.96C1789.22 1995.59 1804.78 1997.58 1822.65 1993.13C1833.52 1990.43 1844.4 1980.82 1852.75 1971.2C1858.62 1964.44 1867.65 1961.89 1876.75 1960.35C1869.18 1952 1861 1943.92 1853.42 1935.8Z" fill="url(#paint31_linear)"/>
<path d="M1813 1238.52C1866.88 1218.16 2069.65 1346.52 2140.22 1561.03C2168.99 1648.46 2162.96 1711.21 2161.4 1725.35C2158.96 1747.48 2143.94 1863.52 2054.89 1935.78C2023.14 1961.54 1993.94 1972.3 1987.17 1974.41C1955.25 1984.34 1925.17 1981.92 1881.26 1983.41C1875.69 1969.79 1862.88 1959.61 1854.85 1948.79C1847.51 1938.89 1841.96 1931.79 1834.15 1922.72C1844.24 1887.33 1857.58 1852.94 1874 1820C1899.45 1768.94 1912.75 1760.65 1937 1709.86C1961.49 1658.6 1978.15 1622.57 1972.19 1577.6C1967.34 1541.02 1949.93 1515.6 1938.74 1499.6C1888.2 1427.74 1809.97 1424.86 1791.4 1315.6C1789.73 1305.84 1762.4 1257.62 1813 1238.52Z" fill="url(#paint32_linear)"/>
<path d="M1706.92 1069.41C1699.25 1113.92 1662.22 1156.56 1626.5 1150.13C1590.56 1143.66 1569.59 1090.03 1577.34 1045.02C1585.09 1000.01 1618.56 981.08 1654.41 988.02C1690.05 995 1714.58 1024.9 1706.92 1069.41Z" fill="url(#paint33_linear)"/>
<path d="M1678 1022.38C1658.48 1019.61 1628.39 1018.38 1604.63 1034.38C1564.71 1061.38 1571.85 1117.21 1556.09 1117.57C1542.09 1117.9 1527.54 1076.4 1535 1035.12C1541.24 1000.55 1561 962.19 1595.81 958.38C1616.25 956.14 1620.28 967.04 1681.81 984.97C1717.66 995.41 1700.74 1007.9 1707.96 1015.16C1739.96 1047.39 1721.08 1129.55 1701.29 1127.02C1691.9 1125.85 1682.79 1101.79 1678 1022.38Z" fill="url(#paint34_linear)"/>
<path d="M888.81 1273.87L1161.23 1312.54C1162.69 1312.75 1164.06 1313.39 1165.16 1314.37C1166.26 1315.36 1167.03 1316.66 1167.39 1318.09L1259.65 1688.72C1260.98 1694.04 1253.87 1706.27 1248.51 1705.13L981.86 1640.67C980.525 1640.39 979.294 1639.74 978.303 1638.8C977.311 1637.86 976.598 1636.67 976.24 1635.35L876.33 1288C874.94 1282.86 883.54 1273.12 888.81 1273.87Z" fill="url(#paint35_linear)"/>
<path d="M883.67 1282.19L1156.09 1320.85C1157.55 1321.06 1158.92 1321.7 1160.02 1322.68C1161.12 1323.67 1161.89 1324.97 1162.25 1326.4L1254.51 1697C1254.81 1698.22 1254.79 1699.49 1254.46 1700.7C1254.13 1701.9 1253.5 1703.01 1252.63 1703.91C1251.76 1704.81 1250.67 1705.47 1249.47 1705.84C1248.28 1706.2 1247.01 1706.26 1245.78 1706L976.72 1649C975.386 1648.72 974.156 1648.07 973.165 1647.13C972.174 1646.2 971.459 1645.01 971.1 1643.69L875.47 1291.49C875.147 1290.3 875.123 1289.06 875.401 1287.86C875.679 1286.66 876.25 1285.55 877.063 1284.63C877.876 1283.71 878.905 1283 880.059 1282.58C881.212 1282.15 882.453 1282.02 883.67 1282.19Z" fill="url(#paint36_linear)"/>
<path d="M957.1 1303.15L949.48 1273.58C949.33 1272.96 949.329 1272.32 949.477 1271.7C949.626 1271.08 949.92 1270.51 950.334 1270.03C950.748 1269.54 951.272 1269.17 951.861 1268.93C952.45 1268.69 953.087 1268.59 953.72 1268.65L1053.28 1278.84C1054.11 1278.93 1054.9 1279.28 1055.52 1279.85C1056.14 1280.41 1056.57 1281.15 1056.75 1281.97L1063.53 1314.52C1063.65 1315.14 1063.62 1315.78 1063.45 1316.38C1063.27 1316.99 1062.96 1317.54 1062.53 1318C1062.1 1318.46 1061.57 1318.82 1060.98 1319.03C1060.39 1319.25 1059.76 1319.32 1059.13 1319.25L960.41 1306.09C959.627 1305.99 958.893 1305.65 958.303 1305.13C957.713 1304.61 957.294 1303.92 957.1 1303.15Z" fill="url(#paint37_linear)"/>
<path style="mix-blend-mode:multiply" opacity="0.3" d="M1096.51 1603.37C1084.64 1543.94 1117.71 1509.42 1092.45 1461.6C1056.72 1393.95 963.3 1411.47 940.33 1357.5C934.14 1342.94 932.61 1322.03 946.14 1291.05L883.67 1282.19C882.455 1282.02 881.216 1282.15 880.065 1282.58C878.914 1283 877.886 1283.7 877.074 1284.62C876.261 1285.54 875.689 1286.65 875.409 1287.85C875.13 1289.04 875.15 1290.29 875.47 1291.47L971.1 1643.67C971.459 1644.99 972.174 1646.18 973.165 1647.11C974.156 1648.05 975.386 1648.7 976.72 1648.98L1140.24 1683.69C1113.42 1655 1101.33 1627.52 1096.51 1603.37Z" fill="url(#paint38_linear)"/>
<path d="M917.22 1527.86C917.22 1527.86 904.49 1459.76 912.97 1429.56C917.24 1414.35 971.41 1388.45 971.41 1388.45C971.41 1388.45 962.5 1435.04 949.35 1458.15C936.2 1481.26 939.66 1527.86 939.66 1527.86H917.22Z" fill="url(#paint39_linear)"/>
<path d="M899.961 723.187V698.27H833V699.581H840.44V799.249H833V801.872H865.24V799.249H856.56V750.727H873.759C876.255 752.038 877.747 754.515 878.62 756.886C879.869 760.31 880.244 763.841 880.244 763.841H881.36V736.301H880.244C880.244 736.301 879.869 739.894 878.62 743.32C877.747 745.819 876.255 748.104 873.759 749.415H856.56V699.581H886.347C897.069 704.827 898.936 723.187 898.936 723.187H899.961Z" fill="#18191A"/>
<path d="M962.849 798.073C958.362 798.073 959.611 784.138 959.611 780.047C959.611 767.662 959.982 759.501 959.982 751.73C959.982 738.281 952.878 725.378 927.456 725.378C920.972 725.378 902.527 726.036 902.527 742.383C902.527 748.18 906.018 753.453 910.879 753.453C914.74 753.453 918.606 749.374 918.606 745.284C918.606 742.783 917.231 740.412 915.237 738.824C912.121 736.58 910.751 734.746 910.751 733.284C910.751 729.463 919.727 726.695 925.584 726.695C940.416 726.695 942.759 733.157 943.013 744.758C943.013 748.977 943.362 753.85 943.362 759.387V760.181C943.362 760.181 912.349 759.387 902.258 770.72C898.269 774.285 897.157 791.156 903.886 796.823C916.227 807.234 939.912 801.835 942.53 782.848C942.53 795.504 942.969 802.019 957.799 802.019C966.274 802.019 971.329 797.939 971.329 787.448H969.952C969.831 787.45 971.328 798.073 962.849 798.073ZM941.161 781.799C935.304 802.365 923.091 799.198 922.843 798.801C915.237 795.774 918.729 774.018 918.729 773.236C918.729 763.21 942.162 761.632 942.162 761.632C942.16 771.646 941.415 781.799 941.161 781.799Z" fill="#18191A"/>
<path d="M979.32 728.435H988V799.252H979.32V801.875H1011.56V799.252H1004.12V728.435H1011.56V727.124H979.32V728.435Z" fill="#18191A"/>
<path d="M995.42 715.102C999.529 715.102 1003.52 710.884 1003.52 706.397C1003.52 702.051 999.529 697.833 995.42 697.833C991.183 697.833 987.194 702.051 987.194 706.397C987.195 710.884 991.183 715.102 995.42 715.102Z" fill="#18191A"/>
<path d="M1072.28 726.835C1059.07 723.401 1051.24 732.363 1047.52 744.361V727.124H1022.72V728.435H1031.4V799.252H1022.72V801.875H1054.96V799.252H1047.52V749.235L1048.35 744.889C1050.72 735.798 1056.12 731.31 1056.36 730.914C1062.97 725.643 1068.97 727.491 1068.97 727.491C1071.22 728.146 1071.53 730.527 1071.53 730.527C1071.53 735.926 1064.28 734.08 1064.28 741.336C1064.28 745.413 1068.26 749.632 1072.12 749.632C1075.99 749.632 1080.18 745.413 1080.18 741.336C1080.18 728.413 1072.28 726.835 1072.28 726.835Z" fill="#18191A"/>
<path d="M1127.65 738.168C1114.44 732.628 1084.27 716.411 1111.2 702.05C1121.91 695.46 1143.22 698.488 1153.07 723.013C1154.19 727.232 1154.57 731.056 1154.57 731.056H1155.4V698.089C1151.68 710.089 1152.26 707.2 1143.08 702.576C1143.08 702.576 1108.07 685.177 1091.37 717.732C1090.62 719.052 1089.25 722.743 1089.38 727.616C1089.13 746.077 1103.71 755.566 1121.16 760.577C1134.75 766.503 1165.4 782.592 1137.49 796.824C1126.77 803.414 1104.21 801.007 1094.37 776.495C1093.25 772.277 1092.87 769.088 1092.87 769.088H1092.16V800.774C1097.12 788.785 1095.95 790.76 1105.67 796.299C1105.67 796.299 1140.65 813.698 1157.35 781.143C1158.1 779.822 1159.46 776.131 1159.34 771.247C1158.83 752.271 1145.84 744.232 1127.65 738.168Z" fill="#18191A"/>
<path d="M1240.96 749.769C1240.96 736.577 1229.18 726.692 1216.96 726.692C1206.61 726.692 1196.32 733.679 1192.6 743.832V699.581H1198.8V698.27H1167.8V699.581H1176.48V799.249H1166.56V801.872H1200.04V799.249H1192.6V748.181C1195.08 736.718 1205.59 728.142 1216.44 727.884C1222.81 727.884 1224.84 739.347 1224.84 739.347V799.249H1216.16V801.872H1248.4V799.249H1240.96V749.769Z" fill="#18191A"/>
<path d="M1319.8 798.073C1315.32 798.073 1316.56 784.138 1316.56 780.047C1316.56 767.662 1316.94 759.501 1316.94 751.73C1316.94 738.281 1309.84 725.378 1284.41 725.378C1277.93 725.378 1259.48 726.036 1259.48 742.383C1259.48 748.18 1262.97 753.453 1267.82 753.453C1271.7 753.453 1275.56 749.374 1275.56 745.284C1275.56 742.783 1274.18 740.412 1272.19 738.824C1269.08 736.58 1267.7 734.746 1267.7 733.284C1267.7 729.463 1276.67 726.695 1282.54 726.695C1297.38 726.695 1299.8 733.157 1300.05 744.758C1300.05 748.977 1300.48 753.85 1300.48 759.387V760.181C1300.48 760.181 1269.38 759.387 1259.29 770.72C1255.29 774.285 1254.14 791.156 1260.88 796.823C1273.21 807.234 1296.88 801.835 1299.51 782.848C1299.51 795.504 1299.92 802.019 1314.76 802.019C1323.24 802.019 1328.27 797.939 1328.27 787.448H1326.91C1326.79 787.45 1328.27 798.073 1319.8 798.073ZM1298.11 781.799C1292.26 802.365 1280.04 799.198 1279.8 798.801C1272.19 795.774 1275.68 774.018 1275.68 773.236C1275.68 763.21 1299.1 761.632 1299.1 761.632C1299.1 771.646 1298.37 781.799 1298.11 781.799Z" fill="#18191A"/>
<path d="M1386.03 726.835C1372.82 723.401 1364.96 732.363 1361.24 744.361V727.124H1336.44V728.435H1345.12V799.252H1336.44V801.875H1368.68V799.252H1361.24V749.235L1362.1 744.889C1364.47 735.798 1369.89 731.31 1370.15 730.914C1376.75 725.643 1382.76 727.491 1382.76 727.491C1384.99 728.146 1385.33 730.527 1385.33 730.527C1385.33 735.926 1378.08 734.08 1378.08 741.336C1378.08 745.413 1382.05 749.632 1385.92 749.632C1389.78 749.632 1393.94 745.413 1393.94 741.336C1393.95 728.413 1386.03 726.835 1386.03 726.835Z" fill="#18191A"/>
<path d="M1533 746.38L1528.09 697L1491.25 727.863C1491.25 727.863 1501.58 723.947 1514.51 729.396L1496.84 770.403L1481.22 760.62L1480.89 761.959C1473.79 788.556 1455.93 800.564 1441.34 800.564C1441.32 800.564 1441.3 800.564 1441.28 800.564C1438.04 800.564 1435 799.745 1432.16 798.735C1425.84 793.641 1421.85 780.893 1422.08 758.599H1471.33C1469.21 740.239 1454.62 726.308 1437.04 726.308C1417.72 726.308 1402.15 743.116 1402.15 763.81C1402.15 784.345 1417.48 801.115 1436.6 801.371C1438.12 801.604 1439.67 801.877 1441.28 801.877C1441.3 801.877 1441.32 801.877 1441.34 801.877C1456.4 801.877 1474.77 790.118 1482.35 763.395L1497.67 773.261L1516.21 730.199C1528.35 736.052 1533 746.38 1533 746.38ZM1433.31 728.082C1434.42 727.954 1435.68 727.855 1437.04 727.855C1438.3 727.855 1439.54 727.938 1440.92 728.065C1446.64 731.628 1451.01 742.861 1451.88 757.286H1422.22C1423.22 742.861 1427.58 731.644 1433.31 728.082Z" fill="#18191A"/>
<defs>
<linearGradient id="paint0_linear" x1="11.3702" y1="-60.8795" x2="930.75" y2="1085.13" gradientUnits="userSpaceOnUse">
<stop stop-color="#799B91"/>
<stop offset="1" stop-color="#3E6764"/>
</linearGradient>
<linearGradient id="paint1_linear" x1="292.03" y1="651.39" x2="763.31" y2="1145.84" gradientUnits="userSpaceOnUse">
<stop stop-color="#46736E"/>
<stop offset="1" stop-color="#2F4F4F"/>
</linearGradient>
<linearGradient id="paint2_linear" x1="168.5" y1="921.17" x2="1081.87" y2="1449.97" gradientUnits="userSpaceOnUse">
<stop offset="0.04" stop-color="#799B91"/>
<stop offset="0.05" stop-color="#789A91"/>
<stop offset="0.44" stop-color="#597E78"/>
<stop offset="0.77" stop-color="#456D69"/>
<stop offset="0.99" stop-color="#3E6764"/>
</linearGradient>
<linearGradient id="paint3_linear" x1="1561.67" y1="1338.94" x2="621.69" y2="1292.58" gradientUnits="userSpaceOnUse">
<stop stop-color="#D3C5CB"/>
<stop offset="1" stop-color="#ADA0A6"/>
</linearGradient>
<linearGradient id="paint4_linear" x1="656.89" y1="1295.23" x2="1642.15" y2="1295.23" gradientUnits="userSpaceOnUse">
<stop stop-color="#F3E9E1"/>
<stop offset="1" stop-color="#E1D1C5"/>
</linearGradient>
<linearGradient id="paint5_linear" x1="1571.26" y1="577.78" x2="936.38" y2="1616.67" gradientUnits="userSpaceOnUse">
<stop stop-color="white"/>
<stop offset="1" stop-color="#EBEFF2"/>
</linearGradient>
<linearGradient id="paint6_linear" x1="772.74" y1="1362.54" x2="1539.37" y2="1362.54" gradientUnits="userSpaceOnUse">
<stop stop-color="#AA80F9"/>
<stop offset="1" stop-color="#6165D7"/>
</linearGradient>
<linearGradient id="paint7_linear" x1="1252.62" y1="745.94" x2="1174.94" y2="986.73" gradientUnits="userSpaceOnUse">
<stop stop-color="#AB316D"/>
<stop offset="1" stop-color="#792D3D"/>
</linearGradient>
<linearGradient id="paint8_linear" x1="874.7" y1="1149.31" x2="1446.32" y2="1149.31" gradientUnits="userSpaceOnUse">
<stop stop-color="#FF9085"/>
<stop offset="1" stop-color="#FB6FBB"/>
</linearGradient>
<linearGradient id="paint9_linear" x1="1157.94" y1="958.789" x2="1158.95" y2="1154.86" gradientUnits="userSpaceOnUse">
<stop stop-color="#F36F56"/>
<stop offset="1" stop-color="#FFC444"/>
</linearGradient>
<linearGradient id="paint10_linear" x1="194511" y1="138023" x2="183103" y2="199627" gradientUnits="userSpaceOnUse">
<stop stop-color="#F36F56"/>
<stop offset="1" stop-color="#FFC444"/>
</linearGradient>
<linearGradient id="paint11_linear" x1="288399" y1="148956" x2="274194" y2="200799" gradientUnits="userSpaceOnUse">
<stop stop-color="#AB316D"/>
<stop offset="1" stop-color="#792D3D"/>
</linearGradient>
<linearGradient id="paint12_linear" x1="656.89" y1="1295.23" x2="1510.69" y2="1295.23" gradientUnits="userSpaceOnUse">
<stop stop-color="#E4D6CA"/>
<stop offset="1" stop-color="#D4BDAC"/>
</linearGradient>
<linearGradient id="paint13_linear" x1="609362" y1="63486.2" x2="617060" y2="179700" gradientUnits="userSpaceOnUse">
<stop stop-color="#E4D6CA"/>
<stop offset="1" stop-color="#D4BDAC"/>
</linearGradient>
<linearGradient id="paint14_linear" x1="650200" y1="99540.4" x2="664644" y2="230545" gradientUnits="userSpaceOnUse">
<stop stop-color="#F3E9E1"/>
<stop offset="1" stop-color="#E1D1C5"/>
</linearGradient>
<linearGradient id="paint15_linear" x1="35778.3" y1="67891.6" x2="80370.6" y2="140666" gradientUnits="userSpaceOnUse">
<stop stop-color="#E4D6CA"/>
<stop offset="1" stop-color="#D4BDAC"/>
</linearGradient>
<linearGradient id="paint16_linear" x1="66969.4" y1="114459" x2="131248" y2="192421" gradientUnits="userSpaceOnUse">
<stop stop-color="#F3E9E1"/>
<stop offset="1" stop-color="#E1D1C5"/>
</linearGradient>
<linearGradient id="paint17_linear" x1="614535" y1="109289" x2="630619" y2="247432" gradientUnits="userSpaceOnUse">
<stop stop-color="#F3E9E1"/>
<stop offset="1" stop-color="#E1D1C5"/>
</linearGradient>
<linearGradient id="paint18_linear" x1="31981.7" y1="70385.8" x2="76623.6" y2="143185" gradientUnits="userSpaceOnUse">
<stop stop-color="#E4D6CA"/>
<stop offset="1" stop-color="#D4BDAC"/>
</linearGradient>
<linearGradient id="paint19_linear" x1="31981.7" y1="70501.4" x2="76623.6" y2="143301" gradientUnits="userSpaceOnUse">
<stop stop-color="#E4D6CA"/>
<stop offset="1" stop-color="#D4BDAC"/>
</linearGradient>
<linearGradient id="paint20_linear" x1="62126.5" y1="118568" x2="126407" y2="196530" gradientUnits="userSpaceOnUse">
<stop stop-color="#F3E9E1"/>
<stop offset="1" stop-color="#E1D1C5"/>
</linearGradient>
<linearGradient id="paint21_linear" x1="578877" y1="119635" x2="596731" y2="265072" gradientUnits="userSpaceOnUse">
<stop stop-color="#F3E9E1"/>
<stop offset="1" stop-color="#E1D1C5"/>
</linearGradient>
<linearGradient id="paint22_linear" x1="57283.7" y1="122765" x2="121619" y2="200738" gradientUnits="userSpaceOnUse">
<stop stop-color="#F3E9E1"/>
<stop offset="1" stop-color="#E1D1C5"/>
</linearGradient>
<linearGradient id="paint23_linear" x1="543213" y1="130382" x2="562909" y2="283021" gradientUnits="userSpaceOnUse">
<stop stop-color="#F3E9E1"/>
<stop offset="1" stop-color="#E1D1C5"/>
</linearGradient>
<linearGradient id="paint24_linear" x1="24390" y1="75333.2" x2="69083.2" y2="148159" gradientUnits="userSpaceOnUse">
<stop stop-color="#E4D6CA"/>
<stop offset="1" stop-color="#D4BDAC"/>
</linearGradient>
<linearGradient id="paint25_linear" x1="52440.8" y1="126933" x2="116811" y2="204912" gradientUnits="userSpaceOnUse">
<stop stop-color="#F3E9E1"/>
<stop offset="1" stop-color="#E1D1C5"/>
</linearGradient>
<linearGradient id="paint26_linear" x1="1363.28" y1="790.28" x2="1928.13" y2="1822.12" gradientUnits="userSpaceOnUse">
<stop stop-color="#3B3138"/>
<stop offset="1" stop-color="#241F21"/>
</linearGradient>
<linearGradient id="paint27_linear" x1="762531" y1="928333" x2="953950" y2="574027" gradientUnits="userSpaceOnUse">
<stop stop-color="#F6AF9A"/>
<stop offset="1" stop-color="#F89F8A"/>
</linearGradient>
<linearGradient id="paint28_linear" x1="464533" y1="1.53367e+06" x2="1.13496e+06" y2="1.9609e+06" gradientUnits="userSpaceOnUse">
<stop stop-color="#F6AF9A"/>
<stop offset="1" stop-color="#F89F8A"/>
</linearGradient>
<linearGradient id="paint29_linear" x1="574710" y1="1.51292e+06" x2="772841" y2="1.568e+06" gradientUnits="userSpaceOnUse">
<stop stop-color="#F6AF9A"/>
<stop offset="1" stop-color="#F89F8A"/>
</linearGradient>
<linearGradient id="paint30_linear" x1="1662.38" y1="1295.17" x2="1624.04" y2="1143.51" gradientUnits="userSpaceOnUse">
<stop stop-color="#FAEBD7"/>
<stop offset="1" stop-color="#E8D0BA"/>
</linearGradient>
<linearGradient id="paint31_linear" x1="129018" y1="98742.2" x2="139304" y2="89379.7" gradientUnits="userSpaceOnUse">
<stop stop-color="#FAEBD7"/>
<stop offset="1" stop-color="#E8D0BA"/>
</linearGradient>
<linearGradient id="paint32_linear" x1="692344" y1="874756" x2="893233" y2="1.08524e+06" gradientUnits="userSpaceOnUse">
<stop stop-color="#F6AF9A"/>
<stop offset="1" stop-color="#F89F8A"/>
</linearGradient>
<linearGradient id="paint33_linear" x1="220705" y1="188269" x2="215979" y2="159411" gradientUnits="userSpaceOnUse">
<stop stop-color="#FAEBD7"/>
<stop offset="1" stop-color="#E8D0BA"/>
</linearGradient>
<linearGradient id="paint34_linear" x1="280831" y1="126169" x2="369398" y2="310156" gradientUnits="userSpaceOnUse">
<stop stop-color="#3B3138"/>
<stop offset="1" stop-color="#241F21"/>
</linearGradient>
<linearGradient id="paint35_linear" x1="937.01" y1="1580.09" x2="1163.64" y2="1423.86" gradientUnits="userSpaceOnUse">
<stop stop-color="#A6B2C7"/>
<stop offset="1" stop-color="#7595B6"/>
</linearGradient>
<linearGradient id="paint36_linear" x1="445583" y1="577824" x2="329805" y2="708343" gradientUnits="userSpaceOnUse">
<stop stop-color="#A6B2C7"/>
<stop offset="1" stop-color="#7595B6"/>
</linearGradient>
<linearGradient id="paint37_linear" x1="1016.31" y1="1256.62" x2="954.568" y2="1403.81" gradientUnits="userSpaceOnUse">
<stop stop-color="#587495"/>
<stop offset="1" stop-color="#1E385B"/>
</linearGradient>
<linearGradient id="paint38_linear" x1="270482" y1="531434" x2="147484" y2="561162" gradientUnits="userSpaceOnUse">
<stop stop-color="#A6B2C7"/>
<stop offset="1" stop-color="#7595B6"/>
</linearGradient>
<linearGradient id="paint39_linear" x1="57154.6" y1="209603" x2="68186" y2="201886" gradientUnits="userSpaceOnUse">
<stop stop-color="#FAEBD7"/>
<stop offset="1" stop-color="#E8D0BA"/>
</linearGradient>
</defs>
</svg>
