<svg width="100" height="182" viewBox="0 0 100 182" fill="none" xmlns="http://www.w3.org/2000/svg">
<path d="M60.8572 127.323C60.9343 138.065 58.1413 140.032 62.842 154.629V160.814L60.8572 176.4L56.9043 178.627L48.9873 172.689L47.5029 163.535C47.5029 163.535 46.2313 160.814 48.2451 157.35C52.451 146.217 56.0987 137.316 55.8125 126.603C55.2077 103.973 38.5224 91.3282 41.4046 70.4512C45.7269 54.6136 46.4483 47.4146 53.6511 38.056C54.2008 37.481 55.092 36.6162 55.092 36.6162C55.092 36.6162 55.092 37.3361 54.3716 38.7759C50.0505 44.535 45.7572 57.1032 44.2854 69.7313C40.6835 94.2077 60.6928 104.413 60.8572 127.323Z" fill="#799B91"/>
<path d="M56.0634 178.89C56.0634 178.89 64.6208 176.525 66.3522 170.436C67.4925 166.427 66.5566 157.596 65.7621 151.907C65.3344 148.845 68.037 146.217 68.037 146.217C68.037 146.217 64.7545 146.087 64.1983 148.444C63.0889 153.144 56.903 161.309 56.3362 167.672C55.6123 170.296 56.0634 178.89 56.0634 178.89Z" fill="#F2E5D9"/>
<path d="M46.5522 170.817C48.2077 177.614 57.4404 178.73 57.4404 178.73C57.4404 178.73 53.256 173.227 51.4944 169.215C48.2763 161.885 52.4499 158.093 48.4914 148.939C47.6355 146.959 45.0278 146.959 45.0278 146.959C45.0278 146.959 46.9408 148.649 46.7117 151.165C46.1982 156.805 45.5245 166.598 46.5522 170.817Z" fill="#D4BDAC"/>
<path d="M41.2727 73.3653C41.6475 75.3813 41.7789 78.0545 40.8467 80.9053C39.8384 83.9902 37.2344 88.3546 34.7736 88.0612C33.8552 87.9513 32.8904 87.1846 32.7284 86.3236C32.4928 85.0522 34.1831 84.4416 35.4815 81.7735C35.721 81.2807 36.962 78.7321 36.0805 77.8685C35.642 77.4391 34.7671 77.5126 34.1556 77.7668C32.3671 78.5119 32.6915 80.8498 31.2704 83.5662C29.8293 86.3208 26.7744 89.116 24.0906 88.7113C22.5487 88.4782 21.0287 87.1738 21.0524 86.0407C21.0623 85.5564 21.3525 85.1732 23.928 83.0177C26.0435 81.2483 26.6812 80.8098 26.7161 80.0269C26.7522 79.2213 26.1441 78.147 25.2957 77.9057C23.0837 77.2758 21.6002 82.9712 16.3893 84.8552C14.0544 85.7 10.3393 86.0065 8.9982 84.0478C8.0914 82.7232 8.31359 80.4285 9.45231 79.3135C10.479 78.3084 11.6115 78.8883 14.1892 77.6388C14.9713 77.2595 16.5785 76.4796 16.4868 75.7723C16.3754 74.9424 13.9704 74.6287 13.3878 74.5642C9.00094 74.0719 7.44261 76.4108 5.12056 75.458C3.31017 74.7147 2.03484 72.3812 2.26108 70.1994C2.45859 68.2902 3.812 66.4407 5.57487 65.8672C7.36963 65.2825 9.59347 66.3256 14.041 68.4112C16.1519 69.3997 17.6223 70.2431 19.3124 69.7175C20.1362 69.4614 21.2188 68.8155 21.165 68.1902C21.0466 66.8108 15.5719 67.5878 13.9137 64.6913C13.0646 63.2068 13.3543 61.0014 14.5578 59.7424C16.0332 58.1994 18.7256 58.242 20.401 59.2305C22.587 60.5197 21.7676 62.6662 24.4964 65.4649C25.707 66.7063 28.0633 68.5354 29.411 67.8121C29.9975 67.4967 30.4334 66.6763 30.3213 65.9343C30.071 64.2709 27.2824 64.4505 25.4203 62.1695C24.079 60.5258 23.4741 57.9168 24.363 57.0193C25.6175 55.7518 29.8245 57.9206 31.758 59.1552C34.1011 60.6439 38.7792 64.3883 41.2727 73.3653Z" fill="url(#paint0_linear)"/>
<path d="M40.8468 80.9053C41.779 78.0545 41.6476 75.3813 41.2728 73.3653C41.2728 73.3653 35.2395 71.6834 31.2705 71.253C23.9099 70.4548 19.4898 70.7059 12.3702 72.7374C9.46232 73.5671 5.12062 75.458 5.12062 75.458C7.44268 76.4107 9.00101 74.0719 13.3878 74.5642C13.9705 74.6287 16.3755 74.9424 16.4869 75.7722C16.5785 76.4796 14.9714 77.2595 14.1893 77.6388C11.6116 78.8882 10.479 78.3083 9.45237 79.3135C8.31365 80.4285 8.09146 82.7232 8.99826 84.0478C10.3394 86.0065 14.0545 85.7 16.3893 84.8552C21.6003 82.9712 23.0837 77.2758 25.2958 77.9057C26.1441 78.147 26.7523 79.2213 26.7162 80.0269C26.6812 80.8098 26.0436 81.2483 23.9281 83.0177C21.3525 85.1732 21.0624 85.5564 21.0524 86.0407C21.0287 87.1737 22.5488 88.4782 24.0907 88.7113C26.7745 89.116 29.8294 86.3208 31.2705 83.5662C32.6916 80.8498 32.3672 78.5119 34.1556 77.7668C34.7671 77.5126 35.6421 77.4391 36.0805 77.8685C36.9608 78.7309 35.7247 81.2734 35.4826 81.7713L35.4815 81.7735C34.1832 84.4416 32.4929 85.0522 32.7285 86.3236C32.8905 87.1846 33.8553 87.9513 34.7736 88.0612C37.2344 88.3546 39.8385 83.9901 40.8468 80.9053Z" fill="#799B91"/>
<path d="M56.1165 120.867C56.4913 122.883 56.6227 125.556 55.6905 128.407C54.6822 131.492 52.0781 135.857 49.6173 135.563C48.6989 135.453 47.7341 134.687 47.5722 133.826C47.3366 132.554 49.0268 131.944 50.3252 129.275C50.5648 128.783 51.8057 126.234 50.9242 125.37C50.4857 124.941 49.6108 125.015 48.9993 125.269C47.2108 126.014 47.5353 128.352 46.1142 131.068C44.6731 133.823 41.6181 136.618 38.9344 136.213C37.3924 135.98 35.8724 134.676 35.8961 133.543C35.906 133.058 36.1962 132.675 38.7718 130.52C40.8873 128.75 41.5249 128.312 41.5599 127.529C41.596 126.723 40.9878 125.649 40.1395 125.408C37.9274 124.778 36.444 130.473 31.233 132.357C28.8982 133.202 25.183 133.508 23.8419 131.55C22.9351 130.225 23.1573 127.93 24.2961 126.815C25.3227 125.81 26.4553 126.39 29.033 125.141C29.8151 124.761 31.4222 123.982 31.3306 123.274C31.2192 122.444 28.8142 122.131 28.2315 122.066C23.8447 121.574 22.2864 123.913 19.9643 122.96C18.1539 122.217 16.8786 119.883 17.1048 117.701C17.3023 115.792 18.6557 113.943 20.4186 113.369C22.2134 112.784 24.4372 113.828 28.8847 115.913C30.9957 116.902 32.4661 117.745 34.1562 117.219C34.98 116.963 36.0625 116.317 36.0088 115.692C35.8904 114.313 30.4156 115.09 28.7574 112.193C27.9084 110.709 28.1981 108.503 29.4015 107.244C30.877 105.701 33.5693 105.744 35.2448 106.732C37.4308 108.022 36.6113 110.168 39.3401 112.967C40.5507 114.208 42.9071 116.037 44.2547 115.314C44.8412 114.999 45.2772 114.178 45.165 113.436C44.9148 111.773 42.1261 111.952 40.2641 109.671C38.9228 108.028 38.3178 105.419 39.2068 104.521C40.4612 103.254 44.6683 105.423 46.6017 106.657C48.9449 108.146 53.623 111.89 56.1165 120.867Z" fill="url(#paint1_linear)"/>
<path d="M55.6905 128.407C56.6228 125.556 56.4914 122.883 56.1165 120.867C56.1165 120.867 50.0833 119.185 46.1142 118.755C38.7536 117.957 34.3335 118.208 27.2139 120.239C24.3061 121.069 19.9644 122.96 19.9644 122.96C22.2864 123.913 23.8448 121.574 28.2316 122.066C28.8142 122.131 31.2192 122.444 31.3306 123.274C31.4223 123.982 29.8151 124.761 29.0331 125.141C26.4554 126.39 25.3228 125.81 24.2961 126.815C23.1574 127.93 22.9352 130.225 23.842 131.55C25.1831 133.508 28.8982 133.202 31.2331 132.357C36.444 130.473 37.9275 124.778 40.1395 125.408C40.9879 125.649 41.596 126.723 41.5599 127.529C41.525 128.312 40.8874 128.75 38.7718 130.52C36.1963 132.675 35.9061 133.058 35.8962 133.543C35.8725 134.676 37.3925 135.98 38.9344 136.213C41.6182 136.618 44.6731 133.823 46.1142 131.068C47.5354 128.352 47.2109 126.014 48.9994 125.269C49.6109 125.015 50.4858 124.941 50.9243 125.37C51.8045 126.233 50.5684 128.775 50.3263 129.273L50.3253 129.275C49.0269 131.944 47.3366 132.554 47.5722 133.826C47.7342 134.687 48.699 135.453 49.6174 135.563C52.0782 135.857 54.6822 131.492 55.6905 128.407Z" fill="#799B91"/>
<path d="M60.367 124.077C60.7784 126.153 61.6743 128.766 63.6578 131.142C65.8035 133.714 69.9682 136.902 72.2148 135.68C73.0532 135.224 73.6849 134.12 73.5111 133.233C73.2509 131.924 71.3972 131.985 69.1327 129.923C68.7146 129.543 66.5508 127.574 67.0657 126.409C67.3218 125.83 68.1887 125.566 68.872 125.576C70.8712 125.606 71.4539 127.971 73.8546 130.032C76.289 132.122 80.2859 133.633 82.7039 132.219C84.0928 131.407 85.0512 129.575 84.5954 128.498C84.4007 128.038 83.9761 127.781 80.6832 126.7C77.9789 125.812 77.2001 125.636 76.8673 124.898C76.5247 124.14 76.697 122.878 77.418 122.322C79.2976 120.873 82.8968 125.765 88.6121 125.579C91.1732 125.496 94.8516 124.37 95.3884 121.98C95.7513 120.363 94.6611 118.249 93.1433 117.615C91.7749 117.044 90.911 118.033 87.9624 117.82C87.0677 117.756 85.229 117.623 85.0464 116.91C84.836 116.072 87.0215 114.851 87.5553 114.567C91.5723 112.418 93.9601 114.064 95.8218 112.263C97.2731 110.859 97.6035 108.134 96.5526 106.129C95.6334 104.375 93.6291 103.119 91.72 103.243C89.7761 103.369 88.0431 105.219 84.577 108.918C82.9314 110.673 81.8443 112.043 80.0233 112.186C79.1357 112.255 77.8511 112.05 77.6636 111.43C77.2498 110.062 82.7948 108.714 83.277 105.304C83.5235 103.556 82.4027 101.553 80.7678 100.806C78.7636 99.8911 76.1991 100.961 74.9709 102.549C73.3682 104.621 74.9743 106.365 73.4284 110.091C72.7426 111.744 71.1829 114.398 69.6146 114.22C68.9319 114.142 68.2004 113.522 68.0242 112.768C67.6282 111.077 70.3701 110.184 71.283 107.285C71.9404 105.197 71.523 102.465 70.3277 101.944C68.6407 101.209 65.437 104.896 64.0556 106.819C62.3785 109.141 59.3256 114.519 60.367 124.077Z" fill="url(#paint2_linear)"/>
<path d="M63.6572 131.142C61.6737 128.766 60.7778 126.153 60.3664 124.077C60.3664 124.077 65.5069 120.159 69.147 118.229C75.8976 114.65 80.2306 113.201 87.8319 112.427C90.9365 112.111 95.8212 112.263 95.8212 112.263C93.9595 114.064 91.5716 112.418 87.5547 114.567C87.0208 114.852 84.8354 116.072 85.0458 116.91C85.2284 117.623 87.0671 117.756 87.9618 117.821C90.9103 118.033 91.7743 117.044 93.1427 117.615C94.6605 118.249 95.7507 120.363 95.3878 121.98C94.851 124.37 91.1726 125.496 88.6115 125.579C82.8962 125.765 79.297 120.873 77.4173 122.322C76.6964 122.878 76.5241 124.14 76.8666 124.899C77.1994 125.636 77.9783 125.812 80.6826 126.7C83.9755 127.781 84.4001 128.038 84.5948 128.498C85.0506 129.575 84.0922 131.407 82.7032 132.22C80.2853 133.633 76.2884 132.122 73.8539 130.032C71.4533 127.972 70.8706 125.607 68.8714 125.576C68.188 125.566 67.3212 125.83 67.0651 126.409C66.5509 127.572 68.7078 129.537 69.1302 129.922L69.132 129.924C71.3966 131.985 73.2503 131.924 73.5105 133.233C73.6843 134.12 73.0526 135.224 72.2142 135.68C69.9675 136.902 65.8029 133.714 63.6572 131.142Z" fill="#799B91"/>
<path d="M43.4357 74.7258C43.5406 76.8394 44.0467 79.5547 45.6631 82.1945C47.4117 85.051 51.0679 88.8114 53.4685 87.9295C54.3644 87.6 55.15 86.5999 55.1072 85.6968C55.0403 84.3641 53.1975 84.1545 51.2571 81.7855C50.8989 81.3479 49.0447 79.0853 49.7236 78.0079C50.0614 77.4721 50.9574 77.337 51.632 77.4463C53.6055 77.7676 53.8377 80.1923 55.9129 82.5803C58.0172 85.0021 61.7516 87.0793 64.3495 86.0325C65.842 85.4304 67.0568 83.7579 66.7626 82.626C66.637 82.1421 66.2542 81.8267 63.1539 80.2772C60.6075 79.0057 59.8627 78.7176 59.6407 77.9399C59.4122 77.1396 59.7664 75.9159 60.5605 75.4711C62.6311 74.3107 65.4799 79.6749 71.1614 80.3228C73.7073 80.6136 77.5105 80.0347 78.3894 77.748C78.9837 76.2017 78.213 73.9508 76.8035 73.1031C75.5329 72.339 74.5341 73.1915 71.6479 72.5523C70.7721 72.3581 68.9724 71.9587 68.8956 71.2266C68.8094 70.3669 71.1491 69.4779 71.7187 69.2741C76.0057 67.7327 78.1285 69.709 80.2325 68.1982C81.8727 67.0199 82.5962 64.3726 81.8483 62.236C81.1943 60.3663 79.394 58.8324 77.4872 58.6774C75.5457 58.5187 73.5619 60.0968 69.5943 63.2522C67.7108 64.7485 66.4358 65.9463 64.6135 65.822C63.7253 65.7615 62.4842 65.3713 62.3889 64.7307C62.1786 63.3175 67.8608 62.791 68.8343 59.487C69.3324 57.794 68.5151 55.6488 67.0064 54.672C65.1568 53.475 62.4637 54.1604 61.0175 55.5527C59.1304 57.3688 60.4655 59.3283 58.3937 62.7896C57.4746 64.325 55.5453 66.7237 54.0196 66.3192C53.3555 66.1426 52.722 65.4229 52.6575 64.6512C52.5117 62.9214 55.3545 62.4361 56.6796 59.7015C57.6339 57.731 57.6186 54.9672 56.5119 54.2783C54.9498 53.3052 51.2436 56.4868 49.597 58.1878C47.5998 60.2417 43.7966 65.1177 43.4357 74.7258Z" fill="url(#paint3_linear)"/>
<path d="M45.6621 82.1942C44.0456 79.5544 43.5395 76.8391 43.4347 74.7256C43.4347 74.7256 49.0908 71.597 52.973 70.2175C60.1726 67.6593 64.6704 66.8565 72.3034 67.1968C75.421 67.3358 80.2314 68.198 80.2314 68.198C78.1275 69.7088 76.0046 67.7325 71.7177 69.2738C71.1481 69.4777 68.8084 70.3667 68.8946 71.2264C68.9714 71.9584 70.7711 72.3579 71.6469 72.552C74.5331 73.1913 75.5318 72.3387 76.8025 73.1029C78.2119 73.9506 78.9827 76.2014 78.3884 77.7478C77.5095 80.0345 73.7062 80.6134 71.1604 80.3225C65.4788 79.6746 62.6301 74.3105 60.5595 75.4709C59.7654 75.9157 59.4112 77.1394 59.6397 77.9396C59.8616 78.7173 60.6065 79.0054 63.1528 80.277C66.2532 81.8264 66.636 82.1419 66.7616 82.6258C67.0558 83.7577 65.841 85.4301 64.3485 86.0322C61.7506 87.0791 58.0162 85.0018 55.9119 82.5801C53.8367 80.1921 53.6045 77.7673 51.631 77.4461C50.9563 77.3368 50.0603 77.4718 49.7226 78.0076C49.0447 79.0836 50.8926 81.3412 51.2545 81.7834L51.2561 81.7853C53.1964 84.1542 55.0393 84.3638 55.1062 85.6966C55.149 86.5997 54.3634 87.5998 53.4675 87.9293C51.0669 88.8112 47.4107 85.0508 45.6621 82.1942Z" fill="#799B91"/>
<path d="M53.2391 39.4071C54.5821 41.0425 56.6058 42.9222 59.4765 44.0801C62.5824 45.3333 67.7591 46.1765 69.1622 44.0383C69.6857 43.2401 69.7212 41.9688 69.1489 41.2689C68.3014 40.2381 66.6962 41.1673 63.7266 40.42C63.1783 40.2818 60.3412 39.5685 60.2449 38.2987C60.1971 37.6671 60.8364 37.025 61.4434 36.711C63.2201 35.7937 64.8507 37.6031 67.94 38.2856C71.0727 38.9776 75.3097 38.4222 76.7731 36.034C77.6134 34.6615 77.5932 32.5945 76.6827 31.8604C76.2937 31.5465 75.7983 31.5211 72.385 32.1229C69.5822 32.618 68.8123 32.8302 68.1708 32.3377C67.5106 31.8309 67.0663 30.637 67.4394 29.8067C68.4116 27.6414 73.8947 30.2537 78.8446 27.3904C81.0629 26.1078 83.7732 23.3777 83.1174 21.0173C82.6738 19.4212 80.7141 18.0721 79.077 18.2305C77.6012 18.3735 77.3067 19.6532 74.6074 20.8586C73.7883 21.2243 72.1047 21.9752 71.607 21.433C71.0257 20.7937 72.3758 18.686 72.7119 18.1831C75.2376 14.3917 78.1199 14.715 78.9103 12.2483C79.5261 10.3248 78.5306 7.76735 76.6573 6.49648C75.0184 5.38404 72.6587 5.22407 71.0346 6.23519C69.3805 7.26403 68.7268 9.71319 67.4189 14.611C66.7971 16.9347 66.4862 18.6562 64.9483 19.6417C64.1988 20.1221 62.9695 20.5478 62.5114 20.09C61.5008 19.0801 65.7517 15.2729 64.5659 12.039C63.9577 10.3823 62.0236 9.14586 60.2299 9.25978C58.0311 9.39979 56.2761 11.5543 55.9435 13.5341C55.5093 16.1168 57.7488 16.8958 58.146 20.9101C58.3221 22.6909 58.2009 25.7669 56.7344 26.3506C56.0957 26.6042 55.1582 26.4034 54.6468 25.8219C53.4994 24.5191 55.494 22.4363 54.9298 19.4504C54.5229 17.2991 52.8645 15.0881 51.5651 15.1937C49.7308 15.3424 48.6484 20.1055 48.3389 22.4526C47.9577 25.292 47.8067 31.4739 53.2391 39.4071Z" fill="url(#paint4_linear)"/>
<path d="M59.4756 44.0807C56.605 42.9228 54.5813 41.0431 53.2383 39.4077C53.2383 39.4077 55.9185 33.5259 58.2155 30.1056C62.4753 23.7627 65.6103 20.439 71.9446 16.1664C74.5317 14.4213 78.9094 12.2489 78.9094 12.2489C78.1191 14.7156 75.2368 14.3923 72.7111 18.1837C72.3749 18.6866 71.0249 20.7943 71.6061 21.4336C72.1038 21.9758 73.7875 21.2249 74.6066 20.8592C77.3058 19.6538 77.6003 18.3741 79.0762 18.2311C80.7132 18.0727 82.673 19.4218 83.1165 21.0179C83.7723 23.3783 81.062 26.1084 78.8437 27.391C73.8939 30.2543 68.4107 27.642 67.4385 29.8073C67.0655 30.6376 67.5098 31.8315 68.1699 32.3383C68.8114 32.8308 69.5813 32.6186 72.3841 32.1235C75.7974 31.5217 76.2928 31.5471 76.6819 31.861C77.5924 32.5951 77.6126 34.6621 76.7723 36.0346C75.3088 38.4228 71.0719 38.9782 67.9391 38.2862C64.8499 37.6037 63.2192 35.7943 61.4426 36.7116C60.8356 37.0256 60.1962 37.6677 60.244 38.2993C60.3402 39.5673 63.1693 40.2803 63.7234 40.42L63.7257 40.4206C66.6953 41.1679 68.3005 40.2387 69.148 41.2695C69.7203 41.9694 69.6848 43.2407 69.1614 44.0389C67.7582 46.1771 62.5816 45.3339 59.4756 44.0807Z" fill="#799B91"/>
<defs>
<linearGradient id="paint0_linear" x1="79158" y1="-50577.3" x2="61140.6" y2="-40407.5" gradientUnits="userSpaceOnUse">
<stop stop-color="#46736E"/>
<stop offset="1" stop-color="#2F4F4F"/>
</linearGradient>
<linearGradient id="paint1_linear" x1="79172.8" y1="-50529.8" x2="61155.5" y2="-40360" gradientUnits="userSpaceOnUse">
<stop stop-color="#46736E"/>
<stop offset="1" stop-color="#2F4F4F"/>
</linearGradient>
<linearGradient id="paint2_linear" x1="-95141.8" y1="-18184.4" x2="-73983.1" y2="-15323.4" gradientUnits="userSpaceOnUse">
<stop stop-color="#46736E"/>
<stop offset="1" stop-color="#2F4F4F"/>
</linearGradient>
<linearGradient id="paint3_linear" x1="-91480" y1="-31895.8" x2="-70963" y2="-25985.5" gradientUnits="userSpaceOnUse">
<stop stop-color="#46736E"/>
<stop offset="1" stop-color="#2F4F4F"/>
</linearGradient>
<linearGradient id="paint4_linear" x1="-92508.3" y1="28866.5" x2="-72507.1" y2="21394.8" gradientUnits="userSpaceOnUse">
<stop stop-color="#46736E"/>
<stop offset="1" stop-color="#2F4F4F"/>
</linearGradient>
</defs>
</svg>
