<svg width="25" height="103" viewBox="0 0 25 103" fill="none" xmlns="http://www.w3.org/2000/svg">
<path d="M6.45879 91.832C5.9368 98.8112 14.379 102.723 14.379 102.723C14.379 102.723 22.0027 98.1647 22.0522 91.832C22.1024 85.4165 14.379 69.3071 14.379 69.3071C14.379 69.3071 6.92742 85.5663 6.45879 91.832Z" fill="#F9EFE4"/>
<path d="M6.45879 91.832C5.9368 98.8112 14.379 102.723 14.379 102.723C14.379 102.723 22.0027 98.1647 22.0522 91.832C22.1024 85.4165 14.379 69.3071 14.379 69.3071C14.379 69.3071 6.92742 85.5663 6.45879 91.832Z" fill="#D4BDAC" fill-opacity="0.2"/>
<path d="M6.45879 91.832C5.9368 98.8112 14.379 102.723 14.379 102.723C14.379 102.723 11.6568 94.5548 11.6568 91.832C11.6568 89.1092 14.379 69.3071 14.379 69.3071C14.379 69.3071 6.92742 85.5663 6.45879 91.832Z" fill="#D4BDAC"/>
<path d="M13.7626 75.1755C13.7626 75.1755 14.6626 79.677 13.3122 73.3749C11.9617 67.0728 14.8427 62.9677 14.6636 56.2691C14.2855 42.1186 3.85211 34.2116 5.65435 21.1572C8.35707 11.2538 8.8082 6.75229 13.3122 0.900307C13.6558 0.540733 14.2131 0 14.2131 0C14.2131 0 14.2131 0.450153 13.7626 1.35046C11.0607 4.95168 8.37606 12.8106 7.45569 20.707C5.20346 36.0122 17.7154 42.3936 17.8181 56.7193C17.8663 63.4362 17.4453 67.2598 14.6636 73.3749C14.3381 74.0906 13.7626 75.1755 13.7626 75.1755Z" fill="#799B91"/>
<path d="M17.327 44.5546C16.2954 46.1811 15.8418 49.2576 15.8418 49.2576C15.8418 49.2576 20.583 48.3816 22.525 46.2873C24.2947 44.3787 25.0003 40.0991 25.0003 40.0991C25.0003 40.0991 19.1829 41.6284 17.327 44.5546Z" fill="#799B91"/>
<path d="M17.327 44.5546C16.2954 46.1811 15.8418 49.2576 15.8418 49.2576C15.8418 49.2576 17.6594 46.5724 19.0596 45.0496C21.1037 42.8267 25.0003 40.0991 25.0003 40.0991C25.0003 40.0991 19.1829 41.6284 17.327 44.5546Z" fill="#2F4F4F"/>
<path d="M12.7969 51.8488C14.2757 53.1626 15.5943 56.0715 15.5943 56.0715C15.5943 56.0715 10.6656 56.5487 8.15555 55.0308C5.86815 53.6475 3.96025 49.6222 3.96025 49.6222C3.96025 49.6222 10.1363 49.4852 12.7969 51.8488Z" fill="#799B91"/>
<path d="M12.7969 51.8488C14.2757 53.1626 15.5943 56.0715 15.5943 56.0715C15.5943 56.0715 13.0399 53.935 11.2264 52.828C8.57916 51.212 3.96025 49.6222 3.96025 49.6222C3.96025 49.6222 10.1363 49.4852 12.7969 51.8488Z" fill="#2F4F4F"/>
<path d="M6.20367 9.32406C7.242 10.2465 8.16785 12.2889 8.16785 12.2889C8.16785 12.2889 4.70721 12.624 2.94482 11.5582C1.33876 10.587 -0.000853435 7.76063 -0.000853435 7.76063C-0.000853435 7.76063 4.33561 7.6645 6.20367 9.32406Z" fill="#799B91"/>
<path d="M6.20367 9.32406C7.242 10.2465 8.16785 12.2889 8.16785 12.2889C8.16785 12.2889 6.37427 10.7889 5.10099 10.0116C3.24225 8.87692 -0.000853435 7.76063 -0.000853435 7.76063C-0.000853435 7.76063 4.33561 7.6645 6.20367 9.32406Z" fill="#2F4F4F"/>
<path d="M7.63973 23.4148C6.80332 24.7336 6.43555 27.228 6.43555 27.228C6.43555 27.228 10.2798 26.5178 11.8544 24.8197C13.2893 23.2722 13.8613 19.8022 13.8613 19.8022C13.8613 19.8022 9.14452 21.0422 7.63973 23.4148Z" fill="#799B91"/>
<path d="M7.63973 23.4148C6.80332 24.7336 6.43555 27.228 6.43555 27.228C6.43555 27.228 7.90926 25.0509 9.04461 23.8162C10.702 22.0138 13.8613 19.8022 13.8613 19.8022C13.8613 19.8022 9.14452 21.0422 7.63973 23.4148Z" fill="#2F4F4F"/>
</svg>
