<svg width="16" height="71" viewBox="0 0 16 71" fill="none" xmlns="http://www.w3.org/2000/svg">
<path d="M0.475453 59.6996C-0.0259184 66.4031 8.08276 70.1605 8.08276 70.1605C8.08276 70.1605 15.4053 65.7821 15.4529 59.6996C15.5011 53.5375 8.08276 38.0645 8.08276 38.0645C8.08276 38.0645 0.925568 53.6813 0.475453 59.6996Z" fill="#F9EFE4"/>
<path d="M0.475453 59.6996C-0.0259184 66.4031 8.08276 70.1605 8.08276 70.1605C8.08276 70.1605 15.4053 65.7821 15.4529 59.6996C15.5011 53.5375 8.08276 38.0645 8.08276 38.0645C8.08276 38.0645 0.925568 53.6813 0.475453 59.6996Z" fill="#D4BDAC" fill-opacity="0.2"/>
<path d="M0.475453 59.6996C-0.0259184 66.4031 8.08276 70.1605 8.08276 70.1605C8.08276 70.1605 5.46813 62.3148 5.46813 59.6996C5.46813 57.0843 8.08276 38.0645 8.08276 38.0645C8.08276 38.0645 0.925568 53.6813 0.475453 59.6996Z" fill="#D4BDAC"/>
<path d="M7.84453 40.204C7.84453 40.204 8.31949 42.5814 7.60678 39.253C6.89407 35.9245 8.4145 33.7564 8.32002 30.2185C8.12045 22.7449 2.61427 18.5689 3.5654 11.6742C4.99175 6.44371 5.22983 4.06623 7.60678 0.975497C7.78816 0.785588 8.08227 0.5 8.08227 0.5C8.08227 0.5 8.08227 0.737748 7.84453 1.21325C6.41857 3.11523 5.00177 7.26594 4.51605 11.4364C3.32744 19.5199 9.93056 22.8902 9.9848 30.4563C10.0102 34.0039 9.78805 36.0233 8.32002 39.253C8.1482 39.631 7.84453 40.204 7.84453 40.204Z" fill="#799B91"/>
</svg>
