<svg width="203" height="384" viewBox="0 0 203 384" fill="none" xmlns="http://www.w3.org/2000/svg">
<path d="M111.244 359.268C111.244 359.268 105.942 357.401 102.675 358.229M102.675 358.229C99.7186 358.979 99.027 361.515 96.1454 362.515M102.675 358.229C102.675 358.229 105.087 363.34 104.319 366.569C103.761 368.919 102.948 370.274 101.138 371.873M96.1454 362.515C92.9932 363.608 87.6186 363.057 87.6186 363.057M96.1454 362.515C96.1454 362.515 93.49 365.305 93.5881 367.486C93.6565 369.009 95.1068 371.083 95.1068 371.083M101.138 371.873C99.7449 373.017 96.5 373 96.5 373M101.138 371.873C102.162 373.205 102 374 101.138 375C100.612 375.61 98 376.5 98 376.5" stroke="#71482F" stroke-width="0.5" stroke-linecap="round" stroke-linejoin="round"/>
<path d="M108.594 358.01C108.594 358.01 111.142 358.637 111.818 360.767M111.818 360.767C112.43 362.694 111.507 365.224 111.982 367.34M111.818 360.767C111.818 360.767 108.735 364.235 107.523 367.409C106.642 369.718 106.291 371.26 106.151 373.444M111.982 367.34C112.502 369.654 114.5 377.393 114.5 377.393M111.982 367.34C111.982 367.34 110.517 368.621 109.5 370.5C108.79 371.813 110.5 381 110.5 381M106.151 373.444C106.082 375.049 106.151 379.5 106.151 379.5M106.151 373.444C105.22 374.179 103.768 373.749 103.768 375.325C103.768 376 100.5 379.5 100.5 379.5" stroke="#71482F" stroke-width="0.5" stroke-linecap="round" stroke-linejoin="round"/>
<path d="M117.146 356.5C117.146 356.5 119.195 357.734 118.029 359.817M118.029 359.817C116.973 361.701 117.717 362.25 115.838 364.221M118.029 359.817C118.029 359.817 120.652 363.96 121.312 367.463C121.792 370.011 121.856 371.669 121.56 373.955M115.838 364.221C113.761 366.4 115.839 372 115.839 372M115.838 364.221C115.838 364.221 119.783 369.775 119.499 371.999C119.296 373.584 117.147 378.244 117.147 378.244M121.56 373.955C121.306 375.628 121.979 378.244 121.979 378.244M121.56 373.955C122.416 374.883 123.115 374.8 123.751 376.331C124.056 377.064 124.34 378.415 124.34 378.415" stroke="#71482F" stroke-width="0.5" stroke-linecap="round" stroke-linejoin="round"/>
<path d="M120.474 356.766C120.474 356.766 122.929 355.84 124.693 357.212M124.693 357.212C126.289 358.453 126.962 361.061 128.552 362.535M124.693 357.212C124.693 357.212 121.904 361.021 122.704 364.323C123.286 366.725 126.082 368.99 127.204 370.869M128.552 362.535C130.291 364.148 140 361 140 361M128.552 362.535C128.552 362.535 129.273 364.875 129.5 366.999C129.659 368.483 135.5 370 135.5 370M127.204 370.869C128.057 372.231 129.5 375.5 129.5 375.5M127.204 370.869C133 370.869 133.289 371.491 134.5 372.5C137.5 375 137 377.5 137 377.5" stroke="#71482F" stroke-width="0.5" stroke-linecap="round" stroke-linejoin="round"/>
<path d="M122.991 257.316C123.146 279.025 117.502 283 127.002 312.5V325L122.991 356.5L115.002 361L99.002 349L96.002 330.5C96.002 330.5 93.4322 325 97.502 318C106.002 295.5 113.374 277.51 112.795 255.861C111.573 210.126 77.8527 184.571 83.6776 142.38C92.4127 110.372 93.8707 95.8233 108.427 76.9098C109.538 75.7476 111.339 74 111.339 74C111.339 74 111.339 75.4549 109.883 78.3647C101.151 90.0037 92.4741 115.404 89.4995 140.925C82.2203 190.391 122.659 211.015 122.991 257.316Z" fill="#799B91"/>
<path d="M113.303 361.531C113.303 361.531 130.598 356.751 134.097 344.446C136.401 336.343 134.51 318.497 132.904 307C132.04 300.812 137.502 295.5 137.502 295.5C137.502 295.5 130.868 295.237 129.744 300C127.502 309.5 115 326 113.855 338.861C112.392 344.163 113.303 361.531 113.303 361.531Z" fill="#F2E5D9"/>
<path d="M94.081 345.216C97.4266 358.952 116.086 361.208 116.086 361.208C116.086 361.208 107.629 350.086 104.069 341.977C97.5653 327.165 106 319.5 98 301C96.2701 297 91.0001 297 91.0001 297C91.0001 297 94.8662 300.415 94.4032 305.5C93.3655 316.899 92.004 336.689 94.081 345.216Z" fill="#D4BDAC"/>
<path d="M83.4112 148.269C84.1686 152.343 84.4342 157.745 82.5502 163.507C80.5125 169.741 75.2497 178.562 70.2765 177.969C68.4205 177.747 66.4707 176.197 66.1433 174.457C65.6672 171.888 69.0832 170.654 71.7072 165.261C72.1913 164.266 74.6993 159.115 72.9178 157.37C72.0316 156.502 70.2634 156.65 69.0276 157.164C65.4131 158.67 66.0688 163.395 63.1968 168.884C60.2844 174.451 54.1104 180.1 48.6866 179.283C45.5704 178.811 42.4985 176.175 42.5464 173.885C42.5664 172.907 43.1528 172.132 48.358 167.776C52.6334 164.2 53.922 163.314 53.9927 161.732C54.0656 160.104 52.8366 157.932 51.1221 157.445C46.6516 156.172 43.6536 167.682 33.1224 171.49C28.4037 173.197 20.8956 173.816 18.1852 169.858C16.3526 167.181 16.8017 162.543 19.103 160.29C21.1778 158.259 23.4667 159.43 28.6762 156.905C30.2568 156.139 33.5047 154.563 33.3196 153.133C33.0944 151.456 28.234 150.822 27.0564 150.692C18.1908 149.697 15.0415 154.424 10.3486 152.498C6.6899 150.996 4.11251 146.28 4.56972 141.87C4.96888 138.012 7.70409 134.274 11.2668 133.115C14.894 131.934 19.3883 134.042 28.3766 138.257C32.6428 140.254 35.6143 141.959 39.03 140.897C40.6949 140.379 42.8827 139.074 42.7741 137.81C42.5348 135.022 31.4704 136.593 28.1193 130.739C26.4034 127.739 26.9889 123.282 29.421 120.737C32.4028 117.619 37.844 117.705 41.2301 119.703C45.6479 122.308 43.9918 126.646 49.5067 132.302C51.9532 134.811 56.7154 138.508 59.4389 137.046C60.6241 136.408 61.5053 134.751 61.2786 133.251C60.7729 129.889 55.137 130.252 51.3739 125.642C48.6632 122.32 47.4406 117.048 49.2371 115.234C51.7724 112.672 60.2747 117.055 64.1821 119.551C68.9176 122.559 78.3718 130.127 83.4112 148.269Z" fill="url(#paint0_linear)"/>
<path d="M82.5504 163.507C84.4344 157.746 84.1688 152.343 83.4114 148.269C83.4114 148.269 71.2183 144.87 63.197 144C48.3214 142.387 39.3885 142.894 25 147C19.1233 148.677 10.3488 152.498 10.3488 152.498C15.0416 154.424 18.191 149.697 27.0566 150.692C28.2342 150.822 33.0946 151.456 33.3197 153.133C33.5049 154.563 30.2569 156.139 28.6764 156.905C23.4669 159.431 21.178 158.259 19.1032 160.29C16.8019 162.543 16.3528 167.181 18.1854 169.858C20.8958 173.816 28.4039 173.197 33.1226 171.49C43.6538 167.682 46.6517 156.172 51.1223 157.445C52.8368 157.933 54.0658 160.104 53.9929 161.732C53.9222 163.314 52.6336 164.2 48.3582 167.776C43.153 172.132 42.5666 172.907 42.5465 173.886C42.4986 176.175 45.5706 178.812 48.6868 179.283C54.1106 180.101 60.2846 174.452 63.197 168.885C66.069 163.395 65.4133 158.67 69.0278 157.164C70.2636 156.65 72.0318 156.502 72.9179 157.37C74.6969 159.113 72.1987 164.251 71.7094 165.257L71.7073 165.262C69.0834 170.654 65.6674 171.888 66.1435 174.457C66.4709 176.197 68.4207 177.747 70.2767 177.969C75.2499 178.562 80.5127 169.741 82.5504 163.507Z" fill="#799B91"/>
<path d="M113.411 244.269C114.169 248.343 114.434 253.745 112.55 259.507C110.512 265.741 105.25 274.562 100.277 273.969C98.4205 273.747 96.4707 272.197 96.1433 270.457C95.6672 267.888 99.0832 266.654 101.707 261.261C102.191 260.266 104.699 255.115 102.918 253.37C102.032 252.502 100.263 252.65 99.0276 253.164C95.4131 254.67 96.0688 259.395 93.1968 264.884C90.2844 270.451 84.1104 276.1 78.6866 275.283C75.5704 274.811 72.4985 272.175 72.5464 269.885C72.5664 268.907 73.1528 268.132 78.358 263.776C82.6334 260.2 83.922 259.314 83.9927 257.732C84.0656 256.104 82.8366 253.932 81.1221 253.445C76.6516 252.172 73.6536 263.682 63.1224 267.49C58.4037 269.197 50.8956 269.816 48.1852 265.858C46.3526 263.181 46.8017 258.543 49.103 256.29C51.1778 254.259 53.4667 255.43 58.6762 252.905C60.2568 252.139 63.5047 250.563 63.3196 249.133C63.0944 247.456 58.234 246.822 57.0564 246.692C48.1908 245.697 45.0415 250.424 40.3486 248.498C36.6899 246.996 34.1125 242.28 34.5697 237.87C34.9689 234.012 37.7041 230.274 41.2668 229.115C44.894 227.934 49.3883 230.042 58.3766 234.257C62.6428 236.254 65.6143 237.959 69.03 236.897C70.6949 236.379 72.8827 235.074 72.7741 233.81C72.5348 231.022 61.4704 232.593 58.1193 226.739C56.4034 223.739 56.9889 219.282 59.421 216.737C62.4028 213.619 67.844 213.705 71.2301 215.703C75.6479 218.308 73.9918 222.646 79.5067 228.302C81.9532 230.811 86.7154 234.508 89.4389 233.046C90.6241 232.408 91.5053 230.751 91.2786 229.251C90.7729 225.889 85.137 226.252 81.3739 221.642C78.6632 218.32 77.4406 213.048 79.2371 211.234C81.7724 208.672 90.2747 213.055 94.1821 215.551C98.9176 218.559 108.372 226.127 113.411 244.269Z" fill="url(#paint1_linear)"/>
<path d="M112.55 259.507C114.434 253.746 114.169 248.343 113.411 244.269C113.411 244.269 101.218 240.87 93.197 240C78.3214 238.387 69.3885 238.894 55 243C49.1233 244.677 40.3488 248.498 40.3488 248.498C45.0416 250.424 48.191 245.697 57.0566 246.692C58.2342 246.822 63.0946 247.456 63.3197 249.133C63.5049 250.563 60.2569 252.139 58.6764 252.905C53.4669 255.431 51.178 254.259 49.1032 256.29C46.8019 258.543 46.3528 263.181 48.1854 265.858C50.8958 269.816 58.4039 269.197 63.1226 267.49C73.6538 263.682 76.6517 252.172 81.1223 253.445C82.8368 253.933 84.0658 256.104 83.9929 257.732C83.9222 259.314 82.6336 260.2 78.3582 263.776C73.153 268.132 72.5666 268.907 72.5465 269.886C72.4986 272.175 75.5706 274.812 78.6868 275.283C84.1106 276.101 90.2846 270.452 93.197 264.885C96.069 259.395 95.4133 254.67 99.0278 253.164C100.264 252.65 102.032 252.502 102.918 253.37C104.697 255.113 102.199 260.251 101.709 261.257L101.707 261.262C99.0834 266.654 95.6674 267.888 96.1435 270.457C96.4709 272.197 98.4207 273.747 100.277 273.969C105.25 274.562 110.513 265.741 112.55 259.507Z" fill="#799B91"/>
<path d="M122.001 250.756C122.832 254.951 124.643 260.232 128.651 265.034C132.988 270.231 141.404 276.675 145.945 274.205C147.639 273.283 148.916 271.052 148.564 269.259C148.038 266.614 144.292 266.737 139.716 262.571C138.871 261.802 134.498 257.823 135.538 255.469C136.056 254.298 137.808 253.765 139.189 253.785C143.229 253.847 144.407 258.626 149.258 262.791C154.178 267.014 162.256 270.069 167.143 267.211C169.95 265.569 171.887 261.867 170.965 259.691C170.572 258.76 169.714 258.242 163.059 256.056C157.594 254.262 156.02 253.906 155.347 252.416C154.655 250.883 155.003 248.332 156.46 247.209C160.259 244.28 167.533 254.167 179.083 253.791C184.259 253.624 191.693 251.348 192.778 246.517C193.511 243.25 191.308 238.977 188.24 237.696C185.475 236.542 183.729 238.541 177.77 238.112C175.962 237.981 172.246 237.712 171.877 236.271C171.452 234.577 175.868 232.111 176.947 231.536C185.065 227.193 189.891 230.52 193.654 226.881C196.587 224.042 197.254 218.536 195.131 214.484C193.273 210.938 189.222 208.401 185.364 208.652C181.435 208.906 177.933 212.644 170.928 220.121C167.602 223.667 165.406 226.436 161.725 226.724C159.932 226.864 157.335 226.449 156.956 225.196C156.12 222.433 167.326 219.708 168.301 212.816C168.799 209.284 166.534 205.235 163.23 203.726C159.18 201.877 153.997 204.04 151.515 207.249C148.276 211.435 151.521 214.96 148.397 222.49C147.011 225.831 143.859 231.194 140.69 230.834C139.31 230.677 137.831 229.424 137.476 227.9C136.675 224.484 142.216 222.678 144.061 216.82C145.39 212.6 144.546 207.078 142.131 206.026C138.721 204.54 132.247 211.992 129.455 215.877C126.066 220.571 119.896 231.439 122.001 250.756Z" fill="url(#paint2_linear)"/>
<path d="M128.65 265.035C124.641 260.232 122.831 254.952 121.999 250.757C121.999 250.757 132.388 242.837 139.745 238.937C153.387 231.704 162.144 228.776 177.506 227.211C183.781 226.572 193.653 226.881 193.653 226.881C189.89 230.521 185.064 227.194 176.946 231.537C175.867 232.112 171.451 234.577 171.876 236.271C172.245 237.712 175.961 237.981 177.769 238.112C183.728 238.541 185.474 236.543 188.239 237.697C191.307 238.977 193.51 243.251 192.777 246.517C191.692 251.348 184.258 253.625 179.082 253.792C167.531 254.168 160.258 244.28 156.459 247.209C155.002 248.332 154.654 250.883 155.346 252.416C156.019 253.906 157.593 254.263 163.058 256.056C169.713 258.242 170.571 258.76 170.964 259.691C171.885 261.868 169.949 265.569 167.142 267.212C162.255 270.069 154.177 267.014 149.257 262.791C144.406 258.627 143.228 253.847 139.188 253.785C137.807 253.765 136.055 254.299 135.537 255.469C134.498 257.82 138.857 261.791 139.711 262.568L139.715 262.572C144.291 266.737 148.037 266.614 148.563 269.259C148.915 271.053 147.638 273.283 145.944 274.206C141.403 276.675 132.986 270.232 128.65 265.035Z" fill="#799B91"/>
<path d="M87.784 151.018C87.996 155.29 89.0188 160.777 92.2855 166.112C95.8194 171.885 103.208 179.485 108.06 177.703C109.871 177.037 111.458 175.016 111.372 173.19C111.237 170.497 107.512 170.073 103.591 165.286C102.867 164.402 99.1197 159.829 100.492 157.651C101.174 156.568 102.985 156.296 104.348 156.516C108.337 157.166 108.806 162.066 113 166.892C117.253 171.786 124.8 175.985 130.05 173.869C133.067 172.652 135.522 169.272 134.927 166.984C134.673 166.007 133.9 165.369 127.634 162.238C122.488 159.668 120.982 159.086 120.534 157.514C120.072 155.897 120.788 153.424 122.393 152.525C126.577 150.18 132.335 161.02 143.817 162.33C148.962 162.918 156.648 161.747 158.425 157.126C159.626 154.001 158.068 149.452 155.219 147.739C152.651 146.195 150.633 147.918 144.8 146.626C143.03 146.233 139.393 145.426 139.238 143.947C139.064 142.209 143.792 140.412 144.943 140.001C153.607 136.886 157.897 140.88 162.149 137.826C165.464 135.445 166.926 130.095 165.415 125.777C164.093 121.998 160.455 118.898 156.601 118.585C152.677 118.264 148.668 121.453 140.65 127.831C136.843 130.855 134.267 133.275 130.584 133.024C128.789 132.902 126.281 132.113 126.088 130.819C125.663 127.963 137.146 126.898 139.114 120.221C140.121 116.8 138.469 112.464 135.42 110.49C131.682 108.071 126.239 109.456 123.316 112.27C119.503 115.94 122.201 119.9 118.014 126.896C116.156 129.999 112.257 134.846 109.174 134.029C107.832 133.672 106.551 132.218 106.421 130.658C106.126 127.162 111.872 126.181 114.55 120.655C116.478 116.672 116.447 111.087 114.211 109.694C111.054 107.728 103.564 114.158 100.236 117.596C96.1995 121.746 88.5135 131.601 87.784 151.018Z" fill="url(#paint3_linear)"/>
<path d="M92.2839 166.112C89.0171 160.777 87.9943 155.29 87.7824 151.019C87.7824 151.019 99.2132 144.696 107.059 141.908C121.609 136.738 130.699 135.115 146.125 135.803C152.426 136.084 162.148 137.827 162.148 137.827C157.896 140.88 153.605 136.886 144.942 140.001C143.79 140.413 139.062 142.209 139.236 143.947C139.391 145.426 143.029 146.234 144.798 146.626C150.631 147.918 152.65 146.195 155.218 147.739C158.066 149.452 159.624 154.001 158.423 157.126C156.647 161.748 148.96 162.918 143.815 162.33C132.333 161.02 126.576 150.18 122.391 152.525C120.786 153.424 120.07 155.897 120.532 157.514C120.981 159.086 122.486 159.668 127.632 162.238C133.898 165.369 134.672 166.007 134.925 166.985C135.52 169.272 133.065 172.652 130.049 173.869C124.798 175.985 117.251 171.787 112.998 166.892C108.805 162.066 108.335 157.166 104.347 156.517C102.983 156.296 101.173 156.569 100.49 157.651C99.12 159.826 102.855 164.389 103.586 165.282L103.589 165.286C107.511 170.074 111.235 170.497 111.37 173.191C111.457 175.016 109.869 177.037 108.058 177.703C103.207 179.485 95.8177 171.885 92.2839 166.112Z" fill="#799B91"/>
<path d="M107.597 79.6408C110.311 82.9459 114.401 86.7448 120.202 89.0848C126.479 91.6176 136.941 93.3216 139.777 89.0004C140.835 87.3872 140.907 84.818 139.75 83.4034C138.037 81.3203 134.793 83.1981 128.792 81.6878C127.684 81.4085 121.95 79.9671 121.755 77.4007C121.659 76.1243 122.951 74.8266 124.178 74.1921C127.768 72.3382 131.064 75.9951 137.307 77.3742C143.638 78.7729 152.201 77.6504 155.158 72.8239C156.857 70.05 156.816 65.8727 154.976 64.3892C154.189 63.7548 153.188 63.7034 146.29 64.9197C140.626 65.9203 139.07 66.3491 137.773 65.3537C136.439 64.3296 135.541 61.9166 136.295 60.2386C138.26 55.8626 149.341 61.1421 159.345 55.3554C163.828 52.7634 169.305 47.2458 167.98 42.4755C167.084 39.2498 163.123 36.5234 159.815 36.8436C156.832 37.1325 156.237 39.7186 150.782 42.1549C149.126 42.8938 145.724 44.4115 144.718 43.3156C143.543 42.0236 146.272 37.7641 146.951 36.7476C152.055 29.0854 157.88 29.7388 159.478 24.7536C160.722 20.8663 158.71 15.6978 154.924 13.1294C151.612 10.8812 146.843 10.5579 143.561 12.6013C140.218 14.6806 138.897 19.6303 136.254 29.5285C134.997 34.2248 134.369 37.7038 131.261 39.6955C129.746 40.6664 127.262 41.5268 126.336 40.6015C124.293 38.5604 132.884 30.8663 130.488 24.3307C129.259 20.9826 125.35 18.4837 121.725 18.7139C117.281 18.9969 113.734 23.351 113.062 27.3522C112.185 32.5719 116.711 34.1461 117.513 42.2589C117.869 45.8578 117.625 52.0743 114.661 53.2539C113.37 53.7665 111.475 53.3607 110.442 52.1855C108.123 49.5527 112.154 45.3433 111.014 39.3089C110.191 34.9612 106.84 30.4927 104.214 30.7063C100.507 31.0067 98.3192 40.6328 97.6936 45.3762C96.9233 51.1146 96.6181 63.6081 107.597 79.6408Z" fill="url(#paint4_linear)"/>
<path d="M120.2 89.0861C114.399 86.7461 110.309 82.9471 107.595 79.6421C107.595 79.6421 113.011 67.7551 117.654 60.8428C126.263 48.0239 132.598 41.3069 145.4 32.672C150.628 29.1452 159.475 24.7549 159.475 24.7549C157.878 29.74 152.053 29.0867 146.949 36.7489C146.269 37.7654 143.541 42.0248 144.716 43.3168C145.721 44.4128 149.124 42.8951 150.779 42.1561C156.235 39.7199 156.83 37.1337 159.812 36.8448C163.121 36.5246 167.081 39.251 167.978 42.4767C169.303 47.247 163.826 52.7646 159.343 55.3566C149.339 61.1434 138.258 55.8638 136.293 60.2399C135.539 61.9179 136.437 64.3308 137.771 65.3549C139.068 66.3503 140.624 65.9215 146.288 64.921C153.186 63.7046 154.187 63.756 154.974 64.3904C156.814 65.8739 156.855 70.0512 155.156 72.8251C152.199 77.6517 143.636 78.7741 137.305 77.3754C131.061 75.9963 127.766 72.3395 124.175 74.1933C122.949 74.8279 121.657 76.1255 121.753 77.4019C121.948 79.9646 127.665 81.4056 128.785 81.6878L128.79 81.689C134.791 83.1993 138.035 81.3216 139.748 83.4047C140.904 84.8192 140.833 87.3885 139.775 89.0016C136.939 93.3229 126.477 91.6188 120.2 89.0861Z" fill="#799B91"/>
<defs>
<linearGradient id="paint0_linear" x1="159976" y1="-102215" x2="123564" y2="-81662.4" gradientUnits="userSpaceOnUse">
<stop stop-color="#46736E"/>
<stop offset="1" stop-color="#2F4F4F"/>
</linearGradient>
<linearGradient id="paint1_linear" x1="160006" y1="-102119" x2="123594" y2="-81566.4" gradientUnits="userSpaceOnUse">
<stop stop-color="#46736E"/>
<stop offset="1" stop-color="#2F4F4F"/>
</linearGradient>
<linearGradient id="paint2_linear" x1="-192279" y1="-36750.2" x2="-149518" y2="-30968.2" gradientUnits="userSpaceOnUse">
<stop stop-color="#46736E"/>
<stop offset="1" stop-color="#2F4F4F"/>
</linearGradient>
<linearGradient id="paint3_linear" x1="-184878" y1="-64460.5" x2="-143414" y2="-52516" gradientUnits="userSpaceOnUse">
<stop stop-color="#46736E"/>
<stop offset="1" stop-color="#2F4F4F"/>
</linearGradient>
<linearGradient id="paint4_linear" x1="-186957" y1="58338.4" x2="-146535" y2="43238.4" gradientUnits="userSpaceOnUse">
<stop stop-color="#46736E"/>
<stop offset="1" stop-color="#2F4F4F"/>
</linearGradient>
</defs>
</svg>
