<svg width="28" height="28" viewBox="0 0 28 28" fill="none" xmlns="http://www.w3.org/2000/svg">
<path d="M14 0C6.26875 0 0 6.26875 0 14C0 21.7313 6.26875 28 14 28C21.7313 28 28 21.7313 28 14C28 6.26875 21.7313 0 14 0ZM14 25.625C7.58125 25.625 2.375 20.4188 2.375 14C2.375 7.58125 7.58125 2.375 14 2.375C20.4188 2.375 25.625 7.58125 25.625 14C25.625 20.4188 20.4188 25.625 14 25.625Z" fill="#212348"/>
<path d="M19.1281 13.7906L12.3031 8.82809C12.2658 8.80097 12.2216 8.78472 12.1756 8.78115C12.1296 8.77757 12.0834 8.78682 12.0423 8.80785C12.0013 8.82888 11.9668 8.86089 11.9428 8.90031C11.9187 8.93974 11.9061 8.98505 11.9063 9.03122V18.9562C11.9063 19.0023 11.9191 19.0475 11.9432 19.0867C11.9672 19.126 12.0017 19.1579 12.0427 19.1789C12.0837 19.1999 12.1297 19.2092 12.1757 19.2057C12.2216 19.2023 12.2657 19.1862 12.3031 19.1593L19.1281 14.1937C19.1604 14.1709 19.1867 14.1407 19.2048 14.1056C19.223 14.0706 19.2325 14.0316 19.2325 13.9922C19.2325 13.9527 19.223 13.9137 19.2048 13.8787C19.1867 13.8436 19.1604 13.8134 19.1281 13.7906Z" fill="#212348"/>
</svg>
